{"glyphs":{"0":{"ha":796,"x_min":0,"x_max":0,"o":"m 392 -25 b 162 118 300 -25 223 23 b 69 474 100 213 69 332 b 113 749 69 575 84 666 b 232 942 141 831 181 896 b 401 1013 283 989 339 1013 b 636 863 498 1013 576 963 b 726 476 696 763 726 634 b 682 223 726 385 712 300 b 561 41 652 146 612 85 b 392 -25 510 -3 454 -25 m 392 33 b 524 93 439 33 483 53 b 621 255 564 133 597 187 b 657 476 645 323 657 397 b 584 819 657 615 633 729 b 401 953 535 908 475 953 b 270 890 354 953 310 932 b 174 716 230 847 198 790 b 139 474 151 642 139 562 b 213 161 139 350 164 246 b 392 33 263 76 322 33 "},"1":{"ha":526,"x_min":0,"x_max":0,"o":"m 346 990 b 368 996 352 997 360 999 l 401 983 b 415 965 411 981 415 975 l 415 19 b 399 3 415 8 410 3 l 363 3 b 346 19 351 3 346 8 l 346 897 l 346 899 b 122 694 256 806 181 738 b 99 697 114 688 106 689 l 81 721 b 83 744 73 729 74 737 b 306 950 137 784 211 853 l 346 990 "},"2":{"ha":767,"x_min":0,"x_max":0,"o":"m 535 50 b 577 84 542 50 556 61 b 631 151 598 107 616 129 b 653 158 636 160 644 162 l 679 144 b 686 122 690 140 693 132 b 612 30 665 87 640 56 b 540 -10 584 3 560 -10 b 399 36 518 -10 471 6 b 206 99 300 78 236 99 b 182 92 194 99 186 96 b 169 17 175 67 170 42 b 153 0 169 6 163 0 l 117 0 b 100 17 105 0 99 6 b 115 106 101 47 106 77 b 154 192 123 135 137 164 b 204 265 172 219 188 244 b 270 336 220 285 242 309 b 338 398 298 363 321 384 b 408 460 354 412 378 433 b 479 519 440 486 463 505 b 537 573 495 532 514 550 b 587 631 559 596 576 615 b 615 685 597 646 607 664 b 628 744 624 705 628 725 b 616 808 628 765 624 786 b 580 876 608 831 596 853 b 508 931 564 898 540 917 b 397 953 476 946 439 953 b 218 883 331 953 271 930 b 139 726 165 837 139 785 b 147 677 139 707 142 691 b 167 649 153 664 159 654 b 193 633 175 643 184 638 b 219 622 202 629 211 625 b 239 608 227 619 233 615 b 247 582 244 601 247 592 b 234 550 247 570 243 559 b 201 536 225 541 214 536 b 110 599 167 536 137 557 b 69 726 83 641 69 684 b 169 926 69 801 103 868 b 397 1013 235 984 311 1013 b 499 999 433 1013 467 1008 b 577 961 530 989 556 977 b 633 909 598 945 616 928 b 671 850 649 890 662 870 b 691 792 680 830 687 810 b 697 744 695 774 697 758 b 682 670 697 720 692 696 b 647 603 672 645 660 622 b 590 536 634 584 615 562 b 526 476 564 510 543 490 b 454 414 510 461 486 441 b 381 351 422 387 397 366 b 319 294 364 337 343 317 b 256 225 294 270 273 247 b 211 158 238 203 223 181 b 425 92 252 156 323 134 b 535 50 491 64 527 50 "},"3":{"ha":807,"x_min":0,"x_max":0,"o":"m 438 671 b 654 576 529 668 601 637 b 733 335 707 516 733 436 b 631 90 733 240 699 159 b 389 -12 563 22 482 -12 b 163 72 300 -12 225 16 b 69 279 100 129 69 198 b 124 431 69 338 88 388 b 250 494 160 473 202 494 b 297 482 268 494 283 490 b 317 442 310 474 317 460 b 303 411 317 429 312 419 b 271 400 295 404 284 400 b 243 403 263 400 253 401 b 221 407 233 406 225 407 b 163 374 199 407 179 396 b 139 279 147 353 139 321 b 212 115 139 214 163 159 b 389 47 260 70 319 47 b 582 132 463 47 527 75 b 664 335 637 188 664 256 b 635 483 664 392 654 442 b 551 579 615 525 588 557 b 422 613 515 601 472 613 b 379 610 408 613 394 612 b 358 619 370 609 363 612 l 343 644 b 346 668 338 653 339 661 l 578 914 b 449 940 551 917 508 925 b 311 965 377 957 331 965 b 273 939 303 965 290 956 b 199 853 256 921 231 893 l 188 839 b 164 836 181 831 173 830 l 139 856 b 135 879 130 862 128 870 l 146 892 b 241 996 187 942 218 976 b 304 1025 264 1015 285 1025 b 465 999 335 1025 388 1016 b 607 972 536 981 583 972 b 638 979 621 972 631 975 l 676 1019 b 700 1021 684 1028 692 1028 l 725 1001 b 726 978 733 994 734 986 l 438 671 "},"4":{"ha":804,"x_min":0,"x_max":0,"o":"m 718 294 b 735 278 729 294 735 289 l 735 251 b 718 235 735 240 729 235 l 608 235 l 608 17 b 592 0 608 6 603 0 l 556 0 b 539 17 544 0 539 6 l 539 235 l 99 235 b 79 244 90 235 84 238 l 63 268 b 63 290 58 275 58 283 l 71 306 b 149 448 103 363 129 410 b 227 604 169 485 195 538 b 308 806 259 671 286 738 b 358 1006 331 873 347 940 b 378 1019 360 1017 367 1021 l 413 1015 b 426 996 424 1013 428 1007 b 386 831 417 943 404 888 b 333 676 369 773 351 722 b 267 529 315 631 293 582 b 203 403 241 476 219 434 b 142 294 186 372 166 336 l 539 294 l 539 865 b 556 882 539 876 544 882 l 592 882 b 608 865 603 882 608 876 l 608 294 l 718 294 "},"5":{"ha":792,"x_min":0,"x_max":0,"o":"m 379 -35 b 161 56 295 -35 222 -4 b 69 272 100 117 69 189 b 124 430 69 334 88 387 b 250 494 160 473 202 494 b 317 442 294 494 317 477 b 303 411 317 429 312 419 b 271 400 295 404 284 400 b 242 403 262 400 252 401 b 221 407 233 406 225 407 b 162 373 197 407 177 396 b 139 272 147 350 139 317 b 210 98 139 205 163 147 b 379 25 258 49 314 25 b 573 114 455 25 520 55 b 653 331 626 173 653 245 b 573 567 653 426 626 505 b 371 660 520 629 452 660 b 233 619 310 660 264 646 b 211 614 226 613 219 611 l 178 629 b 167 650 168 633 164 640 l 243 990 b 264 1001 246 1000 253 1004 l 600 918 l 653 993 b 676 999 659 1002 667 1004 l 704 981 b 710 958 714 975 716 968 l 640 860 b 618 851 635 852 627 850 l 301 931 l 249 697 b 371 719 287 712 327 719 b 622 609 472 719 556 683 b 722 331 689 535 722 443 b 622 72 722 229 689 142 b 379 -35 556 1 475 -35 "},"6":{"ha":760,"x_min":0,"x_max":0,"o":"m 389 -33 b 161 105 298 -33 222 13 b 69 446 100 197 69 311 b 78 558 69 485 72 522 b 103 658 83 594 92 628 b 140 744 115 689 127 718 b 188 819 153 771 169 796 b 240 883 207 843 225 864 b 298 938 256 902 275 920 b 355 981 321 955 340 970 b 411 1018 370 993 389 1005 b 460 1047 433 1031 450 1041 b 501 1068 470 1053 484 1060 l 513 1075 b 536 1069 522 1080 530 1078 l 551 1044 b 547 1022 558 1035 556 1028 l 533 1015 b 473 983 508 1002 488 992 b 404 940 458 975 435 960 b 327 880 374 919 348 899 b 257 804 306 861 283 836 b 195 707 231 773 210 740 b 156 589 180 674 167 634 b 139 446 144 544 139 496 b 212 149 139 329 163 230 b 389 26 260 67 319 26 b 477 53 419 26 449 35 b 551 126 505 72 530 96 b 602 235 573 157 590 193 b 621 368 615 278 621 322 b 563 614 621 469 601 551 b 410 708 524 677 473 708 b 319 667 376 708 346 695 b 278 575 291 640 278 609 b 287 540 278 565 281 553 b 294 509 293 527 295 517 b 271 486 294 501 286 494 b 225 497 251 476 236 480 b 208 575 214 515 208 541 b 270 710 208 626 229 671 b 410 768 311 749 358 768 b 613 658 494 768 562 731 b 690 368 665 584 690 488 b 602 83 690 256 661 161 b 389 -33 543 6 472 -33 "},"7":{"ha":674,"x_min":0,"x_max":0,"o":"m 617 1013 b 625 992 627 1009 630 1002 l 457 576 l 567 576 b 583 560 578 576 583 571 l 583 533 b 567 517 583 522 578 517 l 432 517 l 224 4 b 203 -4 220 -5 213 -8 l 169 7 b 160 28 158 11 155 18 l 358 517 l 226 517 b 210 533 215 517 210 522 l 210 560 b 226 576 210 571 215 576 l 383 576 l 514 897 b 464 893 499 894 482 893 b 260 947 445 893 377 911 l 167 975 l 82 828 b 60 821 76 819 69 816 l 29 836 b 22 858 19 841 17 848 l 125 1036 b 146 1044 130 1044 137 1047 b 281 1004 172 1037 217 1024 b 464 953 392 970 453 953 b 521 966 488 953 507 957 b 561 1017 535 975 548 992 b 583 1025 566 1026 573 1029 l 617 1013 "},"8":{"ha":789,"x_min":0,"x_max":0,"o":"m 514 613 b 661 490 573 587 622 546 b 719 308 700 434 719 373 b 627 74 719 215 689 137 b 396 -19 566 12 488 -19 b 229 24 335 -19 279 -5 b 112 142 179 52 140 92 b 69 308 84 192 69 247 b 127 486 69 371 89 431 b 272 610 166 542 214 583 b 171 694 230 629 196 657 b 133 817 146 730 133 771 b 204 967 133 879 157 929 b 389 1025 251 1006 313 1025 b 580 967 467 1025 530 1006 b 654 817 629 928 654 878 b 636 733 654 787 648 759 b 587 663 624 706 608 683 b 514 613 566 642 542 625 m 203 817 b 217 749 203 793 207 770 b 255 694 226 727 239 709 b 315 659 271 680 291 668 b 389 646 338 650 363 646 b 465 659 416 646 441 650 b 528 695 489 668 510 680 b 569 750 545 710 559 729 b 585 817 580 771 585 794 b 531 924 585 861 567 897 b 389 965 496 952 448 965 b 253 925 331 965 286 952 b 203 817 219 898 203 862 m 396 40 b 578 117 469 40 530 66 b 650 308 626 168 650 231 b 628 410 650 344 643 378 b 572 497 614 443 595 472 b 490 556 548 521 521 541 b 396 578 459 570 427 578 b 272 540 353 578 312 565 b 176 440 232 515 200 482 b 139 308 151 397 139 354 b 212 117 139 231 163 168 b 396 40 260 66 322 40 "},"9":{"ha":751,"x_min":0,"x_max":0,"o":"m 197 -176 b 176 -168 188 -181 181 -178 l 164 -143 b 172 -121 159 -133 162 -125 b 262 -64 198 -108 228 -89 b 376 39 296 -39 334 -5 b 491 181 419 82 457 130 b 577 364 525 233 553 294 b 613 579 601 434 613 506 b 546 857 613 691 590 784 b 378 967 501 930 445 967 b 210 865 314 967 258 933 b 139 624 163 798 139 717 b 192 376 139 522 157 439 b 333 281 228 312 275 281 b 428 324 368 281 399 295 b 472 421 458 353 472 386 b 465 451 472 429 470 439 b 458 481 459 463 457 473 b 478 503 459 489 466 496 b 499 508 484 507 491 509 b 519 500 506 507 513 505 b 535 472 526 495 531 486 b 542 421 540 458 542 441 b 478 282 542 369 520 323 b 333 221 435 241 387 221 b 194 272 281 221 234 238 b 101 413 153 305 123 353 b 69 624 80 474 69 544 b 160 908 69 735 100 830 b 378 1026 221 987 294 1026 b 597 901 468 1026 541 984 b 682 579 654 817 682 710 b 643 347 682 500 669 423 b 548 151 617 271 585 206 b 422 -3 510 96 469 44 b 297 -115 376 -50 334 -87 b 197 -176 259 -142 226 -162 "}," ":{"ha":431,"x_min":0,"x_max":0,"o":""},"!":{"ha":296,"x_min":0,"x_max":0,"o":"m 128 181 b 111 197 117 181 111 186 l 111 757 b 124 905 111 819 115 868 b 167 1004 132 941 146 975 b 190 1008 173 1013 181 1014 l 217 989 b 221 967 226 983 227 976 b 190 886 206 944 196 918 b 181 757 184 855 181 812 l 181 197 b 164 181 181 186 175 181 l 128 181 m 158 -18 b 135 -18 151 -29 143 -29 l 96 39 b 96 61 90 46 90 54 l 135 117 b 158 117 143 128 151 128 l 199 61 b 199 39 204 54 204 46 l 158 -18 "},"\"":{"ha":339,"x_min":0,"x_max":0,"o":"m 79 757 b 63 774 68 757 63 763 l 56 999 b 72 1015 56 1010 61 1015 l 108 1015 b 125 999 119 1015 125 1010 l 118 774 b 101 757 118 763 113 757 l 79 757 m 238 757 b 221 774 226 757 221 763 l 214 999 b 231 1015 214 1010 219 1015 l 267 1015 b 283 999 278 1015 283 1010 l 276 774 b 260 757 276 763 271 757 l 238 757 "},"#":{"ha":843,"x_min":0,"x_max":0,"o":"m 815 722 b 799 706 815 711 810 706 l 649 706 l 581 314 l 717 314 b 733 297 728 314 733 308 l 733 271 b 717 254 733 260 728 254 l 571 254 l 529 13 b 510 -1 527 1 521 -3 l 475 4 b 461 24 464 6 459 13 l 500 254 l 246 254 l 204 13 b 185 -1 202 1 196 -3 l 150 4 b 136 24 139 6 134 13 l 176 254 l 44 254 b 28 271 33 254 28 260 l 28 297 b 44 314 28 308 33 314 l 186 314 l 253 706 l 126 706 b 110 722 115 706 110 711 l 110 749 b 126 765 110 760 115 765 l 264 765 l 304 1004 b 324 1018 306 1014 313 1019 l 358 1013 b 372 993 369 1011 374 1004 l 333 765 l 589 765 l 629 1004 b 649 1018 631 1014 638 1019 l 683 1013 b 697 993 694 1011 699 1004 l 658 765 l 799 765 b 815 749 810 765 815 760 l 815 722 m 578 706 l 324 706 l 256 314 l 511 314 "},"$":{"ha":825,"x_min":0,"x_max":0,"o":"m 769 243 b 686 56 769 168 742 106 b 463 -35 631 6 556 -25 l 463 -133 b 446 -150 463 -144 457 -150 l 410 -150 b 393 -133 399 -150 393 -144 l 393 -39 b 154 42 300 -39 220 -12 b 56 238 88 95 56 161 b 111 372 56 294 74 339 b 183 383 141 398 165 402 b 190 375 186 381 188 379 b 196 341 200 363 201 352 b 172 317 190 330 182 322 b 140 288 161 311 150 301 b 125 238 130 274 125 257 b 203 84 125 177 151 126 b 393 21 255 42 318 21 l 393 533 b 317 569 363 547 337 559 b 249 610 297 580 275 593 b 190 660 224 626 204 643 b 153 719 175 676 163 696 b 138 793 143 743 138 767 b 144 836 138 806 140 820 b 167 889 148 852 156 869 b 213 942 179 908 194 926 b 288 985 231 959 256 973 b 393 1010 319 998 354 1006 l 393 1083 b 410 1100 393 1094 399 1100 l 446 1100 b 463 1083 457 1100 463 1094 l 463 1010 b 594 981 512 1007 555 997 b 684 917 632 965 662 944 b 717 828 706 890 717 860 b 674 735 717 792 702 761 b 650 736 665 727 657 728 l 631 758 b 631 782 624 766 624 774 b 647 828 642 795 647 810 b 596 910 647 859 630 887 b 463 950 562 933 517 946 l 463 569 b 551 527 499 553 528 539 b 631 479 573 516 600 500 b 704 417 662 459 687 438 b 750 340 722 397 737 371 b 769 243 763 310 769 277 m 207 793 b 253 687 207 750 222 715 b 393 601 284 659 331 630 l 393 949 b 258 898 337 943 291 926 b 207 793 224 870 207 835 m 463 25 b 637 97 537 34 595 58 b 700 243 679 136 700 185 b 687 317 700 269 696 294 b 654 376 678 340 667 359 b 601 424 641 392 624 408 b 538 465 579 441 558 454 b 463 501 517 476 492 488 l 463 25 "},"%":{"ha":1006,"x_min":0,"x_max":0,"o":"m 272 3 b 250 -6 268 -7 260 -10 l 219 10 b 213 32 209 14 207 22 l 743 1013 b 765 1019 748 1022 755 1024 l 796 1006 b 803 983 806 1001 808 994 l 272 3 m 246 567 b 111 628 193 567 148 587 b 56 775 74 669 56 718 b 65 841 56 798 59 820 b 92 898 72 862 81 881 b 133 943 104 915 118 930 b 186 973 149 956 167 966 b 246 983 206 980 225 983 b 382 922 300 983 345 963 b 438 775 419 881 438 832 b 412 670 438 737 429 702 b 342 594 395 638 372 613 b 246 567 313 576 281 567 m 247 626 b 332 670 279 626 308 641 b 368 775 356 699 368 734 b 332 880 368 816 356 851 b 246 924 308 909 279 924 b 186 903 225 924 205 917 b 142 849 168 890 153 872 b 125 775 131 827 125 802 b 161 670 125 734 137 699 b 247 626 185 641 214 626 m 760 26 b 624 87 706 26 661 47 b 568 233 587 127 568 176 b 594 338 568 271 577 306 b 663 414 611 370 634 395 b 760 442 692 432 725 442 b 894 381 813 442 857 422 b 950 233 931 341 950 292 b 925 130 950 196 942 162 b 856 54 908 98 885 73 b 760 26 826 36 794 26 m 760 86 b 845 129 793 86 822 100 b 881 233 869 158 881 193 b 871 292 881 254 877 273 b 845 339 864 310 856 326 b 806 370 834 352 822 362 b 760 382 791 378 775 382 b 674 339 726 382 698 368 b 638 234 650 310 638 275 b 674 129 638 193 650 158 b 760 86 698 100 726 86 "},"&":{"ha":882,"x_min":0,"x_max":0,"o":"m 818 104 b 842 107 825 113 833 113 l 867 88 b 869 64 876 80 877 72 l 779 -39 b 756 -42 772 -47 764 -48 b 604 113 709 -3 659 49 b 477 1 568 66 526 29 b 332 -40 428 -26 380 -40 b 138 40 257 -40 192 -14 b 56 231 83 93 56 156 b 69 312 56 258 60 285 b 101 378 79 338 89 360 b 149 435 112 397 128 416 b 197 478 169 455 185 470 b 244 514 208 487 224 499 l 300 554 b 203 779 235 669 203 744 b 241 840 203 794 216 814 b 333 913 266 865 297 889 b 431 961 369 936 402 952 b 451 960 438 964 445 963 b 514 913 473 950 494 934 b 570 835 534 891 553 866 b 615 738 587 805 602 773 b 610 715 618 728 616 721 b 385 538 552 666 477 607 b 596 225 450 427 520 323 b 628 361 617 271 628 317 b 608 444 628 392 621 419 b 615 467 604 455 606 462 l 644 483 b 667 478 654 489 661 487 b 697 361 687 442 697 403 b 642 168 697 296 679 232 b 761 39 683 117 723 74 l 818 104 m 272 779 b 353 593 272 751 299 689 b 540 740 427 649 489 698 b 435 897 510 817 475 869 b 333 834 408 885 374 864 b 272 779 293 804 272 786 m 332 19 b 415 38 359 19 386 26 b 494 90 443 51 469 68 b 561 165 519 111 542 137 b 332 499 480 267 403 378 l 285 465 b 228 422 261 448 242 433 b 180 375 215 411 199 395 b 138 308 161 355 147 332 b 125 231 129 284 125 258 b 153 126 125 194 134 159 b 229 48 172 93 198 67 b 332 19 261 29 295 19 "},"'":{"ha":181,"x_min":0,"x_max":0,"o":"m 79 757 b 63 774 68 757 63 763 l 56 999 b 72 1015 56 1010 61 1015 l 108 1015 b 125 999 119 1015 125 1010 l 118 774 b 101 757 118 763 113 757 l 79 757 "},"(":{"ha":392,"x_min":0,"x_max":0,"o":"m 311 -279 b 306 -280 310 -279 308 -279 b 296 -280 303 -280 300 -280 b 288 -276 292 -279 289 -278 b 63 385 138 -97 63 124 b 278 1004 63 609 134 815 b 301 1007 284 1013 292 1013 l 329 989 b 332 965 338 982 339 975 b 132 385 199 789 132 596 b 339 -236 132 137 201 -70 b 336 -260 346 -245 345 -253 l 311 -279 "},")":{"ha":392,"x_min":0,"x_max":0,"o":"m 104 -276 b 82 -279 98 -285 90 -286 l 56 -260 b 53 -236 46 -253 45 -245 b 260 385 191 -70 260 137 b 60 965 260 596 193 789 b 64 989 52 975 54 982 l 90 1007 b 114 1004 100 1013 107 1013 b 329 385 257 815 329 609 b 104 -276 329 124 254 -97 "},"*":{"ha":399,"x_min":0,"x_max":0,"o":"m 347 821 b 351 799 356 815 358 808 l 333 775 b 310 771 327 767 319 765 l 231 822 l 231 735 b 214 718 231 724 225 718 l 178 718 b 161 735 167 718 161 724 l 161 817 l 94 767 b 72 769 86 760 79 761 l 51 792 b 54 815 44 801 45 809 l 142 882 l 51 942 b 47 964 41 947 40 955 l 65 988 b 88 992 72 996 79 997 l 161 943 l 161 1032 b 178 1049 161 1043 167 1049 l 214 1049 b 231 1032 225 1049 231 1043 l 231 949 l 294 996 b 318 994 303 1002 311 1002 l 338 971 b 335 949 345 963 344 955 l 251 885 l 347 821 "},"+":{"ha":696,"x_min":0,"x_max":0,"o":"m 624 454 b 640 438 635 454 640 449 l 640 411 b 624 394 640 400 635 394 l 378 394 l 378 174 b 361 157 378 163 372 157 l 325 157 b 308 174 314 157 308 163 l 308 394 l 72 394 b 56 411 61 394 56 400 l 56 438 b 72 454 56 449 61 454 l 308 454 l 308 679 b 325 696 308 690 314 696 l 361 696 b 378 679 372 696 378 690 l 378 454 l 624 454 "},",":{"ha":221,"x_min":0,"x_max":0,"o":"m 103 -149 b 79 -151 96 -158 88 -159 l 69 -144 b 67 -121 60 -138 59 -130 b 100 -18 89 -88 100 -54 b 68 58 100 6 89 31 b 71 82 62 68 63 75 l 96 101 b 119 99 105 108 113 107 b 165 -14 150 62 165 24 b 103 -149 165 -52 144 -97 "},"-":{"ha":519,"x_min":0,"x_max":0,"o":"m 357 431 b 335 428 350 425 343 424 l 181 490 l 119 440 b 96 442 111 434 103 434 l 75 464 b 76 488 67 472 67 480 l 157 554 b 179 557 163 560 171 561 l 333 494 l 401 549 b 425 547 410 555 418 555 l 446 525 b 444 501 453 517 453 509 l 357 431 "},".":{"ha":231,"x_min":0,"x_max":0,"o":"m 126 -18 b 103 -18 119 -29 111 -29 l 64 39 b 64 61 58 46 58 54 l 103 117 b 126 117 111 128 119 128 l 167 61 b 167 39 172 54 172 46 l 126 -18 "},"/":{"ha":436,"x_min":0,"x_max":0,"o":"m 83 0 b 63 -10 80 -10 73 -13 l 31 0 b 19 21 19 3 16 10 l 381 1006 b 401 1017 384 1016 391 1019 l 433 1007 b 444 985 444 1003 448 996 l 83 0 "},":":{"ha":231,"x_min":0,"x_max":0,"o":"m 129 438 b 107 438 122 426 114 426 l 67 493 b 67 517 61 501 61 509 l 107 572 b 129 572 114 583 122 583 l 169 517 b 169 493 176 509 176 501 l 129 438 m 129 -18 b 107 -18 122 -29 114 -29 l 67 39 b 67 61 61 46 61 54 l 107 117 b 129 117 114 128 122 128 l 169 61 b 169 39 176 54 176 46 l 129 -18 "},";":{"ha":231,"x_min":0,"x_max":0,"o":"m 126 438 b 103 438 119 426 111 426 l 64 493 b 64 517 58 501 58 509 l 103 572 b 126 572 111 583 119 583 l 167 517 b 167 493 172 509 172 501 l 126 438 m 103 -149 b 79 -151 96 -158 88 -159 l 69 -144 b 67 -121 60 -138 59 -130 b 100 -18 89 -88 100 -54 b 68 58 100 6 89 31 b 71 82 62 68 63 75 l 96 101 b 119 99 105 108 113 107 b 165 -14 150 62 165 24 b 103 -149 165 -52 144 -97 "},"<":{"ha":601,"x_min":0,"x_max":0,"o":"m 513 64 b 489 63 505 56 497 55 l 69 410 b 71 433 60 417 61 425 l 489 756 b 513 753 498 762 506 761 l 533 731 b 531 707 541 722 540 714 l 157 419 l 532 108 b 533 85 541 101 542 93 l 513 64 "},"=":{"ha":696,"x_min":0,"x_max":0,"o":"m 72 503 b 56 519 61 503 56 508 l 56 546 b 72 563 56 557 61 563 l 624 563 b 640 546 635 563 640 557 l 640 519 b 624 503 640 508 635 503 l 72 503 m 72 271 b 56 288 61 271 56 276 l 56 314 b 72 331 56 325 61 331 l 624 331 b 640 314 635 331 640 325 l 640 288 b 624 271 640 276 635 271 l 72 271 "},">":{"ha":601,"x_min":0,"x_max":0,"o":"m 113 61 b 89 63 104 55 96 55 l 68 85 b 69 108 60 93 60 101 l 444 419 l 71 707 b 68 731 62 713 61 721 l 88 753 b 111 754 95 761 103 762 l 531 432 b 531 408 541 425 541 417 l 113 61 "},"?":{"ha":660,"x_min":0,"x_max":0,"o":"m 274 182 b 269 183 273 182 271 182 b 261 189 266 184 264 186 b 257 199 258 192 257 195 b 271 297 258 234 263 267 b 299 373 279 328 288 353 b 342 435 309 393 323 413 b 387 481 360 456 375 472 b 435 522 398 491 415 504 b 482 561 456 539 472 552 b 515 598 492 570 503 583 b 541 647 527 613 536 629 b 549 706 546 664 549 683 b 483 865 549 769 527 822 b 322 931 439 909 385 931 b 239 917 293 931 265 926 b 172 880 213 907 191 895 b 127 824 153 865 138 846 b 111 754 116 803 111 779 b 190 640 111 678 138 640 b 213 642 198 640 205 641 b 233 633 223 644 230 642 l 246 607 b 236 586 250 596 247 589 b 190 581 221 582 206 581 b 111 601 160 581 133 588 b 60 661 89 615 72 635 b 42 754 48 687 42 718 b 123 922 42 821 69 877 b 322 990 177 968 244 990 b 531 907 404 990 473 963 b 618 706 589 851 618 784 b 607 629 618 678 614 652 b 572 565 600 606 588 584 b 530 519 555 545 541 529 b 479 475 518 508 501 494 b 433 438 459 459 444 447 b 394 397 423 428 410 415 b 359 346 379 380 367 363 b 338 283 351 329 344 308 b 326 199 331 257 327 229 b 310 182 325 188 320 182 l 274 182 m 304 -18 b 282 -18 297 -29 289 -29 l 242 39 b 242 61 236 46 236 54 l 282 117 b 304 117 289 128 297 128 l 346 61 b 346 39 351 54 351 46 l 304 -18 "},"@":{"ha":1053,"x_min":0,"x_max":0,"o":"m 533 25 b 706 45 606 25 664 32 b 829 104 748 59 789 78 b 853 100 838 111 846 109 l 871 78 b 867 54 877 69 876 61 b 730 -10 825 27 779 6 b 533 -33 680 -25 615 -33 b 192 113 396 -33 282 15 b 56 478 101 210 56 331 b 94 673 56 545 68 610 b 196 834 119 735 153 789 b 349 942 238 879 289 915 b 533 982 408 969 469 982 b 770 922 620 982 699 962 b 937 757 841 882 897 827 b 997 522 977 687 997 608 b 918 278 997 435 971 354 b 729 142 865 203 802 157 b 707 147 721 140 713 142 l 640 203 b 631 224 634 208 631 215 l 631 240 l 475 143 b 451 143 468 138 460 138 b 297 283 378 187 327 233 b 251 475 266 332 251 396 b 329 694 251 551 277 624 b 525 844 381 764 446 814 b 547 842 533 847 541 846 l 689 750 b 700 731 696 745 700 739 l 700 236 l 736 206 b 871 328 788 225 833 266 b 928 522 909 390 928 455 b 815 808 928 637 890 732 b 533 922 740 884 646 922 b 330 863 460 922 392 902 b 181 700 267 823 218 769 b 125 478 144 631 125 557 b 242 154 125 348 164 240 b 533 25 319 68 417 25 m 631 314 l 631 714 l 529 779 b 380 651 469 751 419 709 b 321 475 341 594 321 535 b 352 319 321 410 331 358 b 463 210 373 279 410 243 "},"A":{"ha":1050,"x_min":0,"x_max":0,"o":"m 1028 83 b 1051 83 1035 91 1043 91 l 1072 61 b 1072 38 1081 53 1081 45 l 989 -35 b 965 -35 981 -41 974 -41 b 911 25 945 -17 927 3 b 872 101 895 47 882 73 b 847 180 862 130 853 156 b 830 272 840 203 834 234 b 821 360 826 309 823 339 b 815 454 819 382 817 413 l 814 471 l 414 347 b 373 231 397 298 384 259 b 338 142 362 203 351 173 b 305 72 326 111 315 88 b 272 25 295 56 284 41 b 233 -8 259 9 246 -2 b 188 -24 219 -15 204 -20 b 132 -31 172 -28 153 -31 b 27 11 90 -31 55 -17 b -15 113 -1 39 -15 73 b 31 238 -15 153 0 195 b 54 240 37 246 45 247 l 81 222 b 85 199 90 217 91 209 b 54 113 64 170 54 141 b 76 53 54 88 62 69 b 132 29 91 37 110 29 b 173 32 150 29 163 30 b 206 51 183 34 194 40 b 238 88 219 61 229 74 b 271 158 246 101 257 125 b 312 263 285 191 298 226 b 365 418 325 301 343 352 l 556 951 b 485 957 533 955 510 957 b 385 944 450 957 416 953 b 306 910 354 936 328 925 b 254 860 284 896 267 879 b 235 799 241 840 235 820 b 258 719 235 773 243 746 b 253 697 264 710 262 703 l 225 679 b 201 685 215 674 207 675 b 165 799 177 724 165 762 b 258 953 165 860 196 911 b 485 1017 320 996 396 1017 b 829 807 659 1017 774 947 b 883 478 856 740 874 631 b 885 458 883 473 884 467 b 893 333 888 404 890 362 b 907 228 896 305 900 269 b 935 121 913 186 923 150 b 981 43 947 91 962 65 l 1028 83 m 810 532 b 799 641 807 575 803 611 b 780 737 795 671 789 703 b 748 823 771 771 760 799 b 697 888 735 847 719 868 b 622 935 676 908 651 924 l 438 418 "},"B":{"ha":1228,"x_min":0,"x_max":0,"o":"m 986 651 b 1124 515 1044 613 1090 567 b 1174 353 1157 462 1174 408 b 1114 163 1174 287 1154 224 b 958 15 1074 101 1022 52 b 758 -42 893 -23 827 -42 b 632 -23 716 -42 674 -35 b 517 31 590 -10 552 7 b 428 110 481 54 452 80 b 304 85 387 93 346 85 b 193 129 253 85 216 100 b 194 181 177 150 178 168 b 220 190 203 190 211 193 b 241 176 229 188 236 183 b 266 155 246 169 254 162 b 304 144 278 148 290 144 b 469 206 361 144 416 165 b 601 367 523 246 567 300 b 651 572 634 433 651 502 b 613 764 651 643 639 706 b 509 899 588 821 553 866 b 364 949 465 932 417 949 b 232 903 317 949 273 934 b 134 782 191 873 159 833 b 97 619 109 731 97 677 b 145 435 97 548 113 487 b 257 358 177 384 214 358 b 357 431 305 358 338 382 b 378 442 361 441 368 444 l 411 433 b 424 413 423 430 427 423 b 360 328 410 375 388 347 b 257 299 331 308 297 299 b 94 392 193 299 139 330 b 28 619 50 454 28 530 b 127 893 28 725 61 816 b 364 1008 193 970 272 1008 b 507 974 415 1008 463 997 b 622 876 551 950 590 918 l 867 1013 b 889 1014 875 1016 882 1017 b 1010 912 920 1001 961 967 b 1129 746 1060 857 1100 801 b 1122 724 1134 736 1131 728 l 986 651 m 657 825 b 721 582 698 753 719 672 l 1047 753 b 963 868 1023 793 995 831 b 881 949 931 905 904 932 m 758 18 b 884 47 800 18 842 28 b 995 122 926 66 963 91 b 1074 229 1027 153 1053 188 b 1104 353 1094 270 1104 311 b 1084 449 1104 386 1097 418 b 1031 528 1071 479 1053 506 b 974 583 1009 551 990 569 b 922 618 957 596 940 608 l 717 510 b 639 298 706 435 681 364 b 488 142 597 232 547 180 b 606 51 518 104 558 74 b 758 18 655 29 706 18 "},"C":{"ha":1003,"x_min":0,"x_max":0,"o":"m 878 433 b 915 428 893 439 905 437 b 937 390 925 420 933 407 b 945 343 941 372 944 357 b 947 304 947 329 947 316 b 828 60 947 210 907 128 b 540 -42 748 -8 652 -42 b 203 109 402 -42 290 9 b 74 500 117 209 74 340 b 102 696 74 568 83 633 b 178 860 121 759 146 813 b 290 971 209 906 247 943 b 424 1013 333 999 377 1013 b 557 963 471 1013 515 996 b 625 1019 578 983 601 1002 b 647 1021 632 1026 640 1026 l 706 981 l 775 932 l 829 982 b 853 981 838 988 845 988 l 875 960 b 875 936 883 952 883 944 l 792 861 b 768 860 784 854 776 853 l 665 932 l 639 950 b 488 782 586 906 536 850 b 565 700 519 750 545 722 b 635 619 586 678 609 651 b 696 532 661 587 681 558 b 734 448 711 506 723 478 b 750 361 745 418 750 389 b 722 251 750 322 741 286 b 644 169 703 217 677 190 b 539 139 612 149 577 139 b 394 204 482 139 434 161 b 335 361 355 248 335 300 b 378 518 335 413 349 465 b 400 525 383 527 391 530 l 431 510 b 438 488 441 505 443 498 b 404 361 415 446 404 404 b 422 279 404 331 410 304 b 472 220 434 254 451 234 b 539 199 492 206 515 199 b 638 247 577 199 610 215 b 681 361 666 280 681 318 b 664 442 681 386 675 413 b 626 519 653 470 640 496 b 564 603 613 543 592 571 b 494 682 536 636 513 663 b 414 764 475 701 448 729 b 411 788 406 771 406 779 b 513 917 444 836 477 879 b 424 953 484 941 454 953 b 288 890 376 953 331 932 b 183 722 244 847 209 791 b 143 500 156 652 143 578 b 253 151 143 356 180 240 b 540 18 326 63 422 18 b 779 103 634 18 713 46 b 878 304 845 159 878 226 b 864 353 878 316 873 332 b 850 403 855 373 850 390 b 878 433 850 417 859 427 "},"D":{"ha":1088,"x_min":0,"x_max":0,"o":"m 586 -47 b 506 -28 565 -47 538 -41 b 426 10 474 -15 448 -2 b 339 64 405 23 376 41 b 233 126 288 95 253 116 l 133 35 b 110 36 125 28 117 29 l 88 57 b 88 81 79 64 79 72 l 207 189 b 229 194 214 195 222 197 b 375 114 258 183 306 156 b 459 63 412 92 440 75 b 526 29 478 52 500 40 b 585 13 551 18 571 13 b 757 85 640 13 698 37 b 905 269 816 134 866 195 b 964 485 944 344 964 415 b 901 717 964 567 943 645 b 732 892 859 790 802 848 b 507 957 662 935 587 957 b 245 874 408 957 321 929 b 132 686 170 819 132 756 b 140 654 132 675 135 664 b 156 631 146 644 151 636 b 161 613 160 626 162 620 b 143 588 160 605 154 597 b 121 578 136 582 128 579 b 99 585 113 578 106 580 b 81 606 92 591 86 597 b 67 640 75 615 71 626 b 63 686 64 654 63 669 b 124 849 63 744 83 798 b 289 971 166 900 220 940 b 507 1017 357 1001 430 1017 b 767 944 600 1017 686 992 b 961 747 848 895 913 830 b 1033 485 1009 665 1033 577 b 965 239 1033 404 1011 322 b 792 33 920 156 862 87 b 586 -47 722 -20 654 -47 m 567 151 b 451 187 527 151 488 163 b 360 281 414 210 384 242 b 319 406 336 321 322 362 b 336 422 319 417 324 422 l 372 422 b 389 406 382 422 388 417 b 450 271 394 356 414 311 b 567 211 486 231 525 211 b 641 244 595 211 620 222 b 672 322 662 266 672 292 b 666 380 672 344 670 363 b 644 430 662 397 654 414 b 615 469 633 446 623 459 b 572 515 606 480 592 495 l 372 717 b 371 742 365 725 364 733 l 507 894 b 531 897 514 903 522 904 l 556 878 b 558 854 565 871 566 863 l 450 732 l 622 557 b 668 507 643 536 658 519 b 703 458 678 495 690 479 b 733 394 717 438 727 417 b 742 322 739 372 742 348 b 690 201 742 275 725 235 b 567 151 656 168 615 151 "},"E":{"ha":978,"x_min":0,"x_max":0,"o":"m 838 429 b 878 435 853 437 867 438 b 906 397 890 431 899 419 b 917 308 913 376 917 346 b 861 133 917 246 898 188 b 713 3 824 79 775 35 b 513 -46 650 -30 584 -46 b 180 105 378 -46 267 4 b 49 486 92 205 49 332 b 100 745 49 575 66 661 b 236 949 134 829 180 897 b 411 1026 293 1000 351 1026 b 538 972 455 1026 497 1008 b 607 1021 560 990 583 1006 b 629 1019 614 1025 622 1025 l 736 942 l 788 983 b 811 982 796 991 804 990 l 832 960 b 831 938 840 952 840 945 l 751 871 b 728 869 743 864 735 864 l 615 951 b 467 799 568 919 519 868 l 519 735 l 578 665 l 686 750 b 710 749 694 756 702 756 l 786 674 l 831 708 b 854 707 839 716 847 715 l 875 685 b 874 661 883 676 883 669 l 793 597 b 769 599 785 591 777 591 l 693 675 l 617 615 b 719 372 685 524 719 443 b 659 210 719 309 699 255 b 515 143 619 166 571 143 b 372 206 458 143 410 164 b 315 361 334 247 315 299 b 369 538 315 423 333 482 b 393 543 376 547 384 549 l 421 526 b 426 503 431 521 433 513 b 385 361 399 459 385 412 b 422 248 385 316 397 278 b 515 203 447 218 478 203 b 610 253 551 203 583 220 b 650 372 637 287 650 327 b 640 435 650 393 647 414 b 618 494 634 457 626 477 b 577 558 610 511 596 532 b 528 622 558 584 542 605 b 467 696 515 638 494 663 l 392 786 b 392 808 386 794 386 801 b 490 928 428 858 461 898 b 411 967 463 954 436 967 b 274 897 365 967 319 943 b 162 714 228 850 191 789 b 118 486 133 639 118 563 b 229 147 118 349 155 236 b 513 14 303 58 398 14 b 747 102 602 14 681 43 b 847 308 814 161 847 230 b 841 351 847 322 845 337 b 828 386 837 366 833 378 b 823 410 824 394 822 403 b 838 429 823 418 828 425 "},"F":{"ha":836,"x_min":0,"x_max":0,"o":"m 111 736 b 122 682 111 717 115 699 b 114 660 126 672 123 664 l 83 644 b 61 651 73 640 66 642 b 43 736 49 678 43 706 b 141 933 43 813 76 878 b 379 1014 206 987 286 1014 b 576 989 445 1014 511 1006 b 743 933 642 972 698 954 l 807 992 b 831 992 814 999 822 999 l 853 971 b 853 947 861 963 861 956 l 767 868 b 744 865 760 862 753 861 b 588 924 709 885 657 904 b 379 954 519 944 450 954 b 190 890 305 954 242 933 b 111 736 137 848 111 796 m 747 657 b 771 661 754 665 762 667 l 799 643 b 803 619 808 637 809 629 l 740 539 b 721 529 736 532 729 529 l 613 529 b 725 158 688 403 725 280 b 631 -134 725 44 694 -54 b 400 -254 568 -214 491 -254 b 172 -152 310 -254 234 -220 b 79 100 110 -84 79 0 b 131 289 79 169 96 231 b 249 375 165 346 204 375 b 293 339 278 375 293 363 b 278 311 293 326 288 317 b 242 295 269 306 256 300 b 208 275 227 290 216 283 b 149 100 169 232 149 174 b 222 -110 149 17 173 -53 b 400 -194 270 -166 330 -194 b 581 -92 470 -194 531 -160 b 656 158 631 -23 656 60 b 626 345 656 224 646 286 b 535 529 606 404 575 465 l 453 529 l 417 475 b 394 469 411 467 404 465 l 365 486 b 360 510 355 492 353 500 l 406 578 b 426 589 410 585 417 589 l 496 589 b 367 760 465 632 422 689 b 367 783 361 768 361 776 l 457 897 b 481 900 463 906 471 906 l 507 882 b 511 858 516 875 518 868 l 442 772 b 575 589 498 698 543 637 l 696 589 "},"G":{"ha":1083,"x_min":0,"x_max":0,"o":"m 990 553 b 994 552 991 553 993 553 b 1000 550 996 552 998 551 b 1005 546 1002 549 1003 548 b 1008 542 1006 544 1007 543 b 1038 383 1028 491 1038 438 b 907 76 1038 257 994 155 b 567 -42 820 -2 706 -42 b 308 29 472 -42 386 -18 b 125 224 231 76 169 141 b 58 500 81 307 58 399 b 104 760 58 594 74 681 b 231 948 135 840 177 902 b 408 1017 284 994 344 1017 b 571 963 461 1017 515 999 b 682 1025 615 999 652 1019 b 703 1024 689 1027 696 1026 b 804 960 729 1012 763 990 b 917 868 846 929 883 899 l 967 914 b 990 914 975 921 983 921 l 1014 892 b 1013 869 1022 884 1022 877 l 928 790 b 904 792 919 783 912 783 b 793 889 875 821 838 854 b 685 964 748 924 712 949 b 598 903 663 955 634 934 b 494 796 562 871 528 836 b 610 637 543 751 581 698 b 653 454 638 575 653 514 b 597 267 653 377 634 315 b 451 196 560 220 512 196 b 305 260 391 196 342 217 b 249 429 267 303 249 360 b 283 606 249 501 260 560 b 307 611 289 615 297 617 l 336 593 b 342 571 344 588 346 581 b 318 429 326 536 318 488 b 354 303 318 376 330 334 b 451 256 378 271 411 256 b 505 269 471 256 489 260 b 547 309 521 279 535 292 b 574 372 558 326 567 347 b 583 454 580 397 583 425 b 538 632 583 513 568 572 b 418 778 507 692 467 741 b 414 801 409 784 407 792 b 521 921 447 844 483 884 b 408 957 482 945 444 957 b 269 896 358 957 312 937 b 166 729 226 855 191 800 b 128 500 141 659 128 582 b 254 156 128 364 170 249 b 567 17 338 63 443 17 b 858 117 688 17 785 50 b 968 383 931 184 968 273 b 951 494 968 421 963 458 l 747 494 b 731 511 736 494 731 500 l 731 538 b 747 554 731 549 736 554 l 989 554 "},"H":{"ha":1032,"x_min":0,"x_max":0,"o":"m 640 739 b 873 553 733 708 810 646 b 967 250 935 459 967 358 b 826 -137 967 93 920 -37 b 468 -289 733 -238 613 -289 b 261 -232 388 -289 319 -270 b 221 -156 217 -204 203 -179 b 235 -144 225 -152 229 -148 b 258 -135 244 -139 252 -136 b 274 -138 265 -134 270 -135 b 288 -151 278 -141 283 -146 b 302 -169 292 -157 297 -163 b 324 -190 307 -176 314 -183 b 356 -209 333 -197 344 -203 b 403 -224 368 -215 383 -220 b 468 -229 422 -227 444 -229 b 777 -95 594 -229 697 -184 b 897 250 857 -6 897 109 b 874 403 897 304 889 355 b 812 526 858 451 837 492 b 733 613 786 561 760 590 b 651 669 706 637 679 656 l 390 478 b 468 213 442 380 468 291 b 413 26 468 136 450 73 b 268 -46 377 -22 328 -46 b 120 19 207 -46 158 -24 b 64 189 83 63 64 119 b 100 364 64 261 76 319 b 122 369 105 373 112 375 l 151 353 b 157 331 160 347 162 340 b 133 189 141 294 133 247 b 170 62 133 136 146 94 b 268 14 195 30 227 14 b 363 69 307 14 338 32 b 399 213 387 105 399 153 b 388 300 399 240 395 269 b 363 381 380 331 372 358 b 320 467 353 405 339 433 b 274 545 301 500 286 526 b 221 628 262 564 244 592 b 133 765 178 692 149 738 b 136 789 129 774 130 781 b 478 1018 228 891 342 967 b 500 1014 486 1022 494 1020 l 624 907 b 733 986 649 922 685 948 l 742 993 b 764 990 750 1000 757 999 l 785 968 b 786 947 792 960 793 953 l 776 939 b 625 838 716 892 666 858 b 601 840 617 834 609 835 l 475 951 b 208 771 373 909 284 849 b 279 660 223 746 247 709 b 360 533 315 605 342 563 l 629 732 "},"I":{"ha":939,"x_min":0,"x_max":0,"o":"m 146 701 b 110 697 134 695 122 694 b 80 734 99 701 89 713 b 67 810 71 755 67 780 b 145 958 67 867 93 917 b 329 1021 197 1000 259 1021 b 426 1006 361 1021 393 1016 b 503 977 459 997 484 987 b 579 933 521 967 547 953 b 674 881 621 908 652 891 l 767 958 b 790 957 775 966 783 965 l 811 935 b 810 913 819 927 819 920 l 697 818 b 675 814 691 812 683 810 b 544 882 641 828 597 850 l 501 907 b 461 928 491 913 478 919 b 418 947 444 936 430 942 b 376 957 406 951 392 954 b 329 961 361 960 345 961 b 194 916 277 961 232 946 b 136 810 155 886 136 850 b 144 772 136 797 139 784 b 160 745 150 760 155 751 b 165 725 164 739 166 732 b 146 701 163 718 157 710 m 543 -40 b 456 -27 513 -40 484 -36 b 385 3 428 -18 404 -8 b 322 50 365 14 344 30 b 272 99 299 70 282 87 b 228 149 261 111 246 127 b 172 213 200 183 181 204 b 142 226 162 222 152 226 b 79 190 127 226 106 214 b 56 190 71 182 63 182 l 42 206 b 42 229 34 214 34 222 b 147 286 83 267 119 286 b 206 265 168 286 187 279 b 281 188 224 251 249 225 b 334 126 303 161 321 140 b 390 76 347 113 366 96 b 463 33 413 56 438 41 b 543 19 488 24 514 19 b 671 58 587 19 629 32 b 771 160 713 84 746 118 b 808 290 796 203 808 246 b 788 417 808 332 802 374 b 729 541 775 459 755 501 b 633 654 703 581 671 619 b 633 678 626 663 626 670 l 797 836 b 821 836 805 844 813 844 l 843 815 b 844 792 852 808 853 800 l 714 665 b 878 290 823 548 878 423 b 831 130 878 235 862 181 b 706 6 799 78 757 37 b 543 -40 654 -25 600 -40 "},"J":{"ha":954,"x_min":0,"x_max":0,"o":"m 146 701 b 110 697 134 695 122 694 b 80 734 99 701 89 713 b 67 810 71 755 67 780 b 145 958 67 867 93 917 b 329 1021 197 1000 259 1021 b 426 1006 361 1021 393 1016 b 503 977 459 997 484 987 b 579 933 521 967 547 953 b 674 881 621 908 652 891 l 767 958 b 790 957 775 966 783 965 l 811 935 b 810 913 819 927 819 920 l 697 818 b 675 814 691 812 683 810 b 544 882 641 828 597 850 l 501 907 b 461 928 491 913 478 919 b 418 947 444 936 430 942 b 376 957 406 951 392 954 b 329 961 361 960 345 961 b 194 916 277 961 232 946 b 136 810 155 886 136 850 b 144 772 136 797 139 784 b 160 745 150 760 155 751 b 165 725 164 739 166 732 b 146 701 163 718 157 710 m 510 -360 b 417 -349 476 -360 445 -356 b 343 -322 388 -341 363 -332 b 285 -279 323 -312 303 -298 b 240 -230 266 -261 251 -244 b 206 -174 229 -216 218 -197 b 180 -119 194 -150 185 -132 b 160 -67 175 -106 168 -89 b 94 24 137 -6 115 24 b 31 6 74 24 53 18 b 8 13 20 1 13 3 l 0 28 b 7 50 -5 37 -2 44 b 115 83 49 72 85 83 b 173 56 139 83 159 74 b 224 -46 187 38 204 4 b 244 -96 232 -67 239 -84 b 267 -145 249 -108 256 -124 b 296 -194 277 -166 287 -182 b 332 -234 305 -205 317 -219 b 378 -269 347 -249 362 -261 b 437 -291 395 -278 414 -285 b 510 -300 459 -297 484 -300 b 739 -194 599 -300 675 -265 b 835 60 803 -124 835 -39 b 778 340 835 147 816 240 b 625 615 741 440 690 532 b 628 639 619 624 619 631 l 794 794 b 818 794 802 801 810 801 l 840 772 b 840 750 849 765 849 757 l 703 621 b 850 342 765 535 814 442 b 904 60 886 242 904 148 b 788 -237 904 -56 866 -155 b 510 -360 711 -319 618 -360 "},"K":{"ha":921,"x_min":0,"x_max":0,"o":"m 846 108 b 869 108 853 116 861 116 l 893 89 b 894 65 901 81 902 74 l 797 -33 b 774 -35 790 -42 782 -42 b 715 47 752 -15 733 12 b 675 138 697 82 683 113 b 642 246 667 164 656 200 b 563 446 610 353 584 420 l 418 360 b 394 364 409 354 401 356 l 378 388 b 383 411 371 397 373 405 l 736 624 b 679 714 723 652 704 682 b 608 786 654 745 631 769 l 222 583 b 272 461 230 556 246 515 b 312 377 290 426 303 398 b 339 289 321 356 330 327 b 353 176 348 251 353 213 b 305 17 353 113 337 59 b 183 -46 273 -25 232 -46 b 78 -4 139 -46 104 -32 b 39 110 52 24 39 62 b 47 183 39 132 42 156 b 68 196 50 194 57 198 l 103 188 b 115 167 113 185 117 178 b 108 110 111 146 108 127 b 183 14 108 46 133 14 b 254 60 211 14 235 29 b 283 176 274 91 283 130 b 272 276 283 210 279 243 b 247 355 264 310 256 336 b 210 435 239 374 226 400 b 184 492 199 459 190 478 b 162 547 178 506 171 524 b 143 615 153 570 147 593 b 138 685 139 638 138 661 b 253 922 138 777 176 856 b 528 1021 330 988 421 1021 b 732 968 595 1021 663 1003 b 906 826 800 933 858 886 b 901 803 913 817 912 809 l 875 786 b 851 789 866 780 858 781 b 701 915 809 843 759 885 b 528 961 643 946 585 961 b 404 939 485 961 444 954 b 301 880 364 924 330 904 b 233 792 273 855 250 826 b 207 685 216 757 207 722 b 210 647 207 672 208 659 l 599 850 b 621 851 607 854 614 854 b 676 811 638 843 656 830 b 734 750 697 793 716 772 b 783 679 752 728 769 704 b 814 614 798 654 808 632 b 804 592 817 605 813 597 l 618 481 b 708 263 645 447 675 375 b 789 50 739 157 766 86 "},"L":{"ha":818,"x_min":0,"x_max":0,"o":"m 694 143 b 718 140 703 150 711 149 l 738 118 b 735 94 745 109 744 101 l 540 -51 b 518 -53 534 -56 526 -56 l 229 94 b 106 43 191 60 150 43 b 69 47 92 43 80 44 b 47 58 59 50 52 54 b 36 74 41 63 38 68 b 36 90 34 79 34 85 b 44 106 38 96 41 101 b 58 115 49 111 54 114 b 72 113 63 116 67 116 b 88 106 76 111 81 109 b 106 103 94 104 100 103 b 208 166 143 103 177 124 b 254 306 239 208 254 255 b 244 394 254 337 251 367 b 211 475 237 422 226 449 b 172 537 196 501 183 522 b 122 599 161 552 144 573 b 86 644 106 618 94 633 b 57 686 78 654 68 669 b 33 737 46 704 38 721 b 25 785 28 753 25 769 b 135 959 25 857 62 915 b 425 1025 209 1003 306 1025 b 701 960 540 1025 632 1003 b 806 786 771 917 806 859 b 785 706 806 761 799 734 b 744 639 771 678 757 656 b 688 571 731 622 713 600 b 608 467 649 526 622 492 b 586 396 593 442 586 418 b 599 356 586 381 591 368 b 629 339 608 345 618 339 b 668 357 641 339 654 345 b 693 356 677 363 686 363 l 715 335 b 714 311 724 326 723 319 b 629 279 686 290 658 279 b 550 314 599 279 572 291 b 517 396 528 337 517 364 b 537 474 517 420 523 446 b 577 542 550 503 564 525 b 635 610 591 558 610 581 b 715 714 674 654 700 689 b 736 786 729 739 736 763 b 722 847 736 808 731 829 b 682 897 713 866 700 882 b 618 935 664 912 643 925 b 531 958 593 945 564 953 b 425 965 498 963 463 965 b 185 916 325 965 245 949 b 94 785 125 883 94 839 b 111 725 94 765 100 745 b 176 636 122 705 144 675 b 228 571 199 609 216 588 b 272 501 240 554 255 531 b 311 408 290 472 303 441 b 324 306 319 376 324 342 b 272 142 324 246 306 192 l 522 14 "},"M":{"ha":1456,"x_min":0,"x_max":0,"o":"m 1413 89 b 1436 90 1420 97 1428 98 l 1460 71 b 1463 47 1469 63 1470 56 l 1388 -33 b 1364 -35 1380 -42 1372 -42 l 1257 64 b 1247 83 1250 69 1247 76 l 1247 711 b 1254 731 1247 719 1250 725 l 1329 836 b 1153 949 1272 884 1213 922 l 1008 846 b 1065 542 1046 769 1065 668 b 938 104 1065 384 1023 238 l 1026 40 l 1078 89 b 1101 89 1086 96 1094 96 l 1125 68 b 1125 44 1133 61 1133 53 l 1044 -32 b 1021 -33 1037 -39 1029 -40 l 901 53 b 846 -17 885 30 866 6 b 822 -19 839 -25 831 -26 l 797 0 b 794 24 788 6 787 14 b 996 542 929 178 996 351 b 826 950 996 753 939 889 l 672 849 b 754 546 727 764 754 663 b 688 292 754 461 732 376 b 522 96 643 209 588 143 l 593 39 l 651 89 b 675 89 659 96 667 96 l 696 67 b 696 43 704 58 704 50 l 606 -35 b 582 -35 597 -41 589 -41 l 464 63 b 360 38 429 46 394 38 b 235 85 298 38 256 53 b 239 132 222 104 223 120 b 265 142 247 141 256 144 b 285 128 273 139 280 134 b 312 108 289 121 298 115 b 360 97 325 101 341 97 b 460 131 389 97 423 108 b 566 221 497 153 532 183 b 651 365 600 259 628 307 b 685 546 673 422 685 483 b 601 836 685 663 657 759 b 392 951 545 913 475 951 b 192 847 314 951 247 916 b 110 594 137 777 110 693 b 158 412 110 524 126 463 b 269 335 190 360 227 335 b 351 385 306 335 334 351 b 372 394 356 394 363 397 l 406 385 b 417 363 418 381 421 374 b 357 299 404 337 384 316 b 269 275 330 283 301 275 b 107 368 206 275 151 306 b 40 594 63 430 40 506 b 143 890 40 710 75 809 b 392 1011 212 971 294 1011 b 635 899 487 1011 568 974 l 808 1014 b 831 1017 816 1019 823 1020 b 976 900 892 990 940 951 l 1133 1013 b 1156 1015 1140 1017 1147 1018 b 1406 856 1244 979 1328 926 b 1408 832 1413 848 1414 840 l 1317 706 l 1317 94 l 1371 46 l 1413 89 "},"N":{"ha":1135,"x_min":0,"x_max":0,"o":"m 1090 89 b 1114 90 1098 97 1106 98 l 1139 71 b 1140 47 1147 63 1148 56 l 1065 -33 b 1042 -35 1058 -42 1050 -42 l 935 64 b 925 83 928 69 925 76 l 925 711 b 932 731 925 719 927 725 l 1008 836 b 832 949 950 884 891 922 l 678 840 b 754 546 729 758 754 660 b 688 292 754 461 732 376 b 522 96 643 209 588 143 l 592 39 l 650 89 b 674 89 657 96 665 96 l 694 67 b 694 43 703 58 703 50 l 604 -35 b 581 -35 596 -41 588 -41 l 464 61 b 360 38 429 45 394 38 b 235 85 298 38 256 53 b 239 132 222 104 223 120 b 265 142 247 141 256 144 b 285 128 273 139 280 134 b 312 108 289 121 298 115 b 360 97 325 101 341 97 b 460 131 389 97 423 108 b 566 221 497 153 532 183 b 651 365 600 259 628 307 b 685 546 673 422 685 483 b 601 836 685 663 657 759 b 392 951 545 913 475 951 b 192 847 314 951 247 916 b 110 594 137 777 110 693 b 158 412 110 524 126 463 b 269 335 190 360 227 335 b 351 385 306 335 334 351 b 372 394 356 394 363 397 l 406 385 b 417 363 418 381 421 374 b 357 299 404 337 384 316 b 269 275 330 283 301 275 b 107 368 206 275 151 306 b 40 594 63 430 40 506 b 143 890 40 710 75 809 b 392 1011 212 971 294 1011 b 640 892 490 1011 573 971 l 811 1013 b 833 1015 819 1017 826 1018 b 1083 856 922 979 1006 926 b 1086 832 1092 848 1093 840 l 994 706 l 994 94 l 1050 46 l 1090 89 "},"O":{"ha":1040,"x_min":0,"x_max":0,"o":"m 582 -43 b 444 -22 537 -43 491 -36 b 335 17 397 -8 361 5 b 238 68 310 29 277 46 b 172 103 207 86 185 97 l 103 50 b 79 53 94 44 86 44 l 58 75 b 61 99 51 83 52 91 l 150 165 b 174 169 157 171 165 172 b 272 121 196 161 229 145 b 365 70 310 99 341 82 b 462 35 388 59 421 47 b 582 17 503 23 543 17 b 741 72 637 17 690 35 b 866 219 792 109 834 158 b 914 408 898 279 914 343 b 798 739 914 524 875 634 b 510 958 721 844 625 917 b 139 725 375 895 251 818 b 243 397 208 610 243 501 b 201 268 243 345 229 302 b 94 217 172 234 137 217 b 31 228 66 217 45 221 b 12 254 18 236 11 245 b 26 281 12 263 17 272 b 44 290 33 286 39 289 b 59 288 50 290 55 289 b 75 281 63 286 69 283 b 94 276 81 278 88 276 b 151 311 117 276 135 288 b 174 397 166 334 174 363 b 63 722 174 499 137 607 b 65 746 56 731 57 738 b 493 1019 191 854 334 945 b 515 1021 500 1022 508 1023 b 849 779 649 976 760 896 b 983 408 939 663 983 539 b 926 188 983 331 964 258 b 776 20 888 118 838 62 b 582 -43 714 -22 650 -43 "},"P":{"ha":1153,"x_min":0,"x_max":0,"o":"m 864 678 b 990 522 916 621 958 569 b 1063 387 1023 474 1047 429 b 1086 265 1078 345 1086 304 b 993 48 1086 180 1055 108 b 767 -42 931 -12 856 -42 b 549 15 698 -42 625 -23 l 549 -96 b 503 -225 549 -147 534 -190 b 392 -278 473 -260 436 -278 b 313 -253 364 -278 338 -269 b 311 -229 302 -246 302 -238 l 332 -208 b 356 -207 339 -201 347 -200 b 392 -218 368 -214 380 -218 b 453 -182 416 -218 436 -206 b 479 -96 471 -158 479 -129 l 479 53 b 421 90 462 64 442 76 l 364 43 b 340 46 356 37 348 38 l 319 68 b 321 90 311 76 312 84 l 406 160 b 429 161 413 165 421 166 l 479 126 l 479 775 b 465 838 479 796 475 817 b 428 890 456 858 444 875 b 374 926 413 905 395 917 b 306 939 352 934 330 939 b 169 894 248 939 203 924 b 118 775 135 865 118 825 b 126 706 118 750 121 727 b 153 647 132 685 141 666 b 186 601 166 628 177 612 b 229 553 195 589 210 573 b 277 499 250 531 266 513 b 310 444 288 486 299 467 b 328 375 322 420 328 397 b 300 290 328 342 319 313 b 206 219 281 266 250 243 b 183 225 196 214 189 216 l 168 250 b 175 274 163 260 165 268 b 240 320 206 289 228 305 b 258 375 252 335 258 354 b 242 434 258 395 253 415 b 178 513 231 453 209 479 b 142 552 162 529 150 542 b 108 595 133 562 122 576 b 77 647 94 614 84 631 b 58 705 70 663 64 682 b 49 775 52 728 49 751 b 120 936 49 841 72 894 b 306 999 168 978 230 999 b 389 985 334 999 362 994 b 461 947 416 975 440 963 b 514 890 482 930 500 912 b 733 1019 587 942 660 985 b 757 1017 742 1024 750 1023 l 876 913 l 961 968 b 985 964 970 974 978 972 l 1001 940 b 997 917 1009 931 1007 923 l 882 842 b 858 843 874 836 866 837 l 733 951 b 540 832 673 921 609 881 b 549 775 546 813 549 794 l 549 85 b 767 18 628 40 701 18 b 944 90 836 18 895 42 b 1017 265 992 138 1017 197 b 961 442 1017 319 998 378 b 785 668 924 507 865 582 b 785 692 777 676 777 684 l 936 838 b 960 838 944 845 952 845 l 983 817 b 983 793 992 809 992 801 l 864 678 "},"Q":{"ha":1081,"x_min":0,"x_max":0,"o":"m 1047 68 b 1049 44 1056 61 1057 53 l 972 -36 b 949 -37 965 -44 957 -44 l 838 51 b 604 -43 765 -12 688 -43 b 467 -22 560 -43 514 -36 b 358 17 419 -8 383 5 b 260 68 332 29 300 46 b 194 103 229 86 207 97 l 125 50 b 101 53 117 44 109 44 l 82 75 b 83 99 74 83 74 91 l 174 165 b 196 169 180 171 188 172 b 294 121 218 161 251 145 b 388 70 333 99 364 82 b 484 35 411 59 443 47 b 604 17 525 23 565 17 b 788 92 668 17 729 42 l 707 154 b 706 178 699 162 698 169 l 726 200 b 750 203 734 208 742 209 l 832 136 b 936 408 901 217 936 307 b 820 739 936 524 897 634 b 532 958 743 844 647 917 b 161 725 398 895 274 818 b 265 397 231 610 265 501 b 223 268 265 345 251 302 b 117 217 195 234 159 217 b 54 228 89 217 68 221 b 34 254 40 236 34 245 b 49 281 34 263 39 272 b 59 288 52 283 56 286 b 69 290 62 289 66 290 b 77 289 72 290 75 290 b 85 285 79 288 82 287 b 94 281 89 284 92 283 b 105 278 97 280 101 279 b 117 276 109 277 113 276 b 173 311 139 276 158 288 b 196 397 188 334 196 363 b 85 722 196 499 159 607 b 88 746 79 731 80 738 b 517 1019 213 854 356 945 b 539 1021 524 1022 531 1023 b 872 779 672 976 783 896 b 1006 408 961 663 1006 539 b 973 241 1006 351 995 295 b 883 96 951 187 921 138 l 954 39 l 999 86 b 1022 88 1006 94 1014 95 l 1047 68 "},"R":{"ha":1250,"x_min":0,"x_max":0,"o":"m 1179 82 b 1203 83 1187 89 1194 90 l 1226 63 b 1228 39 1236 55 1236 47 l 1149 -40 b 1126 -43 1142 -47 1135 -48 b 1042 48 1088 -23 1060 8 b 989 256 1023 88 1006 157 b 971 360 981 301 975 336 b 947 444 966 384 958 412 b 907 521 935 476 922 501 b 717 438 849 492 785 464 b 647 263 703 376 679 318 b 531 121 614 208 575 161 l 632 26 l 696 88 b 719 89 704 95 712 95 l 743 68 b 744 44 751 60 752 52 l 644 -51 b 621 -51 637 -59 629 -59 l 479 81 b 296 19 418 40 357 19 b 171 57 250 19 208 32 b 157 124 135 81 130 103 b 188 132 166 133 176 136 b 215 115 199 128 208 122 b 247 91 222 107 232 99 b 296 79 262 83 278 79 b 383 98 324 79 353 85 b 468 150 413 110 441 128 b 544 230 495 172 520 199 b 605 328 567 261 588 294 b 646 439 622 363 636 400 b 661 554 656 478 661 516 b 592 853 661 686 638 785 b 390 954 547 920 479 954 b 266 924 344 954 303 944 b 180 844 229 903 201 877 b 133 740 159 811 143 776 b 117 633 122 704 117 669 b 138 497 117 583 124 538 b 197 400 153 455 172 423 b 281 365 222 377 250 365 b 363 439 315 365 342 390 b 385 450 367 449 375 453 l 418 440 b 428 418 429 437 432 429 b 367 336 413 384 393 356 b 281 306 341 316 312 306 b 113 399 213 306 157 337 b 47 633 69 461 47 539 b 146 904 47 741 80 831 b 390 1014 212 977 293 1014 b 654 879 508 1014 596 969 b 914 1021 750 944 836 991 b 936 1021 921 1024 929 1024 b 1084 899 977 1001 1026 961 b 1206 733 1142 838 1182 782 b 1200 711 1209 725 1207 718 b 967 551 1140 656 1062 603 b 1012 461 984 527 999 497 b 1039 369 1024 425 1033 394 b 1058 265 1044 344 1051 310 b 1129 32 1080 140 1103 63 l 1179 82 m 685 822 b 731 554 715 751 731 662 b 728 507 731 538 730 523 b 1129 735 898 577 1032 653 b 1028 864 1104 777 1071 820 b 921 958 986 907 950 939 b 685 822 853 931 775 886 "},"S":{"ha":815,"x_min":0,"x_max":0,"o":"m 57 11 b 33 11 49 5 41 5 l 11 33 b 11 57 3 41 3 49 l 133 168 b 157 171 141 175 149 176 l 385 31 b 606 105 476 32 550 57 b 689 289 661 153 689 214 b 651 426 689 338 676 384 b 546 529 625 469 590 503 l 294 399 b 271 400 286 395 278 395 b 128 531 209 437 161 481 b 78 692 94 582 78 635 b 186 919 78 780 114 856 b 443 1015 258 983 344 1015 b 464 1008 450 1015 457 1013 l 632 889 l 700 953 b 724 953 708 960 716 960 l 747 931 b 746 907 756 923 755 915 l 649 818 b 625 817 641 812 633 811 l 431 956 b 230 874 352 953 285 925 b 147 692 175 822 147 761 b 286 464 147 603 194 527 l 535 592 b 557 593 542 596 550 597 b 705 466 620 563 669 520 b 758 289 741 412 758 353 b 710 124 758 228 742 173 b 574 10 677 76 632 38 b 374 -31 515 -17 449 -31 b 353 -24 366 -31 359 -28 l 153 100 l 57 11 "},"T":{"ha":1028,"x_min":0,"x_max":0,"o":"m 136 601 b 119 594 131 598 125 595 b 102 596 114 594 108 594 b 85 605 96 598 91 601 b 71 623 80 609 75 615 b 59 649 66 631 62 639 b 51 682 56 658 53 669 b 49 722 50 695 49 708 b 103 862 49 770 67 817 b 247 970 140 907 188 943 b 429 1011 306 997 367 1011 b 610 990 485 1011 545 1004 b 769 947 676 975 729 961 b 882 901 810 932 848 917 l 958 976 b 982 978 966 985 974 985 l 1006 957 b 1006 933 1014 950 1014 942 l 922 850 b 903 840 917 845 910 842 l 885 839 b 864 842 877 838 870 839 b 665 916 811 868 745 892 b 429 951 586 940 507 951 b 216 879 352 951 281 927 b 118 722 151 831 118 779 b 128 682 118 708 121 695 b 147 652 134 669 141 659 b 156 628 154 645 156 637 b 136 601 155 620 148 611 m 608 149 b 457 218 546 149 496 172 b 399 400 418 264 399 325 b 400 431 399 410 399 420 b 418 446 401 442 407 447 l 454 443 b 469 425 464 442 469 436 b 468 400 469 417 468 408 b 506 260 468 342 481 295 b 608 208 532 226 566 208 b 684 243 639 208 664 220 b 714 333 704 266 714 296 b 699 410 714 359 709 385 b 651 494 690 436 673 464 b 591 570 628 525 608 550 b 513 656 574 590 548 619 l 447 728 b 447 751 441 735 441 743 l 556 879 b 579 882 562 888 570 888 l 604 863 b 608 839 614 856 616 848 l 524 740 l 564 697 b 628 626 593 667 614 643 b 685 558 643 610 662 587 b 738 483 709 528 727 503 b 769 410 750 462 760 438 b 783 333 779 383 783 357 b 734 201 783 280 767 235 b 608 149 701 166 659 149 m 685 -47 b 581 -33 652 -47 618 -43 b 466 9 545 -24 506 -10 b 370 57 426 28 394 44 b 278 110 347 70 316 88 l 240 132 l 154 60 b 131 61 146 52 138 53 l 110 82 b 110 106 101 90 101 98 l 219 199 b 243 201 227 205 235 206 b 314 161 261 192 284 179 b 435 92 364 131 404 108 b 556 40 465 75 506 58 b 685 13 606 22 649 13 b 837 67 749 13 799 31 b 919 239 874 103 902 160 b 939 253 921 250 928 255 l 974 246 b 986 224 985 244 989 237 b 685 -47 944 43 844 -47 "},"U":{"ha":946,"x_min":0,"x_max":0,"o":"m 917 93 b 940 94 925 100 933 101 l 964 74 b 965 50 972 66 973 58 l 875 -37 b 851 -37 867 -46 859 -46 l 774 39 b 765 60 768 44 765 51 l 765 151 l 544 -36 b 521 -36 536 -44 528 -44 l 283 182 b 163 142 243 155 202 142 b 49 181 99 142 61 155 b 64 221 42 194 47 208 b 89 225 76 226 84 228 b 117 211 94 222 103 218 b 163 201 132 205 147 201 b 297 280 208 201 253 228 b 363 440 341 332 363 386 b 349 524 363 470 358 498 b 303 604 339 551 324 577 b 249 669 283 631 264 653 b 179 736 233 685 210 707 b 107 806 143 769 119 793 b 110 829 100 814 101 822 l 304 1007 b 328 1007 313 1014 320 1014 l 350 986 b 350 963 358 978 358 970 l 189 815 l 226 779 b 284 724 251 756 271 738 b 337 666 297 711 315 691 b 387 597 359 641 375 618 b 418 524 398 577 409 553 b 432 440 427 496 432 468 b 405 326 432 402 423 364 b 333 222 387 287 363 253 l 535 39 l 765 235 l 765 806 b 817 1004 765 895 782 962 b 840 1006 823 1013 831 1014 l 864 985 b 867 963 871 978 872 971 b 835 806 845 929 835 877 l 835 69 l 864 42 l 917 93 "},"V":{"ha":1286,"x_min":0,"x_max":0,"o":"m 1049 858 b 1097 802 1067 838 1083 819 b 1144 737 1111 785 1127 763 b 1185 659 1161 710 1175 684 b 1213 570 1196 634 1205 604 b 1224 465 1220 536 1224 501 b 1110 140 1224 347 1186 238 b 825 -49 1034 42 939 -21 b 803 -44 818 -50 810 -49 l 474 133 b 339 103 428 113 383 103 b 228 147 288 103 251 118 b 229 199 212 169 213 186 b 255 208 238 208 246 211 b 276 194 264 206 271 201 b 301 173 281 187 289 180 b 339 163 312 166 325 163 b 504 224 395 163 450 183 b 635 385 558 264 602 318 b 686 590 669 451 686 520 b 648 782 686 661 673 725 b 544 917 622 839 588 884 b 399 967 500 950 451 967 b 212 868 327 967 265 934 b 132 638 159 802 132 725 b 180 453 132 566 148 505 b 292 376 212 402 249 376 b 392 449 340 376 373 400 b 413 460 395 459 402 463 l 447 451 b 458 431 458 448 462 441 b 394 346 444 394 423 365 b 292 317 366 326 331 317 b 129 410 228 317 174 348 b 63 638 85 472 63 548 b 162 911 63 743 96 834 b 399 1026 228 988 307 1026 b 652 901 499 1026 583 984 b 756 590 721 817 756 713 b 694 352 756 508 735 428 b 536 169 654 276 601 215 l 824 14 b 1059 183 917 41 996 97 b 1154 465 1122 269 1154 363 b 1147 542 1154 491 1152 517 b 1133 608 1143 568 1138 590 b 1107 669 1129 626 1120 646 b 1078 719 1094 691 1084 708 b 1041 767 1071 729 1059 746 b 1006 808 1023 789 1011 803 b 968 849 1001 814 988 827 b 969 872 961 857 961 865 l 1107 1003 b 1131 1004 1115 1010 1123 1011 l 1154 983 b 1154 960 1163 975 1163 967 l 1049 858 "},"W":{"ha":1692,"x_min":0,"x_max":0,"o":"m 1449 869 b 1512 797 1475 842 1496 817 b 1567 713 1528 776 1547 748 b 1614 599 1588 678 1604 640 b 1629 465 1624 557 1629 513 b 1531 156 1629 343 1596 240 b 1228 -47 1465 72 1364 5 b 1206 -46 1220 -51 1213 -50 l 988 76 b 793 -47 937 32 872 -9 b 771 -47 786 -52 778 -52 l 467 131 b 339 103 424 112 381 103 b 228 147 288 103 251 118 b 229 199 212 169 213 186 b 255 208 238 208 246 211 b 276 194 264 206 271 201 b 301 173 281 187 289 180 b 339 163 312 166 325 163 b 504 222 395 163 450 182 b 635 381 558 261 602 314 b 686 590 669 448 686 518 b 648 782 686 661 673 725 b 544 917 622 839 588 884 b 399 967 500 950 451 967 b 212 868 327 967 265 934 b 132 638 159 802 132 725 b 180 453 132 566 148 505 b 292 376 212 402 249 376 b 392 449 340 376 373 400 b 413 460 395 459 402 463 l 447 451 b 458 431 458 448 462 441 b 394 346 444 394 423 365 b 292 317 366 326 331 317 b 129 410 228 317 174 348 b 63 638 85 472 63 548 b 162 911 63 743 96 834 b 399 1026 228 988 307 1026 b 579 969 464 1026 525 1007 b 708 812 634 931 677 879 b 756 590 740 745 756 671 b 692 348 756 506 734 425 b 531 165 650 271 596 210 l 785 17 b 1018 205 891 72 969 135 b 1092 456 1067 275 1092 358 b 961 882 1092 622 1048 764 b 965 904 955 891 956 899 l 992 922 b 1015 919 1001 929 1009 928 b 1161 456 1113 790 1161 635 b 1035 121 1161 323 1119 212 l 1222 15 b 1413 126 1300 47 1364 84 b 1524 274 1463 169 1500 218 b 1560 465 1548 330 1560 394 b 1549 569 1560 501 1556 536 b 1524 652 1541 602 1533 629 b 1483 725 1514 675 1501 699 b 1439 783 1465 751 1450 770 b 1389 838 1428 796 1411 814 l 1385 843 b 1378 864 1379 849 1377 856 l 1379 882 b 1389 903 1379 890 1382 897 l 1499 997 b 1522 997 1507 1005 1515 1005 l 1544 975 b 1543 951 1553 968 1552 960 l 1449 869 "},"X":{"ha":1046,"x_min":0,"x_max":0,"o":"m 1008 88 b 1032 90 1016 96 1024 97 l 1057 69 b 1060 47 1066 63 1067 56 l 981 -39 b 958 -43 974 -46 967 -48 b 856 51 920 -22 886 10 b 780 183 825 93 800 137 b 731 332 760 228 744 278 b 647 118 709 255 681 184 b 532 -36 612 52 574 1 b 511 -42 525 -42 519 -44 b 311 44 472 -32 406 -4 l 303 49 b 287 58 298 51 293 55 b 267 69 281 62 274 66 b 249 77 260 72 254 75 b 240 81 244 79 241 81 b 167 -22 234 81 209 46 b 144 -29 161 -31 154 -34 l 114 -14 b 108 10 104 -8 102 0 b 240 140 162 97 206 140 b 343 99 252 140 287 126 b 503 24 418 60 471 35 b 640 270 556 80 602 162 b 696 583 677 378 696 482 l 696 589 l 610 589 l 549 526 b 525 525 541 519 533 519 l 501 546 b 500 569 492 553 492 561 l 569 640 b 590 649 575 646 582 649 l 689 649 b 657 753 682 684 672 719 b 601 851 642 788 623 821 b 515 926 578 882 549 907 b 403 954 480 945 443 954 b 272 904 357 954 314 938 b 169 772 229 871 195 827 b 131 600 144 716 131 659 b 172 398 131 516 144 448 b 281 322 199 347 235 322 b 337 341 300 322 319 328 b 376 389 355 353 368 369 b 397 401 381 399 388 403 l 432 393 b 444 372 444 390 448 383 b 378 294 431 341 409 315 b 281 263 347 273 315 263 b 120 354 213 263 159 293 b 61 600 81 415 61 497 b 109 802 61 670 77 738 b 236 956 141 866 183 918 b 403 1014 289 995 344 1014 b 599 942 479 1014 544 990 b 725 761 653 894 695 833 b 879 1014 757 862 809 946 b 901 1017 886 1020 893 1021 l 985 975 l 1015 1013 b 1039 1015 1023 1021 1031 1022 l 1065 996 b 1068 974 1075 989 1075 982 l 1014 907 b 990 903 1007 900 1000 898 l 904 947 b 816 809 869 907 840 861 b 769 649 792 757 777 703 l 889 649 l 931 707 b 954 711 937 715 945 717 l 982 694 b 986 671 991 688 993 680 l 935 600 b 915 589 930 593 924 589 l 765 589 l 765 583 b 822 263 765 476 784 369 b 958 33 859 157 905 81 "},"Y":{"ha":935,"x_min":0,"x_max":0,"o":"m 853 92 b 869 0 864 50 869 19 b 823 -137 869 -50 854 -96 b 697 -236 792 -179 750 -212 b 522 -272 643 -260 585 -272 b 436 -260 494 -272 465 -268 b 363 -231 407 -251 383 -242 b 296 -185 342 -219 320 -204 b 242 -137 272 -165 254 -150 b 193 -86 230 -125 213 -108 l 153 -47 b 129 -23 146 -39 138 -31 b 110 -8 121 -15 114 -10 b 96 -6 105 -6 100 -6 b 68 -12 85 -6 75 -8 b 31 -44 61 -17 48 -28 b 6 -44 22 -52 14 -52 l -11 -26 b -10 -1 -19 -18 -18 -10 b 50 44 17 23 37 38 b 96 54 63 51 78 54 b 157 33 116 54 137 47 b 243 -46 177 19 206 -7 b 290 -94 263 -67 278 -83 b 338 -137 301 -106 317 -120 b 394 -178 359 -155 378 -169 b 453 -202 411 -187 431 -195 b 522 -212 476 -209 499 -212 b 719 -151 599 -212 665 -192 b 800 0 773 -109 800 -59 b 786 76 800 15 795 40 b 765 161 777 111 770 139 l 533 -36 b 510 -36 525 -44 517 -44 l 272 182 b 151 142 231 155 191 142 b 44 176 113 142 78 153 b 43 200 34 183 34 191 l 64 221 b 88 222 71 228 79 229 b 151 201 108 208 129 201 b 285 280 197 201 241 228 b 351 440 329 332 351 386 b 338 524 351 470 347 498 b 292 604 328 551 313 577 b 238 669 272 631 253 653 b 168 736 222 685 199 707 b 96 806 132 769 108 793 b 99 829 89 814 90 822 l 293 1007 b 317 1007 301 1014 309 1014 l 339 986 b 339 963 347 978 347 970 l 178 815 l 215 779 b 264 734 237 760 253 745 b 309 688 275 723 290 708 b 353 632 328 667 343 649 b 387 575 364 615 375 596 b 413 509 398 554 407 532 b 421 440 418 486 421 463 b 394 326 421 402 412 364 b 322 222 376 287 352 253 l 524 39 l 756 236 b 754 293 755 255 754 274 l 754 806 b 806 1004 754 895 771 962 b 829 1006 812 1013 820 1014 l 853 985 b 856 963 860 978 861 971 b 824 806 834 929 824 877 l 824 293 b 853 92 824 232 833 165 "},"Z":{"ha":1046,"x_min":0,"x_max":0,"o":"m 949 192 b 972 200 954 201 962 204 l 1003 186 b 1010 163 1013 181 1015 173 b 679 -44 932 25 822 -44 b 574 -30 646 -44 611 -40 b 460 13 538 -20 500 -6 b 365 61 420 32 388 48 b 272 114 341 74 310 92 l 228 139 l 157 67 b 133 65 150 59 142 59 l 108 86 b 108 110 100 94 100 101 l 482 494 l 332 494 l 269 431 b 246 431 262 423 254 423 l 222 450 b 221 474 213 457 213 465 l 290 546 b 311 554 297 551 304 554 l 540 554 l 836 857 b 424 954 688 922 550 954 b 209 883 346 954 274 931 b 111 728 144 836 111 784 b 122 685 111 713 115 699 b 141 654 128 672 135 662 b 149 630 147 647 150 639 b 129 601 148 621 141 612 b 105 594 121 597 113 594 b 82 603 97 593 89 596 b 62 628 75 609 68 618 b 47 670 56 639 51 653 b 42 728 44 687 42 706 b 97 867 42 776 60 822 b 241 974 134 911 182 947 b 424 1014 300 1000 361 1014 b 672 978 505 1014 588 1002 b 881 904 755 955 825 930 l 951 976 b 975 978 959 984 967 984 l 999 957 b 1000 933 1008 950 1008 942 l 631 554 l 781 554 l 836 611 b 860 611 844 619 851 619 l 883 592 b 885 568 893 584 893 576 l 821 503 b 801 494 815 497 809 494 l 572 494 l 272 185 l 307 165 b 428 96 357 136 397 113 b 549 44 459 79 500 62 b 679 17 599 26 642 17 b 833 58 738 17 790 31 b 949 192 876 86 914 131 "},"[":{"ha":403,"x_min":0,"x_max":0,"o":"m 128 -272 b 111 -256 117 -272 111 -267 l 111 997 b 128 1014 111 1008 117 1014 l 344 1014 b 361 997 356 1014 361 1008 l 361 971 b 344 954 361 960 356 954 l 181 954 l 181 -212 l 343 -212 b 360 -229 354 -212 360 -218 l 360 -256 b 343 -272 360 -267 354 -272 l 128 -272 "},"\\":{"ha":436,"x_min":0,"x_max":0,"o":"m 374 -10 b 353 0 363 -13 356 -10 l -8 985 b 3 1007 -12 996 -8 1003 l 35 1017 b 56 1006 45 1019 52 1016 l 417 21 b 406 0 420 10 417 3 l 374 -10 "},"]":{"ha":403,"x_min":0,"x_max":0,"o":"m 60 -272 b 43 -256 49 -272 43 -267 l 43 -229 b 60 -212 43 -218 49 -212 l 222 -212 l 222 954 l 58 954 b 42 971 47 954 42 960 l 42 997 b 58 1014 42 1008 47 1014 l 275 1014 b 292 997 286 1014 292 1008 l 292 -256 b 275 -272 292 -267 286 -272 l 60 -272 "},"^":{"ha":776,"x_min":0,"x_max":0,"o":"m 124 419 b 101 414 118 410 111 408 l 71 428 b 64 451 61 433 58 441 l 376 992 b 400 992 385 1005 393 1005 l 713 451 b 706 428 718 441 716 433 l 675 414 b 653 419 666 408 658 410 l 389 878 l 124 419 "},"_":{"ha":536,"x_min":0,"x_max":0,"o":"m 3 -201 b -14 -185 -8 -201 -14 -196 l -14 -158 b 3 -142 -14 -147 -8 -142 l 533 -142 b 550 -158 544 -142 550 -147 l 550 -185 b 533 -201 550 -196 544 -201 l 3 -201 "},"`":{"ha":276,"x_min":0,"x_max":0,"o":"m 188 779 b 164 785 178 774 170 775 l 65 929 b 71 953 59 939 61 947 l 100 968 b 122 963 109 974 117 972 l 213 813 b 207 790 218 803 216 796 l 188 779 "},"a":{"ha":653,"x_min":0,"x_max":0,"o":"m 592 71 b 615 71 599 78 607 78 l 633 53 b 633 29 642 44 642 37 l 575 -25 b 551 -26 568 -32 560 -33 l 482 35 b 472 56 475 40 472 47 l 472 81 l 297 -29 b 274 -29 289 -34 281 -34 b 104 122 193 18 137 69 b 56 333 72 176 56 246 b 140 572 56 416 84 495 b 354 736 197 648 268 703 b 376 733 362 739 369 738 l 531 633 b 542 613 538 629 542 622 l 542 68 l 567 47 l 592 71 m 472 154 l 472 596 l 357 671 b 191 529 290 640 235 593 b 125 333 147 465 125 400 b 160 159 125 261 137 203 b 285 36 184 115 225 74 "},"b":{"ha":651,"x_min":0,"x_max":0,"o":"m 357 738 b 367 740 360 738 363 739 b 376 738 370 740 374 739 b 597 361 524 665 597 540 b 562 210 597 311 585 261 b 465 72 538 160 506 114 b 324 -29 423 31 376 -3 b 301 -29 316 -33 309 -33 l 108 67 b 100 88 98 71 95 78 b 111 119 107 102 111 113 l 111 628 b 86 864 111 741 103 819 b 94 885 82 873 85 880 b 115 881 103 891 110 889 b 143 815 125 864 135 842 b 267 996 169 884 210 944 b 290 994 274 1002 282 1002 l 301 983 b 301 960 309 975 309 967 b 181 639 221 870 181 763 l 181 604 l 353 736 m 313 35 b 467 178 375 69 426 117 b 528 361 507 239 528 300 b 371 671 528 505 475 608 l 181 524 l 181 100 l 313 35 "},"c":{"ha":501,"x_min":0,"x_max":0,"o":"m 321 -31 b 299 -33 314 -35 307 -36 b 120 113 223 -2 163 47 b 56 340 77 179 56 255 b 119 570 56 423 77 499 b 288 726 162 641 218 693 b 310 726 295 730 302 730 b 440 646 354 704 398 677 b 443 622 450 638 450 631 l 422 600 b 400 597 416 592 408 591 b 299 663 365 623 331 645 b 173 528 247 632 205 587 b 125 340 141 470 125 407 b 171 158 125 273 140 212 b 299 35 201 105 244 63 l 408 131 b 432 129 417 137 425 137 l 454 108 b 453 85 462 100 461 92 l 322 -31 "},"d":{"ha":653,"x_min":0,"x_max":0,"o":"m 215 840 b 283 805 244 825 266 814 b 352 763 299 796 322 782 b 426 708 382 743 407 725 b 490 644 445 692 466 670 b 547 564 514 617 533 591 b 583 469 561 537 573 506 b 597 357 592 433 597 396 b 569 203 597 300 588 249 b 485 77 551 156 523 115 b 342 -29 448 40 400 4 b 318 -29 334 -33 326 -33 l 96 82 b 90 104 84 88 82 96 l 97 110 b 104 117 101 113 103 116 b 108 124 105 119 106 121 b 111 133 110 128 111 131 l 111 551 b 97 579 111 559 106 568 b 101 603 90 588 91 596 l 304 719 b 183 788 276 737 236 760 b 101 834 146 807 119 822 b 62 867 84 846 71 857 b 49 903 53 878 49 890 b 98 975 49 931 65 955 b 215 1008 131 995 170 1006 b 232 993 226 1009 232 1004 l 232 974 b 215 957 232 963 226 958 b 168 948 199 956 183 953 b 132 931 153 943 141 937 b 118 910 123 924 118 917 b 119 903 118 907 118 905 b 122 897 119 901 120 899 b 126 890 123 894 124 892 b 133 884 127 888 129 886 b 142 878 136 882 139 880 b 156 872 146 877 150 875 b 172 863 161 868 166 866 b 192 853 177 861 183 858 b 215 840 200 849 208 845 m 328 35 b 480 174 397 77 448 124 b 528 357 512 225 528 286 b 360 681 528 487 472 594 l 181 579 l 181 108 l 328 35 "},"e":{"ha":579,"x_min":0,"x_max":0,"o":"m 440 168 b 464 167 449 175 456 174 l 485 146 b 485 122 493 138 493 130 l 311 -28 b 288 -31 304 -34 296 -35 b 117 119 215 4 159 53 b 56 339 76 184 56 257 b 286 731 56 515 132 645 b 308 729 294 735 301 735 b 515 482 389 669 458 587 b 511 460 521 474 519 466 l 156 190 b 289 38 184 125 229 74 m 292 661 b 125 339 181 590 125 482 b 135 254 125 310 128 282 l 438 483 b 292 661 393 556 344 615 "},"f":{"ha":293,"x_min":0,"x_max":0,"o":"m 181 667 l 257 667 b 274 650 268 667 274 661 l 274 624 b 257 607 274 613 268 607 l 181 607 l 181 44 b 157 -154 181 -30 173 -96 b 86 -336 141 -212 118 -273 b 65 -344 81 -345 75 -348 l 40 -333 b 32 -311 30 -329 27 -321 b 78 -196 51 -271 67 -233 b 103 -82 90 -159 98 -121 b 111 44 109 -43 111 -1 l 111 607 l 57 607 b 40 624 46 607 40 613 l 40 650 b 57 667 40 661 46 667 l 111 667 l 111 693 b 29 847 111 737 84 788 b 28 871 22 856 21 863 l 140 997 b 164 999 148 1006 156 1006 l 229 947 b 264 981 241 957 253 969 b 288 982 271 988 279 988 b 292 958 297 975 298 967 b 229 888 274 934 253 911 b 206 886 222 880 214 880 l 161 921 l 106 860 b 181 693 156 798 181 742 "},"g":{"ha":614,"x_min":0,"x_max":0,"o":"m 540 22 b 561 -75 554 -19 561 -51 b 478 -212 561 -130 534 -175 b 272 -267 423 -248 355 -267 b 121 -229 210 -267 160 -254 b 63 -132 82 -204 63 -172 b 85 -75 63 -110 70 -91 b 144 -43 101 -59 120 -49 b 164 -57 156 -40 162 -45 l 167 -83 b 153 -103 168 -93 163 -99 b 132 -132 139 -108 132 -118 b 169 -185 132 -154 144 -172 b 272 -206 194 -199 229 -206 b 429 -168 335 -206 388 -193 b 492 -75 471 -143 492 -112 b 475 3 492 -56 486 -31 b 454 93 463 41 456 71 l 324 -10 b 300 -14 316 -15 308 -17 b 56 331 137 44 56 158 b 128 576 56 416 80 497 b 314 749 177 654 239 712 b 336 749 321 752 329 752 l 511 660 b 524 639 519 655 524 648 l 524 104 b 540 22 524 84 529 56 m 454 174 l 454 619 l 325 685 b 182 535 268 651 220 602 b 125 331 144 469 125 401 b 299 51 125 194 183 101 "},"h":{"ha":644,"x_min":0,"x_max":0,"o":"m 344 733 b 354 735 347 734 350 735 b 364 733 358 736 361 735 b 531 563 437 691 493 634 b 589 314 570 491 589 408 b 483 -3 589 206 553 100 b 200 -254 412 -107 318 -190 b 178 -247 191 -260 183 -257 l 165 -228 b 172 -206 160 -219 162 -211 b 424 24 277 -147 361 -71 b 519 314 488 119 519 216 b 477 519 519 391 505 459 b 356 664 449 580 408 628 l 167 522 l 167 58 l 185 44 l 244 97 b 268 97 252 105 260 105 l 290 76 b 289 53 299 68 298 60 l 201 -26 b 178 -28 194 -33 186 -33 l 89 31 b 86 54 80 37 79 45 b 97 93 94 63 97 75 l 97 639 l 97 646 b 72 864 97 748 89 820 b 80 885 69 873 71 880 b 101 881 89 891 96 889 b 131 811 113 863 122 840 b 257 996 158 882 200 944 b 281 994 265 1003 273 1003 l 292 983 b 292 960 299 976 299 968 b 200 810 253 918 222 868 b 167 639 178 753 167 695 l 167 601 l 340 732 "},"i":{"ha":293,"x_min":0,"x_max":0,"o":"m 138 800 b 114 800 129 794 121 794 l 58 839 b 58 863 47 846 47 854 l 114 903 b 138 903 121 908 129 908 l 193 863 b 193 839 204 854 204 846 l 138 800 m 210 -28 b 186 -29 203 -35 195 -36 l 103 39 b 101 62 94 46 93 54 b 113 83 109 70 113 77 l 113 638 l 92 661 l 51 621 b 28 621 44 613 36 613 l 15 632 b 14 656 6 639 6 647 l 92 732 b 115 733 99 740 107 741 l 197 656 b 199 632 206 648 206 640 b 182 606 188 621 182 612 l 182 58 l 197 44 l 229 78 b 253 79 237 85 244 86 l 269 65 b 271 42 278 59 278 51 l 210 -28 "},"j":{"ha":293,"x_min":0,"x_max":0,"o":"m 135 832 b 113 832 127 827 120 827 l 65 865 b 65 888 53 873 53 880 l 115 918 b 138 918 123 923 130 923 l 188 885 b 188 863 200 877 200 870 l 135 832 m 74 -254 b 50 -253 65 -261 57 -260 l 39 -242 b 39 -218 31 -234 31 -226 b 103 -101 71 -182 93 -143 b 118 75 113 -60 118 -1 l 118 638 l 92 661 l 51 621 b 28 621 43 613 35 613 l 14 632 b 14 656 6 639 6 647 l 90 732 b 114 733 99 740 106 741 l 203 656 b 204 632 212 648 213 640 b 188 606 193 621 188 612 l 188 54 b 214 -169 188 -39 196 -114 b 206 -190 217 -179 214 -186 b 182 -187 195 -196 188 -195 b 160 -136 174 -175 166 -157 b 74 -254 143 -179 114 -218 "},"k":{"ha":568,"x_min":0,"x_max":0,"o":"m 526 82 b 549 76 536 88 543 86 l 565 53 b 560 29 571 43 569 35 l 456 -28 b 433 -21 445 -33 438 -31 l 263 332 b 271 354 258 342 261 350 b 389 440 321 378 360 407 b 432 540 418 474 432 507 b 361 669 432 584 408 627 l 168 544 l 168 81 l 182 63 b 182 39 188 54 188 46 l 146 -17 b 124 -17 138 -29 131 -29 l 86 40 b 88 63 81 48 81 55 l 99 76 l 99 686 b 108 781 99 720 102 752 b 128 851 114 809 120 833 b 161 905 135 869 146 887 b 197 944 176 923 188 936 b 236 976 205 952 219 963 l 238 978 b 247 981 239 980 243 981 b 261 976 252 981 256 979 l 282 954 b 286 935 289 946 291 939 l 279 929 b 234 891 259 913 244 901 b 201 848 224 881 213 867 b 175 781 188 829 180 806 b 168 686 170 755 168 723 l 168 619 l 353 739 b 376 738 361 744 369 744 b 501 540 460 675 501 610 b 460 424 501 500 488 462 b 342 322 432 386 393 352 l 474 53 l 526 82 "},"l":{"ha":322,"x_min":0,"x_max":0,"o":"m 256 94 b 279 96 263 102 271 102 l 303 76 b 306 53 312 69 313 61 l 231 -26 b 208 -29 224 -34 217 -35 l 96 49 b 93 71 86 55 85 63 b 104 88 100 78 104 84 l 104 686 l 104 693 b 79 864 101 769 93 826 b 87 885 75 873 78 880 b 108 881 96 891 103 889 b 129 835 116 869 123 853 b 176 903 140 860 156 882 b 254 969 196 923 222 945 b 278 968 263 976 271 975 l 285 961 b 283 938 292 953 292 945 b 194 832 238 900 208 864 b 172 686 179 800 172 751 l 172 74 l 211 47 l 256 94 "},"m":{"ha":986,"x_min":0,"x_max":0,"o":"m 917 78 b 940 79 924 85 932 86 l 957 65 b 960 42 966 59 967 51 l 900 -25 b 876 -26 893 -33 885 -34 l 799 40 b 797 64 790 48 790 56 b 804 82 802 69 804 75 l 804 594 l 697 674 l 521 551 l 521 79 l 535 61 b 535 38 540 54 540 46 l 499 -15 b 476 -15 491 -27 484 -27 l 439 39 b 439 63 433 47 433 55 l 451 79 l 451 583 l 356 668 l 181 546 l 181 78 l 194 61 b 194 38 199 53 199 45 l 158 -17 b 136 -17 151 -28 144 -28 l 99 38 b 99 61 93 46 93 54 l 111 78 l 111 640 l 92 661 l 50 621 b 26 621 43 613 35 613 l 14 632 b 13 656 6 639 5 647 l 90 732 b 114 732 98 740 106 740 l 172 671 b 181 650 178 665 181 658 l 181 624 l 350 742 b 374 740 358 747 366 747 l 507 618 l 686 743 b 710 742 694 749 702 748 l 878 619 b 882 596 885 614 887 606 b 874 538 876 584 874 564 l 874 53 l 885 46 l 917 78 "},"n":{"ha":671,"x_min":0,"x_max":0,"o":"m 603 78 b 626 79 610 85 618 86 l 643 65 b 646 42 652 59 653 51 l 585 -26 b 561 -28 577 -35 569 -35 l 485 40 b 483 64 476 48 476 56 b 490 82 488 69 490 75 l 490 594 l 383 674 l 182 563 l 182 78 l 194 61 b 194 38 200 53 200 45 l 160 -15 b 136 -17 151 -27 144 -28 l 99 38 b 99 61 93 46 93 54 l 113 78 l 113 640 l 90 661 l 49 621 b 25 621 41 613 33 613 l 13 632 b 11 656 4 639 4 647 l 89 732 b 113 732 96 740 104 740 l 172 672 b 182 651 179 667 182 660 l 182 635 l 372 743 b 396 742 381 748 388 747 l 568 615 b 574 594 577 609 579 602 b 560 564 564 581 560 570 l 560 54 l 571 44 l 603 78 "},"o":{"ha":654,"x_min":0,"x_max":0,"o":"m 317 742 b 522 584 402 709 470 657 b 599 349 573 511 599 433 b 581 229 599 305 593 265 b 527 128 570 193 552 159 b 457 49 503 96 479 70 b 368 -28 435 27 405 2 b 346 -31 361 -33 353 -34 b 107 100 270 1 190 44 b 103 124 98 106 96 114 b 113 142 109 131 113 137 l 111 547 b 99 578 111 556 107 566 b 103 601 92 586 94 594 b 306 735 144 633 212 677 m 346 36 b 421 102 376 61 401 83 b 477 169 440 121 459 143 b 517 251 495 194 508 222 b 529 349 525 281 529 313 b 473 539 529 415 510 479 b 321 671 435 599 385 643 b 182 582 272 644 225 614 l 182 128 b 346 36 230 96 285 66 "},"p":{"ha":658,"x_min":0,"x_max":0,"o":"m 365 743 b 540 585 439 707 497 654 b 603 349 582 515 603 437 b 588 230 603 306 598 266 b 540 130 577 193 561 160 b 472 50 518 100 495 73 b 386 -26 449 27 420 1 b 364 -31 379 -32 371 -33 b 194 54 320 -16 264 13 l 194 -54 b 169 -279 194 -150 186 -225 b 149 -289 166 -289 159 -293 l 122 -281 b 111 -260 113 -277 109 -270 b 125 -54 120 -213 125 -145 l 125 99 b 88 118 107 112 95 118 b 47 99 73 118 59 112 b 24 96 40 90 32 89 l 6 110 b 3 133 -4 117 -5 125 b 82 185 29 168 55 185 b 125 169 91 185 106 180 l 125 586 l 125 649 b 97 708 125 665 116 685 b 64 779 75 736 64 760 b 179 911 64 801 102 845 b 203 911 188 918 195 918 l 215 900 b 214 876 224 892 223 884 b 153 819 187 853 167 834 b 133 779 140 805 133 791 b 151 746 133 772 139 761 b 194 649 180 710 194 677 l 194 631 l 354 735 m 361 36 b 495 185 425 89 470 138 b 533 349 521 231 533 286 b 490 537 533 418 519 481 b 369 669 462 593 421 637 l 194 557 l 194 128 b 361 36 269 82 324 52 "},"q":{"ha":628,"x_min":0,"x_max":0,"o":"m 306 742 b 328 740 313 744 320 744 l 529 626 b 536 604 538 621 541 613 b 524 554 528 588 524 572 l 524 56 b 523 -69 524 0 523 -41 b 519 -163 522 -96 521 -128 b 508 -256 516 -199 513 -230 b 489 -268 506 -267 499 -271 l 453 -262 b 440 -243 443 -260 438 -253 b 454 56 450 -192 454 -93 l 454 89 l 272 -31 b 250 -31 265 -36 257 -36 b 177 34 221 -7 197 14 b 117 108 157 54 137 79 b 71 209 96 138 81 172 b 56 333 61 247 56 288 b 127 573 56 415 79 495 b 306 742 175 651 234 707 m 454 165 l 454 597 l 315 676 b 180 531 262 645 216 596 b 125 333 143 465 125 399 b 157 173 125 271 136 218 b 265 39 178 128 214 83 "},"r":{"ha":442,"x_min":0,"x_max":0,"o":"m 324 144 b 347 149 330 153 338 154 l 372 132 b 375 108 381 125 382 117 l 257 -28 b 233 -31 250 -35 243 -36 l 119 44 b 113 67 110 50 108 57 b 119 85 117 75 119 81 l 119 642 l 100 661 l 58 621 b 35 621 51 613 43 613 l 22 632 b 21 656 14 639 13 647 l 99 732 b 122 732 106 740 114 740 l 181 672 b 189 651 186 667 189 660 l 189 644 l 296 729 b 318 726 304 737 312 736 l 414 611 b 411 588 421 602 420 594 l 385 568 b 361 572 375 563 368 564 l 297 650 l 189 564 l 189 81 l 236 44 "},"s":{"ha":568,"x_min":0,"x_max":0,"o":"m 81 58 b 75 81 70 64 69 71 l 90 106 b 113 111 96 115 103 117 l 268 29 b 326 60 288 38 308 48 b 375 98 345 72 361 84 b 411 141 389 111 401 126 b 435 188 421 156 429 172 b 443 236 440 204 443 220 b 372 372 443 285 419 331 l 204 247 b 181 249 196 242 188 242 b 56 468 97 318 56 391 b 128 631 56 527 80 582 b 310 729 176 681 237 713 b 332 726 317 731 325 730 l 475 638 b 481 614 485 631 487 623 l 463 590 b 440 586 457 582 450 581 l 308 667 b 214 622 273 657 242 643 b 149 551 186 602 164 578 b 125 468 133 523 125 496 b 196 321 125 418 149 369 l 363 443 b 386 443 370 449 378 449 b 513 236 470 382 513 313 b 447 79 513 181 491 128 b 274 -33 403 30 345 -7 b 251 -32 266 -36 259 -36 l 81 58 "},"t":{"ha":342,"x_min":0,"x_max":0,"o":"m 264 94 b 288 96 271 102 279 102 l 311 76 b 314 53 320 69 321 61 l 239 -26 b 217 -29 232 -34 225 -35 l 104 49 b 101 71 94 55 93 63 b 111 88 108 78 111 84 l 111 608 l 61 608 b 44 625 50 608 44 614 l 44 651 b 61 668 44 663 50 668 l 111 668 l 111 686 b 128 833 111 747 117 796 b 189 933 140 870 160 904 b 213 935 196 941 204 941 l 219 929 b 224 906 228 923 229 915 b 190 821 208 882 197 854 b 181 686 184 788 181 743 l 181 668 l 282 668 b 299 651 293 668 299 663 l 299 625 b 282 608 299 614 293 608 l 181 608 l 181 74 l 219 47 l 264 94 "},"u":{"ha":650,"x_min":0,"x_max":0,"o":"m 607 78 b 631 79 614 85 622 86 l 647 65 b 650 42 656 59 657 51 l 589 -26 b 565 -29 581 -35 574 -36 l 478 46 b 468 67 471 51 468 58 l 468 81 l 299 -32 b 276 -31 291 -37 284 -36 l 103 96 b 97 118 94 102 92 110 b 111 147 106 131 111 141 l 111 638 l 92 661 l 50 621 b 26 621 43 613 35 613 l 14 632 b 13 656 6 639 5 647 l 90 732 b 114 733 98 740 106 741 l 188 668 b 189 644 196 661 196 653 b 181 625 183 639 181 632 l 181 117 l 289 38 l 468 157 l 468 646 l 454 667 b 456 690 450 675 450 683 l 490 735 b 514 735 499 745 506 745 l 550 689 b 551 667 556 681 557 674 l 538 646 l 538 79 l 575 44 l 607 78 "},"v":{"ha":644,"x_min":0,"x_max":0,"o":"m 181 128 b 347 36 255 82 310 52 b 449 136 391 71 425 105 b 503 234 474 168 492 200 b 519 349 514 268 519 306 b 478 535 519 418 506 480 b 360 667 450 591 411 634 l 313 624 b 289 624 305 616 297 616 l 271 640 b 271 664 263 649 263 656 l 346 733 b 368 736 352 740 360 741 b 531 580 438 700 493 648 b 589 349 570 512 589 435 b 578 251 589 314 585 282 b 549 168 570 220 561 192 b 501 97 537 144 521 120 b 442 34 481 73 461 52 b 372 -26 422 16 399 -4 b 350 -31 365 -32 357 -33 b 227 28 324 -20 283 -1 b 106 97 171 58 131 81 b 100 119 97 103 95 110 b 111 149 107 131 111 141 l 111 638 l 92 661 l 50 621 b 26 621 43 613 35 613 l 14 632 b 13 656 6 639 5 647 l 90 732 b 114 733 98 740 106 741 l 197 656 b 197 632 206 648 206 640 b 181 606 186 621 181 612 l 181 128 "},"w":{"ha":990,"x_min":0,"x_max":0,"o":"m 690 735 b 699 738 693 736 696 737 b 708 736 703 738 706 738 b 831 640 756 712 797 680 b 908 506 865 600 891 556 b 935 349 926 457 935 404 b 923 251 935 314 931 282 b 893 169 915 220 905 192 b 844 97 881 145 865 121 b 785 34 824 73 804 52 b 714 -26 765 16 742 -4 b 690 -28 706 -32 699 -32 l 489 85 b 371 -28 462 49 423 11 b 349 -31 363 -32 356 -33 b 227 28 324 -21 283 -2 b 106 97 171 57 131 81 b 100 119 97 103 95 110 b 111 149 107 131 111 141 l 111 638 l 92 661 l 50 621 b 26 621 43 613 35 613 l 14 632 b 13 656 6 639 5 647 l 90 732 b 114 733 98 740 106 741 l 197 656 b 197 632 206 648 206 640 b 181 606 186 621 181 612 l 181 128 b 261 80 195 118 222 102 b 346 36 300 58 328 44 b 448 136 389 71 423 105 b 501 234 472 168 490 200 b 518 349 513 268 518 306 b 376 667 518 500 471 606 l 329 624 b 306 624 321 616 313 616 l 286 640 b 286 664 278 649 278 656 l 361 733 b 385 736 369 740 376 741 b 537 583 452 701 503 650 b 588 349 571 516 588 438 b 578 256 588 315 584 284 b 559 194 571 228 565 207 b 528 133 553 181 543 161 l 696 38 b 828 186 760 90 804 140 b 865 349 853 232 865 287 b 822 537 865 418 851 481 b 700 669 792 593 752 637 l 653 624 b 629 624 645 616 638 616 l 611 640 b 611 664 603 649 603 656 l 686 733 "},"x":{"ha":588,"x_min":0,"x_max":0,"o":"m 514 108 b 538 108 521 116 529 116 l 561 89 b 561 65 569 81 569 74 l 467 -31 b 443 -33 459 -38 451 -39 b 293 138 372 19 322 76 b 144 -33 264 76 215 19 b 121 -31 136 -39 128 -38 l 25 65 b 26 89 17 74 17 81 l 50 108 b 74 108 58 116 66 116 l 138 43 b 230 160 180 79 211 118 b 258 306 249 203 258 251 l 258 357 l 154 357 b 138 374 143 357 138 363 l 138 400 b 154 417 138 411 143 417 l 254 417 b 237 515 251 455 246 488 b 201 588 228 543 216 567 b 143 650 187 609 167 630 l 74 581 b 50 579 66 573 58 573 l 26 600 b 25 624 17 607 17 615 l 125 724 b 149 725 132 731 140 731 b 293 561 222 672 270 618 b 438 725 317 618 365 672 b 461 724 446 731 454 731 l 561 624 b 561 600 569 615 569 607 l 538 579 b 514 581 529 573 521 573 l 444 650 b 364 553 407 619 381 587 b 332 417 347 519 337 473 l 488 417 b 504 400 499 417 504 411 l 504 374 b 488 357 504 363 499 357 l 329 357 b 328 306 328 341 328 324 b 357 160 328 251 338 203 b 449 43 376 118 407 79 l 514 108 "},"y":{"ha":650,"x_min":0,"x_max":0,"o":"m 554 22 b 575 -75 568 -19 575 -51 b 492 -211 575 -130 547 -175 b 286 -265 437 -247 369 -265 b 135 -228 224 -265 174 -253 b 76 -132 96 -204 76 -172 b 99 -75 76 -110 84 -91 b 158 -43 115 -59 134 -49 b 178 -57 169 -40 176 -45 l 181 -83 b 167 -103 181 -93 177 -99 b 146 -132 153 -108 146 -118 b 183 -185 146 -154 158 -172 b 286 -206 208 -199 243 -206 b 443 -168 349 -206 401 -193 b 506 -75 485 -143 506 -112 b 489 3 506 -56 500 -31 b 469 82 478 36 471 63 l 299 -32 b 276 -31 291 -37 284 -36 l 103 96 b 97 118 94 102 92 110 b 111 147 106 131 111 141 l 111 638 l 92 661 l 50 621 b 26 621 43 613 35 613 l 14 632 b 13 656 6 639 5 647 l 90 732 b 114 733 98 740 106 741 l 188 668 b 189 644 196 661 196 653 b 181 625 183 639 181 632 l 181 117 l 289 38 l 468 156 l 468 646 l 454 667 b 456 690 450 675 450 683 l 490 735 b 514 735 499 745 506 745 l 550 689 b 551 667 556 681 557 674 l 538 646 l 538 94 b 554 22 538 78 544 54 "},"z":{"ha":633,"x_min":0,"x_max":0,"o":"m 571 107 b 594 108 578 114 586 115 l 619 89 b 621 65 629 81 629 74 l 543 -18 b 524 -29 538 -25 531 -28 b 472 -33 506 -32 489 -33 b 392 -22 445 -33 419 -29 b 331 1 366 -14 346 -6 b 276 32 317 8 299 18 b 183 71 232 58 201 71 b 79 -4 154 71 119 46 b 56 -10 73 -13 65 -15 l 28 8 b 24 32 19 15 17 23 l 265 357 l 160 357 b 143 374 149 357 143 363 l 143 400 b 160 417 143 411 149 417 l 310 417 l 463 621 b 360 646 438 621 404 629 b 225 676 303 666 258 676 b 157 667 203 676 180 673 l 76 585 b 53 583 68 577 60 577 l 28 604 b 28 628 19 612 19 619 l 110 710 b 128 721 114 715 120 719 b 225 736 159 731 192 736 b 383 701 268 736 320 725 b 467 681 423 688 451 681 b 538 722 491 681 514 694 b 561 726 544 731 552 732 l 588 708 b 593 685 598 702 600 694 l 393 417 l 493 417 b 510 400 504 417 510 411 l 510 374 b 493 357 510 363 504 357 l 349 357 l 179 131 l 183 131 b 311 83 215 131 257 115 b 362 54 332 70 349 61 b 411 35 374 48 391 41 b 472 26 431 29 452 26 b 497 28 481 26 489 27 l 571 107 "},"{":{"ha":408,"x_min":0,"x_max":0,"o":"m 247 551 b 220 478 247 526 238 502 b 126 383 202 454 171 422 b 247 226 207 325 247 273 l 247 -71 b 271 -172 247 -111 255 -144 b 328 -212 287 -199 306 -212 l 363 -212 b 379 -229 374 -212 379 -218 l 379 -256 b 363 -272 379 -267 374 -272 l 328 -272 b 220 -215 284 -272 248 -253 b 178 -71 192 -176 178 -128 l 178 226 b 44 369 178 259 133 306 b 42 394 33 378 32 386 l 51 401 b 79 426 52 403 62 412 b 156 501 115 458 141 483 b 178 551 170 520 178 537 l 178 810 b 180 867 178 832 178 851 b 191 921 181 884 185 901 b 216 969 197 940 205 956 b 263 1001 227 981 242 992 b 335 1014 283 1009 307 1014 l 364 1014 b 381 997 375 1014 381 1008 l 381 971 b 364 954 381 960 375 954 l 335 954 b 263 921 297 954 273 943 b 247 810 252 899 247 862 l 247 551 "},"|":{"ha":264,"x_min":0,"x_max":0,"o":"m 114 -276 b 97 -260 103 -276 97 -271 l 97 1093 b 114 1110 97 1104 103 1110 l 150 1110 b 167 1093 161 1110 167 1104 l 167 -260 b 150 -276 167 -271 161 -276 l 114 -276 "},"}":{"ha":408,"x_min":0,"x_max":0,"o":"m 367 394 b 364 369 376 386 375 378 b 231 226 275 306 231 259 l 231 -71 b 188 -215 231 -128 216 -176 b 81 -272 160 -253 124 -272 l 46 -272 b 29 -256 35 -272 29 -267 l 29 -229 b 46 -212 29 -218 35 -212 l 81 -212 b 138 -172 103 -212 122 -199 b 161 -71 153 -144 161 -111 l 161 226 b 281 383 161 273 201 325 b 188 478 236 422 205 454 b 161 551 170 502 161 526 l 161 810 b 146 921 161 862 156 899 b 74 954 136 943 112 954 l 44 954 b 28 971 33 954 28 960 l 28 997 b 44 1014 28 1008 33 1014 l 74 1014 b 146 1001 101 1014 125 1009 b 192 969 166 992 182 981 b 217 921 203 956 211 940 b 228 867 223 901 227 884 b 231 810 230 851 231 832 l 231 551 b 252 501 231 537 238 520 b 329 426 266 483 292 458 b 357 401 347 412 356 403 "},"~":{"ha":817,"x_min":0,"x_max":0,"o":"m 556 367 b 485 379 531 367 508 371 b 432 403 462 388 444 395 b 385 435 420 410 404 421 b 347 463 368 448 355 457 b 313 478 338 468 327 473 b 272 486 300 484 286 486 b 121 392 219 486 168 455 b 99 388 115 383 108 382 l 71 406 b 65 428 61 411 59 419 b 272 546 125 506 194 546 b 335 535 294 546 315 542 b 383 513 356 527 372 520 b 426 483 394 506 409 496 b 467 453 444 469 458 459 b 506 435 477 447 490 441 b 556 426 522 429 539 426 b 693 519 606 426 652 457 b 717 525 700 528 707 530 l 746 508 b 749 482 756 503 757 494 b 556 367 695 405 631 367 "},"":{"ha":292,"x_min":0,"x_max":0,"o":"m 160 643 b 136 643 152 632 144 632 l 96 699 b 96 722 90 707 90 715 l 136 778 b 160 778 144 789 152 789 l 199 722 b 199 699 204 715 204 707 l 160 643 m 125 -243 b 103 -247 119 -252 112 -254 l 75 -229 b 71 -206 66 -223 64 -215 b 102 -126 86 -183 96 -157 b 111 3 108 -95 111 -52 l 111 563 b 128 579 111 574 117 579 l 164 579 b 181 563 175 579 181 574 l 181 3 b 168 -144 181 -58 176 -107 b 125 -243 160 -181 145 -214 "},"":{"ha":682,"x_min":0,"x_max":0,"o":"m 631 131 b 634 126 631 130 632 128 b 640 119 636 125 638 122 b 639 108 641 116 641 112 b 598 56 629 90 615 72 b 540 12 581 39 562 24 b 472 -19 519 -1 496 -11 b 400 -32 448 -27 424 -31 l 400 -110 b 383 -126 400 -121 394 -126 l 347 -126 b 331 -110 336 -126 331 -121 l 331 -28 b 190 38 279 -19 232 3 b 91 169 147 73 115 117 b 56 340 67 222 56 279 b 136 589 56 432 82 515 b 331 722 190 663 255 707 l 331 807 b 347 824 331 818 336 824 l 383 824 b 400 807 394 824 400 818 l 400 726 b 622 622 484 722 558 687 b 621 599 631 614 630 606 l 596 579 b 572 581 588 573 580 573 b 527 622 556 597 541 611 b 472 651 513 633 494 643 b 400 667 450 660 426 665 l 400 28 b 503 62 435 31 469 42 b 576 133 536 82 561 106 b 597 142 581 143 588 145 l 631 131 m 125 340 b 183 142 125 265 144 199 b 331 33 222 85 271 49 l 331 661 b 185 543 274 644 226 605 b 125 340 145 481 125 413 "},"":{"ha":810,"x_min":0,"x_max":0,"o":"m 694 143 b 718 140 703 150 711 149 l 738 118 b 735 94 745 109 744 101 l 540 -51 b 518 -53 534 -56 526 -56 l 229 94 b 106 43 191 60 150 43 b 69 47 92 43 80 44 b 47 58 59 50 52 54 b 36 74 41 63 38 68 b 36 90 34 79 34 85 b 44 106 38 96 41 101 b 58 115 49 111 54 114 b 72 113 63 116 67 116 b 88 106 76 111 81 109 b 106 103 94 104 100 103 b 208 166 143 103 177 124 b 254 306 239 208 254 255 b 221 457 254 359 243 410 l 86 457 b 69 474 75 457 69 463 l 69 500 b 86 517 69 511 75 517 l 186 517 b 122 599 173 536 152 563 b 86 644 106 618 94 633 b 57 686 78 654 68 669 b 33 737 46 704 38 721 b 25 785 28 753 25 769 b 135 959 25 857 62 915 b 425 1025 209 1003 306 1025 b 701 960 540 1025 632 1003 b 806 786 771 917 806 859 b 785 706 806 761 799 734 b 744 639 771 678 757 656 b 688 571 731 622 713 600 b 608 467 649 526 622 492 b 586 396 593 442 586 418 b 599 356 586 381 591 368 b 629 339 608 345 618 339 b 668 357 641 339 654 345 b 693 356 677 363 686 363 l 715 335 b 714 311 724 326 723 319 b 629 279 686 290 658 279 b 550 314 599 279 572 291 b 517 396 528 337 517 364 b 537 474 517 420 523 446 b 577 542 550 503 564 525 b 635 610 591 558 610 581 b 715 714 674 654 700 689 b 736 786 729 739 736 763 b 722 847 736 808 731 829 b 682 897 713 866 700 882 b 618 935 664 912 643 925 b 531 958 593 945 564 953 b 425 965 498 963 463 965 b 185 916 325 965 245 949 b 94 785 125 883 94 839 b 111 725 94 765 100 745 b 176 636 122 705 144 675 b 264 517 216 587 245 547 l 378 517 b 394 500 389 517 394 511 l 394 474 b 378 457 394 463 389 457 l 293 457 b 324 306 313 409 324 358 b 272 142 324 246 306 192 l 522 14 "},"":{"ha":943,"x_min":0,"x_max":0,"o":"m 878 496 b 754 208 878 383 837 287 l 875 64 b 872 40 882 56 881 48 l 846 22 b 822 25 838 16 830 17 l 704 167 b 472 94 635 119 557 94 b 239 167 386 94 308 119 l 121 25 b 97 22 113 17 106 16 l 71 40 b 68 64 62 48 61 56 l 188 208 b 65 496 106 287 65 383 b 188 783 65 609 106 705 l 68 928 b 71 951 61 936 62 944 l 97 969 b 121 967 106 976 113 975 l 239 825 b 471 897 308 873 386 897 b 704 825 556 897 634 873 l 822 967 b 846 969 830 975 838 976 l 872 951 b 875 928 881 944 882 936 l 754 783 b 878 496 837 705 878 609 m 135 496 b 233 254 135 401 168 321 b 471 154 299 188 378 154 b 709 254 563 154 643 188 b 808 496 775 321 808 401 b 709 738 808 590 775 671 b 471 838 643 804 563 838 b 233 738 378 838 299 804 b 135 496 168 671 135 590 "},"":{"ha":732,"x_min":0,"x_max":0,"o":"m 689 1015 b 696 993 699 1011 701 1003 l 507 667 l 649 667 b 665 650 660 667 665 661 l 665 624 b 649 607 665 613 660 607 l 474 607 l 401 482 l 401 438 l 642 438 b 658 421 653 438 658 432 l 658 394 b 642 378 658 383 653 378 l 401 378 l 401 17 b 385 0 401 6 396 0 l 349 0 b 332 17 338 0 332 6 l 332 378 l 90 378 b 74 394 79 378 74 383 l 74 421 b 90 438 74 432 79 438 l 332 438 l 332 482 l 260 607 l 97 607 b 81 624 86 607 81 613 l 81 650 b 97 667 81 661 86 667 l 225 667 l 36 993 b 43 1015 31 1003 33 1011 l 74 1031 b 96 1024 83 1035 90 1033 l 367 556 l 636 1024 b 658 1031 642 1033 649 1035 l 689 1015 "},"":{"ha":264,"x_min":0,"x_max":0,"o":"m 114 540 b 97 557 103 540 97 546 l 97 1093 b 114 1110 97 1104 103 1110 l 150 1110 b 167 1093 161 1110 167 1104 l 167 557 b 150 540 167 546 161 540 l 114 540 m 114 -276 b 97 -260 103 -276 97 -271 l 97 276 b 114 293 97 288 103 293 l 150 293 b 167 276 161 293 167 288 l 167 -260 b 150 -276 167 -271 161 -276 l 114 -276 "},"":{"ha":831,"x_min":0,"x_max":0,"o":"m 678 150 b 756 -31 730 99 756 39 b 645 -210 756 -100 719 -160 b 379 -285 572 -260 483 -285 b 140 -204 286 -285 206 -258 b 42 -8 75 -150 42 -85 b 97 126 42 49 60 94 b 169 139 126 153 150 157 l 176 129 b 181 95 185 117 186 106 b 156 72 175 84 167 77 b 125 42 146 66 135 57 b 111 -8 115 28 110 11 b 189 -162 111 -69 137 -120 b 379 -225 241 -204 304 -225 b 596 -167 463 -225 536 -206 b 686 -31 656 -129 686 -83 b 678 26 686 -10 683 9 b 658 73 672 44 666 59 b 624 113 650 86 638 100 b 583 147 609 127 595 138 b 533 177 571 155 555 166 b 483 203 512 189 495 197 b 428 228 470 208 452 217 l 394 243 l 354 261 b 307 281 334 269 318 276 b 260 304 296 286 280 294 b 213 331 241 314 225 323 b 170 359 200 338 186 347 b 131 393 154 371 141 382 b 102 430 122 404 112 416 b 81 473 92 443 85 458 b 75 521 77 488 75 504 b 165 678 75 581 105 633 b 124 793 138 713 124 751 b 131 839 124 807 126 822 b 158 895 135 856 144 874 b 209 951 171 916 188 935 b 295 994 230 968 259 982 b 419 1011 332 1005 373 1011 b 622 959 500 1011 567 994 b 703 828 676 924 703 881 b 660 735 703 792 688 761 b 636 736 651 727 644 728 l 617 758 b 617 782 610 766 610 774 b 633 828 628 795 633 810 b 606 890 633 851 624 872 b 530 935 588 909 563 924 b 419 951 497 946 460 951 b 256 907 352 951 297 937 b 193 793 214 877 193 839 b 257 678 193 750 214 712 b 457 581 300 644 366 611 b 544 549 490 569 519 559 b 627 510 568 540 596 526 b 703 459 658 493 684 476 b 754 396 723 442 740 421 b 775 317 768 371 775 344 b 678 150 775 256 743 201 m 456 282 b 628 192 534 247 592 217 b 706 317 680 231 706 272 b 642 426 706 357 684 394 b 435 524 600 459 531 491 b 211 633 337 557 262 594 b 144 521 167 602 144 564 b 159 465 144 501 149 483 b 192 421 169 448 180 433 b 249 381 205 409 224 396 b 310 348 274 367 294 356 b 382 315 327 340 350 329 l 422 297 "},"":{"ha":456,"x_min":0,"x_max":0,"o":"m 138 800 b 114 800 129 794 121 794 l 58 839 b 58 863 47 846 47 854 l 114 903 b 138 903 121 908 129 908 l 193 863 b 193 839 204 854 204 846 l 138 800 m 342 800 b 319 800 334 794 327 794 l 264 839 b 263 863 253 846 252 854 l 319 903 b 342 903 327 908 334 908 l 399 863 b 399 839 409 854 409 846 l 342 800 "},"":{"ha":1128,"x_min":0,"x_max":0,"o":"m 565 -33 b 309 34 472 -33 387 -11 b 124 217 231 79 169 140 b 56 470 78 295 56 379 b 124 724 56 561 78 646 b 309 907 169 801 231 863 b 565 974 387 951 472 974 b 819 907 657 974 742 951 b 1004 724 897 863 959 801 b 1072 470 1050 646 1072 561 b 1004 217 1072 379 1050 295 b 819 34 959 140 897 79 b 565 -33 742 -11 657 -33 m 564 26 b 785 86 644 26 717 46 b 944 248 852 126 906 180 b 1003 471 983 316 1003 390 b 944 694 1003 551 983 626 b 785 856 906 762 852 816 b 564 915 717 895 644 915 b 344 856 484 915 411 895 b 184 694 277 816 223 762 b 125 471 145 626 125 551 b 184 248 125 390 145 316 b 344 86 223 180 277 126 b 564 26 411 46 484 26 m 563 124 b 348 220 475 124 404 156 b 264 465 292 284 264 366 b 349 710 264 562 292 643 b 557 811 405 778 475 811 b 772 719 640 811 712 781 b 761 707 774 719 770 714 l 726 675 l 724 678 b 557 751 675 727 619 751 b 399 668 495 751 442 724 b 333 465 355 613 333 545 b 363 319 333 411 343 362 b 444 219 382 276 409 242 b 563 183 478 195 518 183 b 642 199 591 183 618 189 b 694 229 667 210 684 220 b 729 265 705 238 716 250 b 750 265 738 269 744 269 l 788 235 l 786 232 l 781 226 b 563 124 721 158 649 124 "},"":{"ha":528,"x_min":0,"x_max":0,"o":"m 442 508 b 464 508 449 516 456 516 l 488 488 b 488 464 496 479 496 471 l 443 424 b 419 422 436 416 428 416 l 364 472 b 354 492 357 478 354 484 l 354 496 l 235 421 b 211 421 227 416 219 416 b 146 465 186 436 164 450 b 98 513 127 480 111 496 b 65 566 84 529 74 547 b 47 627 57 585 51 605 b 42 701 44 649 42 674 b 107 885 42 765 63 826 b 272 1010 150 943 206 985 b 296 1008 281 1013 288 1013 l 414 932 b 424 911 420 926 424 919 l 424 504 l 431 499 l 442 508 m 354 569 l 354 894 l 276 946 b 158 842 229 923 190 888 b 111 701 127 795 111 749 b 135 575 111 649 119 606 b 222 488 152 544 181 514 "},"":{"ha":461,"x_min":0,"x_max":0,"o":"m 193 232 b 169 238 184 226 176 228 l 36 438 b 36 461 31 445 31 453 l 169 654 b 193 660 176 663 184 665 l 221 643 b 226 619 231 637 233 629 l 108 449 l 226 272 b 222 249 233 262 231 254 l 193 232 m 389 232 b 367 238 380 226 372 228 l 232 438 b 232 461 226 445 226 453 l 367 654 b 389 660 373 663 381 665 l 418 643 b 424 619 428 637 430 629 l 304 449 l 424 272 b 418 249 430 262 428 254 l 389 232 "},"":{"ha":732,"x_min":0,"x_max":0,"o":"m 624 283 b 607 300 613 283 607 289 l 607 458 l 72 458 b 56 475 61 458 56 464 l 56 501 b 72 518 56 513 61 518 l 660 518 b 676 501 671 518 676 513 l 676 300 b 660 283 676 289 671 283 l 624 283 "},"":{"ha":519,"x_min":0,"x_max":0,"o":"m 357 431 b 335 428 350 425 343 424 l 181 490 l 119 440 b 96 442 111 434 103 434 l 75 464 b 76 488 67 472 67 480 l 157 554 b 179 557 163 560 171 561 l 333 494 l 401 549 b 425 547 410 555 418 555 l 446 525 b 444 501 453 517 453 509 l 357 431 "},"":{"ha":1128,"x_min":0,"x_max":0,"o":"m 565 975 b 819 908 657 975 742 953 b 1004 724 897 863 959 801 b 1072 470 1050 646 1072 561 b 1004 217 1072 379 1050 295 b 819 34 959 140 897 79 b 565 -33 742 -11 657 -33 b 309 34 472 -33 387 -11 b 124 217 231 79 169 140 b 56 470 78 295 56 379 b 124 724 56 561 78 646 b 309 908 169 801 231 863 b 565 975 387 953 472 975 m 564 26 b 785 86 644 26 717 46 b 944 248 852 126 906 180 b 1003 471 983 316 1003 390 b 944 694 1003 551 983 626 b 785 856 906 762 852 816 b 564 915 717 895 644 915 b 344 856 484 915 411 895 b 184 694 277 816 223 762 b 125 471 145 626 125 551 b 184 248 125 390 145 316 b 344 86 223 180 277 126 b 564 26 411 46 484 26 m 782 613 b 679 449 782 534 748 479 l 792 190 b 782 168 796 179 793 172 l 750 156 b 728 165 740 152 732 155 l 613 431 b 565 428 598 429 582 428 l 478 428 l 478 179 b 461 163 478 168 472 163 l 425 163 b 408 179 414 163 408 168 l 408 774 b 425 790 408 785 414 790 l 578 790 b 728 744 642 790 692 775 b 782 613 764 713 782 669 m 565 488 b 675 519 613 488 650 498 b 713 613 700 541 713 572 b 578 731 713 691 668 731 l 478 731 l 478 488 "},"":{"ha":436,"x_min":0,"x_max":0,"o":"m 72 868 b 56 885 61 868 56 874 l 56 911 b 72 928 56 922 61 928 l 364 928 b 381 911 375 928 381 922 l 381 885 b 364 868 381 874 375 868 l 72 868 "},"":{"ha":501,"x_min":0,"x_max":0,"o":"m 251 610 b 103 669 193 610 144 630 b 42 814 62 709 42 757 b 103 958 42 870 62 919 b 250 1018 144 998 193 1018 b 356 991 288 1018 323 1009 b 432 917 388 973 413 948 b 460 814 450 885 460 851 b 399 669 460 757 439 709 b 251 610 358 630 309 610 m 251 669 b 349 712 289 669 322 684 b 390 814 377 740 390 774 b 372 886 390 840 384 864 b 321 939 359 908 342 926 b 250 958 300 952 276 958 b 152 916 212 958 179 944 b 111 814 125 888 111 854 b 152 712 111 774 125 740 b 251 669 179 684 212 669 "},"":{"ha":708,"x_min":0,"x_max":0,"o":"m 325 157 b 308 174 314 157 308 163 l 308 394 l 72 394 b 56 411 61 394 56 400 l 56 438 b 72 454 56 449 61 454 l 308 454 l 308 679 b 325 696 308 690 314 696 l 361 696 b 378 679 372 696 378 690 l 378 454 l 624 454 b 640 438 635 454 640 449 l 640 411 b 624 394 640 400 635 394 l 378 394 l 378 174 b 361 157 378 163 372 157 l 325 157 m 71 43 b 88 60 71 54 76 60 l 636 60 b 653 43 647 60 653 54 l 653 17 b 636 0 653 6 647 0 l 88 0 b 71 17 76 0 71 6 l 71 43 "},"":{"ha":481,"x_min":0,"x_max":0,"o":"m 96 421 b 91 422 95 421 93 421 b 83 428 89 423 86 425 b 78 436 81 431 79 433 b 86 510 76 461 79 486 b 124 584 94 535 106 559 b 171 644 142 609 158 628 b 228 706 184 659 203 680 b 240 717 233 711 238 715 b 326 817 282 761 310 794 b 349 878 341 839 349 859 b 320 943 349 904 339 925 b 247 969 301 961 277 969 b 167 938 218 969 191 959 b 132 868 144 917 132 894 b 151 831 132 851 138 839 b 160 808 161 824 163 817 l 149 782 b 128 772 145 771 138 768 b 63 867 85 793 63 824 b 117 980 62 909 80 947 b 247 1029 155 1013 198 1029 b 369 985 295 1029 336 1015 b 418 878 402 956 418 920 b 397 807 418 856 411 833 b 353 744 382 781 368 760 b 290 676 339 728 318 705 b 264 649 288 674 279 665 b 236 620 249 634 240 624 b 213 594 232 616 225 607 b 190 566 202 581 194 572 b 173 540 185 560 180 551 b 158 510 166 529 161 519 b 150 481 154 500 152 491 l 400 481 b 417 464 411 481 417 475 l 417 438 b 400 421 417 426 411 421 l 96 421 "},"":{"ha":525,"x_min":0,"x_max":0,"o":"m 297 803 b 416 746 345 800 385 781 b 463 618 447 711 463 668 b 401 472 463 562 442 513 b 256 410 361 430 312 410 b 203 416 237 410 220 412 b 158 434 187 420 172 426 b 121 463 144 442 132 451 b 92 500 110 474 100 486 b 72 547 83 514 77 529 b 63 601 68 564 64 582 b 79 618 63 613 68 618 l 115 618 b 132 601 126 618 132 613 b 151 531 134 575 140 551 b 193 485 161 511 175 496 b 256 469 211 475 231 469 b 352 513 293 469 325 484 b 393 618 379 542 393 577 b 363 708 393 654 383 684 b 286 743 342 731 317 743 b 254 739 276 743 265 742 b 232 744 245 736 238 738 l 211 768 b 208 792 204 775 203 783 l 324 958 l 117 958 b 100 975 106 958 100 964 l 100 1001 b 117 1018 100 1013 106 1018 l 422 1018 b 435 1012 429 1018 433 1016 b 432 997 438 1008 437 1003 l 297 803 "},"":{"ha":335,"x_min":0,"x_max":0,"o":"m 193 782 b 171 776 188 774 180 772 l 151 788 b 144 811 141 793 139 801 l 235 961 b 258 967 240 970 248 972 l 286 950 b 292 928 296 944 298 937 l 193 782 "},"":{"ha":700,"x_min":0,"x_max":0,"o":"m 314 -183 b 297 -167 303 -183 297 -178 l 297 493 b 117 568 227 493 167 518 b 42 749 67 618 42 678 b 117 929 42 819 67 879 b 297 1004 167 979 227 1004 l 586 1004 b 603 988 597 1004 603 999 l 603 -167 b 586 -183 603 -178 597 -183 l 550 -183 b 533 -167 539 -183 533 -178 l 533 944 l 367 944 l 367 -167 b 350 -183 367 -178 361 -183 l 314 -183 "},"":{"ha":267,"x_min":0,"x_max":0,"o":"m 133 407 b 78 429 112 407 94 414 b 56 484 63 444 56 462 b 78 540 56 506 63 524 b 133 563 94 555 112 563 b 188 540 155 563 173 555 b 211 484 203 524 211 506 b 188 429 211 462 203 444 b 133 407 173 414 155 407 "},"":{"ha":328,"x_min":0,"x_max":0,"o":"m 165 -65 b 200 -70 177 -65 189 -67 b 230 -83 211 -73 221 -78 b 253 -103 239 -89 246 -96 b 267 -130 259 -111 264 -120 b 272 -160 271 -140 272 -150 b 238 -234 272 -190 261 -215 b 147 -262 214 -253 184 -262 b 72 -249 122 -262 97 -258 b 64 -226 61 -244 58 -237 l 78 -201 b 100 -194 82 -193 90 -191 b 147 -203 116 -200 131 -203 b 203 -160 184 -203 203 -188 b 192 -135 203 -150 199 -141 b 163 -125 184 -128 175 -125 b 139 -129 153 -125 145 -126 b 117 -131 131 -134 123 -134 l 86 -111 b 79 -89 77 -106 75 -98 l 115 -12 b 135 0 119 -4 125 0 l 175 0 b 187 -6 181 0 184 -2 b 186 -19 189 -9 189 -14 l 165 -65 "},"":{"ha":329,"x_min":0,"x_max":0,"o":"m 197 1015 b 219 1021 204 1022 211 1024 l 253 1008 b 267 990 262 1006 267 1000 l 267 438 b 250 421 267 426 261 421 l 214 421 b 197 438 203 421 197 426 l 197 922 b 115 851 168 894 140 870 b 92 854 107 845 99 846 l 74 878 b 76 900 66 886 67 894 b 182 999 101 919 137 952 l 197 1015 "},"":{"ha":483,"x_min":0,"x_max":0,"o":"m 244 418 b 222 415 237 412 230 411 l 53 510 b 42 529 45 514 42 521 l 42 900 b 53 921 42 909 45 916 l 192 1010 b 215 1011 199 1014 207 1015 b 370 883 280 981 332 938 b 428 708 409 829 428 770 b 414 616 428 675 423 644 b 370 537 405 588 390 561 b 315 476 350 512 332 492 b 244 418 297 461 274 441 m 226 485 b 326 588 271 521 304 555 b 358 708 347 620 358 660 b 317 843 358 756 345 800 b 208 946 290 886 254 920 l 111 883 l 111 549 l 226 485 "},"":{"ha":461,"x_min":0,"x_max":0,"o":"m 94 238 b 71 232 89 228 81 226 l 43 249 b 38 271 33 254 31 262 l 156 449 l 38 619 b 43 642 31 629 33 636 l 71 660 b 94 654 80 665 88 663 l 229 460 b 229 438 234 452 234 445 l 94 238 m 290 238 b 268 232 285 228 277 226 l 239 249 b 233 271 229 254 227 262 l 353 449 l 235 619 b 239 642 228 629 230 636 l 268 660 b 290 654 277 665 285 663 l 425 460 b 425 438 431 452 431 445 l 290 238 "},"":{"ha":1085,"x_min":0,"x_max":0,"o":"m 689 1013 b 711 1019 694 1022 701 1024 l 742 1006 b 750 983 752 1001 755 994 l 218 3 b 196 -6 213 -7 206 -10 l 165 10 b 158 32 155 14 153 22 l 689 1013 m 221 421 b 204 438 210 421 204 426 l 204 922 b 122 851 175 894 147 870 b 99 854 114 845 106 846 l 81 878 b 83 900 73 886 74 894 b 189 999 108 919 144 952 l 204 1015 b 226 1021 211 1022 218 1024 l 260 1008 b 274 990 269 1006 274 1000 l 274 438 b 257 421 274 426 268 421 l 221 421 m 850 401 b 969 345 898 399 938 380 b 1015 217 1000 310 1015 268 b 988 113 1015 180 1006 145 b 912 38 969 81 944 56 b 808 10 880 19 845 10 b 712 33 772 10 740 17 b 644 99 684 48 661 70 b 615 200 628 128 618 162 b 632 217 615 211 621 217 l 668 217 b 685 200 679 217 685 211 b 722 104 688 159 700 127 b 808 69 743 81 772 69 b 905 113 845 69 878 84 b 946 217 932 142 946 177 b 915 307 946 253 936 283 b 839 343 895 331 869 343 b 807 339 829 343 818 342 b 785 344 798 336 790 338 l 764 368 b 761 392 756 375 756 383 l 876 557 l 669 557 b 653 574 658 557 653 563 l 653 600 b 669 617 653 611 658 617 l 975 617 b 988 610 981 617 986 615 b 985 596 991 606 989 601 l 850 401 "},"":{"ha":1032,"x_min":0,"x_max":0,"o":"m 689 1013 b 711 1019 694 1022 702 1024 l 742 1006 b 750 983 753 1001 756 994 l 219 3 b 197 -6 214 -7 206 -10 l 165 10 b 158 32 155 14 153 22 l 689 1013 m 221 421 b 204 438 210 421 204 426 l 204 922 b 122 851 175 894 147 870 b 99 854 114 845 106 846 l 81 878 b 83 900 73 886 74 894 b 189 999 108 919 144 952 l 204 1015 b 226 1021 211 1022 218 1024 l 260 1008 b 274 990 269 1006 274 1000 l 274 438 b 257 421 274 426 268 421 l 221 421 m 835 263 b 786 211 813 240 797 223 b 747 165 775 199 762 184 b 712 111 731 146 720 128 b 694 60 704 94 698 77 l 944 60 b 961 43 956 60 961 54 l 961 17 b 944 0 961 6 956 0 l 640 0 b 622 15 629 0 623 5 b 631 82 621 37 624 59 b 653 142 637 105 645 125 b 693 202 662 159 675 179 b 736 254 711 225 725 242 b 785 304 747 266 763 283 b 870 403 826 348 855 381 b 893 464 885 425 893 445 b 865 530 893 490 884 512 b 792 557 846 548 821 557 b 712 525 762 557 735 546 b 676 454 688 504 676 480 b 696 417 676 438 683 425 b 704 394 705 410 708 403 l 693 368 b 672 360 689 358 682 355 b 608 453 630 379 608 410 b 663 567 607 497 625 534 b 792 617 700 600 743 617 b 878 597 823 617 852 610 b 940 541 905 583 925 565 b 963 464 955 517 963 492 b 941 393 963 443 955 419 b 898 330 927 367 912 346 b 835 263 884 314 863 291 "},"":{"ha":1129,"x_min":0,"x_max":0,"o":"m 824 1013 b 846 1019 828 1022 836 1024 l 876 1006 b 883 983 887 1001 889 994 l 353 3 b 331 -6 348 -7 341 -10 l 300 10 b 293 32 290 14 288 22 l 824 1013 m 469 618 b 408 472 469 562 449 513 b 263 410 368 430 319 410 b 210 416 244 410 227 412 b 165 434 194 420 179 426 b 128 463 151 442 139 451 b 99 500 117 474 107 486 b 79 547 90 514 84 529 b 69 601 75 564 71 582 b 86 618 69 613 75 618 l 122 618 b 139 601 133 618 139 613 b 158 531 141 575 147 551 b 200 485 168 511 182 496 b 263 469 218 475 238 469 b 359 513 300 469 332 484 b 400 618 386 542 400 577 b 369 708 400 654 390 684 b 293 743 349 731 324 743 b 261 739 283 743 272 742 b 239 744 252 736 244 738 l 218 768 b 215 792 211 775 210 783 l 331 958 l 124 958 b 107 975 113 958 107 964 l 107 1001 b 124 1018 107 1013 113 1018 l 429 1018 b 442 1012 436 1018 440 1016 b 439 997 445 1008 444 1003 l 304 803 b 423 746 352 800 392 781 b 469 618 454 711 469 668 m 1043 229 b 1060 213 1054 229 1060 224 l 1060 186 b 1043 169 1060 175 1054 169 l 963 169 l 963 17 b 946 0 963 6 957 0 l 910 0 b 893 17 899 0 893 6 l 893 169 l 650 169 b 636 189 636 169 631 176 l 814 621 b 836 631 819 631 826 634 l 868 619 b 878 597 879 616 882 608 l 726 229 l 893 229 l 893 357 b 910 374 893 368 899 374 l 946 374 b 963 357 957 374 963 368 l 963 229 l 1043 229 "},"":{"ha":660,"x_min":0,"x_max":0,"o":"m 354 757 b 378 757 363 767 370 767 l 418 700 b 418 678 424 693 424 685 l 378 622 b 354 622 370 611 363 611 l 314 678 b 314 700 308 685 308 693 l 354 757 m 386 557 b 391 556 387 557 389 556 b 399 550 393 555 396 553 b 403 540 401 547 403 544 b 388 442 402 505 397 472 b 360 366 379 411 370 386 b 317 304 351 346 336 325 b 272 257 298 283 283 267 b 224 217 261 247 245 233 b 177 178 202 200 187 187 b 144 141 167 169 156 156 b 118 92 131 126 123 109 b 111 33 113 75 111 56 b 177 -126 111 -30 133 -83 b 338 -192 221 -170 275 -192 b 488 -142 398 -192 448 -175 b 549 -15 528 -108 549 -66 b 468 99 549 61 522 99 b 447 97 462 99 455 98 b 426 106 437 94 430 97 l 414 132 b 424 153 408 143 412 150 b 468 158 438 156 453 158 b 578 112 514 158 551 143 b 618 -15 605 81 618 38 b 537 -183 618 -82 591 -138 b 338 -251 483 -229 416 -251 b 128 -168 256 -251 186 -224 b 42 33 71 -112 42 -45 b 47 88 42 53 43 71 b 63 134 50 104 55 120 b 85 172 71 148 78 161 b 115 206 92 182 102 194 b 147 235 128 219 139 228 b 181 264 154 242 166 252 b 238 313 206 284 225 300 b 283 365 250 325 266 342 b 320 442 300 387 312 413 b 333 540 328 470 332 503 b 350 557 333 551 339 557 l 386 557 "},"":{"ha":1050,"x_min":0,"x_max":0,"o":"m 663 1090 b 657 1068 668 1081 666 1074 l 638 1057 b 614 1063 628 1051 620 1053 l 515 1207 b 521 1231 509 1217 511 1225 l 550 1246 b 572 1240 559 1251 567 1250 l 663 1090 m 1028 83 b 1051 83 1035 91 1043 91 l 1072 61 b 1072 38 1081 53 1081 45 l 989 -35 b 965 -35 981 -41 974 -41 b 911 25 945 -17 927 3 b 872 101 895 47 882 73 b 847 180 862 130 853 156 b 830 272 840 203 834 234 b 821 360 826 309 823 339 b 815 454 819 382 817 413 l 814 471 l 414 347 b 373 231 397 298 384 259 b 338 142 362 203 351 173 b 305 72 326 111 315 88 b 272 25 295 56 284 41 b 233 -8 259 9 246 -2 b 188 -24 219 -15 204 -20 b 132 -31 172 -28 153 -31 b 27 11 90 -31 55 -17 b -15 113 -1 39 -15 73 b 31 238 -15 153 0 195 b 54 240 37 246 45 247 l 81 222 b 85 199 90 217 91 209 b 54 113 64 170 54 141 b 76 53 54 88 62 69 b 132 29 91 37 110 29 b 173 32 150 29 163 30 b 206 51 183 34 194 40 b 238 88 219 61 229 74 b 271 158 246 101 257 125 b 312 263 285 191 298 226 b 365 418 325 301 343 352 l 556 951 b 485 957 533 955 510 957 b 307 911 414 957 355 942 b 235 799 259 881 235 843 b 258 719 235 773 243 746 b 253 697 264 710 262 703 l 225 679 b 201 685 215 674 207 675 b 165 799 177 724 165 762 b 258 953 165 860 196 911 b 485 1017 320 996 396 1017 b 829 807 659 1017 774 947 b 883 478 856 740 874 631 b 885 458 883 473 884 467 b 893 333 888 404 890 362 b 907 228 896 305 900 269 b 935 121 913 186 923 150 b 981 43 947 91 962 65 l 1028 83 m 810 532 b 799 641 807 575 803 611 b 780 737 795 671 789 703 b 748 823 771 771 760 799 b 697 888 735 847 719 868 b 622 935 676 908 651 924 l 438 418 "},"":{"ha":1050,"x_min":0,"x_max":0,"o":"m 738 1228 b 743 1206 748 1222 750 1215 l 644 1060 b 621 1054 638 1051 630 1050 l 601 1065 b 596 1089 592 1071 590 1079 l 686 1239 b 708 1244 692 1248 699 1250 l 738 1228 m 1028 83 b 1051 83 1035 91 1043 91 l 1072 61 b 1072 38 1081 53 1081 45 l 989 -35 b 965 -35 981 -41 974 -41 b 911 25 945 -17 927 3 b 872 101 895 47 882 73 b 847 180 862 130 853 156 b 830 272 840 203 834 234 b 821 360 826 309 823 339 b 815 454 819 382 817 413 l 814 471 l 414 347 b 373 231 397 298 384 259 b 338 142 362 203 351 173 b 305 72 326 111 315 88 b 272 25 295 56 284 41 b 233 -8 259 9 246 -2 b 188 -24 219 -15 204 -20 b 132 -31 172 -28 153 -31 b 27 11 90 -31 55 -17 b -15 113 -1 39 -15 73 b 31 238 -15 153 0 195 b 54 240 37 246 45 247 l 81 222 b 85 199 90 217 91 209 b 54 113 64 170 54 141 b 76 53 54 88 62 69 b 132 29 91 37 110 29 b 173 32 150 29 163 30 b 206 51 183 34 194 40 b 238 88 219 61 229 74 b 271 158 246 101 257 125 b 312 263 285 191 298 226 b 365 418 325 301 343 352 l 556 951 b 485 957 533 955 510 957 b 385 944 450 957 416 953 b 306 910 354 936 328 925 b 254 860 284 896 267 879 b 235 799 241 840 235 820 b 258 719 235 773 243 746 b 253 697 264 710 262 703 l 225 679 b 201 685 215 674 207 675 b 165 799 177 724 165 762 b 258 953 165 860 196 911 b 485 1017 320 996 396 1017 b 829 807 659 1017 774 947 b 883 478 856 740 874 631 b 885 458 883 473 884 467 b 893 333 888 404 890 362 b 907 228 896 305 900 269 b 935 121 913 186 923 150 b 981 43 947 91 962 65 l 1028 83 m 810 532 b 795 667 806 586 801 631 b 767 780 789 704 780 741 b 711 876 754 818 735 850 b 622 935 687 901 657 921 l 438 418 "},"":{"ha":1050,"x_min":0,"x_max":0,"o":"m 526 1071 b 503 1067 520 1063 512 1061 l 475 1083 b 471 1107 466 1090 464 1098 l 567 1240 b 586 1250 571 1247 578 1250 l 643 1250 b 664 1240 651 1250 658 1247 l 764 1107 b 760 1083 771 1098 770 1090 l 732 1067 b 710 1071 724 1060 716 1062 l 615 1194 m 1028 83 b 1051 83 1035 91 1043 91 l 1072 61 b 1072 38 1081 53 1081 45 l 989 -35 b 965 -35 981 -41 974 -41 b 911 25 945 -17 927 3 b 872 101 895 47 882 73 b 847 180 862 130 853 156 b 830 272 840 203 834 234 b 821 360 826 309 823 339 b 815 454 819 382 817 413 l 814 471 l 414 347 b 373 231 397 298 384 259 b 338 142 362 203 351 173 b 305 72 326 111 315 88 b 272 25 295 56 284 41 b 233 -8 259 9 246 -2 b 188 -24 219 -15 204 -20 b 132 -31 172 -28 153 -31 b 27 11 90 -31 55 -17 b -15 113 -1 39 -15 73 b 31 238 -15 153 0 195 b 54 240 37 246 45 247 l 81 222 b 85 199 90 217 91 209 b 54 113 64 170 54 141 b 76 53 54 88 62 69 b 132 29 91 37 110 29 b 173 32 150 29 163 30 b 206 51 183 34 194 40 b 238 88 219 61 229 74 b 271 158 246 101 257 125 b 312 263 285 191 298 226 b 365 418 325 301 343 352 l 556 951 b 485 957 533 955 510 957 b 385 944 450 957 416 953 b 306 910 354 936 328 925 b 254 860 284 896 267 879 b 235 799 241 840 235 820 b 258 719 235 773 243 746 b 253 697 264 710 262 703 l 225 679 b 201 685 215 674 207 675 b 165 799 177 724 165 762 b 258 953 165 860 196 911 b 485 1017 320 996 396 1017 b 829 807 659 1017 774 947 b 883 478 856 740 874 631 b 885 458 883 473 884 467 b 893 333 888 404 890 362 b 907 228 896 305 900 269 b 935 121 913 186 923 150 b 981 43 947 91 962 65 l 1028 83 m 810 532 b 799 641 807 575 803 611 b 780 737 795 671 789 703 b 748 823 771 771 760 799 b 697 888 735 847 719 868 b 622 935 676 908 651 924 l 438 418 "},"":{"ha":1050,"x_min":0,"x_max":0,"o":"m 529 1139 b 488 1104 505 1139 491 1127 b 471 1088 487 1093 481 1088 l 435 1088 b 418 1104 423 1088 417 1093 b 453 1174 422 1134 433 1157 b 529 1199 472 1190 498 1199 b 631 1163 561 1199 594 1187 b 689 1138 655 1146 674 1138 b 742 1169 717 1138 734 1148 b 760 1185 745 1180 751 1185 l 796 1185 b 813 1168 809 1185 814 1179 b 771 1103 808 1142 794 1121 b 689 1078 748 1086 720 1078 b 592 1114 658 1078 626 1090 b 529 1139 566 1131 545 1139 m 1028 83 b 1051 83 1035 91 1043 91 l 1072 61 b 1072 38 1081 53 1081 45 l 989 -35 b 965 -35 981 -41 974 -41 b 911 25 945 -17 927 3 b 872 101 895 47 882 73 b 847 180 862 130 853 156 b 830 272 840 203 834 234 b 821 360 826 309 823 339 b 815 454 819 382 817 413 l 814 471 l 414 347 b 373 231 397 298 384 259 b 338 142 362 203 351 173 b 305 72 326 111 315 88 b 272 25 295 56 284 41 b 233 -8 259 9 246 -2 b 188 -24 219 -15 204 -20 b 132 -31 172 -28 153 -31 b 27 11 90 -31 55 -17 b -15 113 -1 39 -15 73 b 31 238 -15 153 0 195 b 54 240 37 246 45 247 l 81 222 b 85 199 90 217 91 209 b 54 113 64 170 54 141 b 76 53 54 88 62 69 b 132 29 91 37 110 29 b 173 32 150 29 163 30 b 206 51 183 34 194 40 b 238 88 219 61 229 74 b 271 158 246 101 257 125 b 312 263 285 191 298 226 b 365 418 325 301 343 352 l 556 951 b 485 957 533 955 510 957 b 358 936 438 957 396 950 b 267 878 319 922 289 903 b 235 799 246 854 235 827 b 258 719 235 773 243 746 b 253 697 264 710 262 703 l 225 679 b 201 685 215 674 207 675 b 165 799 177 724 165 762 b 258 953 165 860 196 911 b 485 1017 320 996 396 1017 b 829 807 659 1017 774 947 b 883 478 856 740 874 631 b 885 458 883 473 884 467 b 893 333 888 404 890 362 b 907 228 896 305 900 269 b 935 121 913 186 923 150 b 981 43 947 91 962 65 l 1028 83 m 810 532 b 801 624 807 567 804 598 b 788 706 799 650 794 677 b 766 783 782 735 775 761 b 733 846 757 804 746 825 b 686 899 720 866 705 884 b 622 935 668 913 646 925 l 438 418 "},"":{"ha":1050,"x_min":0,"x_max":0,"o":"m 579 1140 b 579 1117 589 1132 589 1124 l 522 1078 b 500 1078 515 1072 507 1072 l 443 1117 b 443 1140 433 1124 433 1132 l 499 1181 b 522 1181 507 1186 515 1186 l 579 1140 m 783 1140 b 783 1117 794 1132 794 1124 l 728 1078 b 704 1078 720 1072 713 1072 l 649 1117 b 649 1140 638 1124 638 1132 l 704 1181 b 728 1181 713 1186 720 1186 l 783 1140 m 1028 83 b 1051 83 1035 91 1043 91 l 1072 61 b 1072 38 1081 53 1081 45 l 989 -35 b 965 -35 981 -41 974 -41 b 911 25 945 -17 927 3 b 872 101 895 47 882 73 b 847 180 862 130 853 156 b 830 272 840 203 834 234 b 821 360 826 309 823 339 b 815 454 819 382 817 413 l 814 471 l 414 347 b 373 231 397 298 384 259 b 338 142 362 203 351 173 b 305 72 326 111 315 88 b 272 25 295 56 284 41 b 233 -8 259 9 246 -2 b 188 -24 219 -15 204 -20 b 132 -29 172 -27 153 -29 b 27 12 90 -29 55 -16 b -15 113 -1 39 -15 73 b 31 238 -15 153 0 195 b 54 240 37 246 45 247 l 81 222 b 85 199 90 217 91 209 b 54 113 64 170 54 141 b 76 54 54 89 62 70 b 132 31 91 38 110 31 b 173 33 150 31 163 31 b 206 51 183 34 194 40 b 238 88 219 61 229 74 b 271 158 246 101 257 125 b 312 263 285 191 298 226 b 365 418 325 301 343 352 l 556 951 b 485 957 533 955 510 957 b 307 911 414 957 355 942 b 235 799 259 881 235 843 b 258 719 235 773 243 746 b 253 697 264 710 262 703 l 225 679 b 201 685 215 674 207 675 b 165 799 177 724 165 762 b 258 953 165 860 196 911 b 485 1017 320 996 396 1017 b 829 808 659 1017 774 947 b 883 478 856 741 874 631 b 885 458 883 474 884 468 b 893 333 888 404 890 362 b 907 228 896 305 900 269 b 935 121 913 186 923 150 b 981 43 947 91 962 65 l 1028 83 m 810 532 b 795 667 806 586 801 631 b 767 780 789 704 780 741 b 711 876 754 818 735 850 b 622 935 687 901 657 921 l 438 418 "},"":{"ha":1050,"x_min":0,"x_max":0,"o":"m 615 1050 b 556 1065 594 1050 574 1055 b 513 1106 538 1074 524 1088 b 497 1163 503 1123 497 1142 b 532 1243 497 1194 509 1221 b 615 1276 555 1265 583 1276 b 674 1261 637 1276 656 1271 b 717 1219 692 1251 707 1237 b 733 1163 728 1202 733 1183 b 699 1083 733 1131 722 1104 b 615 1050 675 1061 648 1050 m 615 1217 b 590 1209 606 1217 598 1214 b 573 1190 583 1204 577 1197 b 567 1163 569 1182 567 1173 b 581 1125 567 1148 571 1135 b 615 1110 590 1115 601 1110 b 649 1125 628 1110 640 1115 b 664 1163 659 1135 664 1148 b 649 1201 664 1177 659 1190 b 615 1217 640 1211 628 1217 m 1028 83 b 1051 83 1035 91 1043 91 l 1072 61 b 1072 38 1081 53 1081 45 l 989 -35 b 965 -35 981 -41 974 -41 b 911 25 945 -17 927 3 b 872 101 895 47 882 73 b 847 180 862 130 853 156 b 830 272 840 203 834 234 b 821 360 826 309 823 339 b 815 454 819 382 817 413 l 814 471 l 414 347 b 373 231 397 298 384 259 b 338 142 362 203 351 173 b 305 72 326 111 315 88 b 272 25 295 56 284 41 b 233 -8 259 9 246 -2 b 188 -24 219 -15 204 -20 b 132 -31 172 -28 153 -31 b 27 11 90 -31 55 -17 b -15 113 -1 39 -15 73 b 31 238 -15 153 0 195 b 54 240 37 246 45 247 l 81 222 b 85 199 90 217 91 209 b 54 113 64 170 54 141 b 76 53 54 88 62 69 b 132 29 91 37 110 29 b 173 32 150 29 163 30 b 206 51 183 34 194 40 b 238 88 219 61 229 74 b 271 158 246 101 257 125 b 312 263 285 191 298 226 b 365 418 325 301 343 352 l 556 951 b 485 957 533 955 510 957 b 385 944 450 957 416 953 b 306 910 354 936 328 925 b 254 860 284 896 267 879 b 235 799 241 840 235 820 b 258 719 235 773 243 746 b 253 697 264 710 262 703 l 225 679 b 201 685 215 674 207 675 b 165 799 177 724 165 762 b 258 953 165 860 196 911 b 485 1017 320 996 396 1017 b 829 807 659 1017 774 947 b 883 478 856 740 874 631 b 885 458 883 473 884 467 b 893 333 888 404 890 362 b 907 228 896 305 900 269 b 935 121 913 186 923 150 b 981 43 947 91 962 65 l 1028 83 m 810 532 b 799 641 807 575 803 611 b 780 737 795 671 789 703 b 748 823 771 771 760 799 b 697 888 735 847 719 868 b 622 935 676 908 651 924 l 438 418 "},"":{"ha":1497,"x_min":0,"x_max":0,"o":"m 1435 414 b 1440 407 1438 412 1439 410 b 1456 308 1450 375 1456 342 b 1355 70 1456 217 1422 137 b 1117 -31 1288 3 1208 -31 b 859 85 1015 -31 929 8 b 732 392 789 163 747 265 l 485 392 l 485 388 b 358 67 425 215 383 108 b 242 -25 329 14 290 -17 b 189 -31 226 -29 208 -31 b 84 11 147 -31 112 -17 b 42 113 56 39 42 73 b 88 238 42 153 57 195 b 111 240 94 246 102 247 l 138 222 b 142 199 147 217 148 209 b 111 113 121 170 111 141 b 133 53 111 88 119 69 b 189 29 148 37 167 29 b 221 31 202 29 213 30 b 248 40 229 31 238 34 b 271 56 258 45 265 50 b 293 86 276 61 284 71 b 317 131 302 101 310 116 b 345 199 324 147 334 169 b 378 288 357 228 368 258 b 418 407 388 318 401 358 l 606 935 b 478 961 572 952 530 961 b 349 916 430 961 387 946 b 292 813 311 886 292 851 b 315 733 292 787 300 760 b 310 711 321 724 319 717 l 282 693 b 258 699 272 688 264 689 b 222 813 234 738 222 775 b 300 958 222 867 248 916 b 478 1021 352 1000 411 1021 b 669 969 556 1021 620 1003 b 790 800 719 934 759 878 b 899 965 820 869 856 923 b 1032 1026 941 1006 986 1026 b 1136 976 1069 1026 1104 1010 b 1192 1022 1154 993 1172 1008 b 1215 1021 1200 1028 1208 1027 l 1300 946 l 1336 981 b 1360 982 1344 988 1351 988 l 1383 961 b 1383 938 1392 954 1392 946 l 1315 868 b 1292 868 1308 861 1300 861 l 1200 949 b 1082 799 1164 916 1125 866 l 1128 732 l 1171 671 l 1257 753 b 1281 751 1265 761 1273 761 l 1343 678 l 1372 706 b 1396 706 1380 713 1388 713 l 1418 686 b 1419 663 1427 678 1428 670 l 1350 594 b 1326 596 1342 587 1334 588 l 1264 669 l 1207 615 b 1293 372 1264 524 1293 443 b 1242 210 1293 309 1276 255 b 1118 143 1207 166 1166 143 b 1030 172 1086 143 1056 153 b 969 251 1003 192 983 218 b 947 361 954 284 947 320 b 990 535 947 422 962 480 b 1014 543 996 545 1004 548 l 1044 528 b 1051 504 1054 522 1056 514 b 1017 361 1028 461 1017 413 b 1024 299 1017 339 1019 318 b 1046 249 1029 279 1037 263 b 1078 215 1055 235 1066 224 b 1118 203 1091 207 1104 203 b 1157 217 1131 203 1144 207 b 1191 253 1170 226 1181 238 b 1215 308 1201 269 1209 287 b 1224 372 1221 328 1224 350 b 1214 448 1224 398 1220 423 b 1179 530 1207 472 1196 500 b 1134 606 1163 560 1147 585 b 1071 699 1121 626 1100 657 l 1011 786 b 1011 808 1006 794 1006 801 b 1093 928 1041 858 1068 898 b 1032 967 1070 954 1050 967 b 923 896 996 967 959 943 b 832 712 886 849 856 787 b 796 486 808 636 796 561 b 885 157 796 352 826 242 b 1117 29 945 72 1022 29 b 1306 113 1190 29 1253 57 b 1386 308 1359 168 1386 233 b 1375 386 1386 335 1382 361 b 1386 407 1372 396 1376 403 l 1419 418 m 726 451 l 726 486 b 754 694 726 556 736 626 l 753 694 b 663 889 728 784 698 849 l 506 451 "},"":{"ha":1003,"x_min":0,"x_max":0,"o":"m 947 304 b 895 135 947 243 930 187 b 753 10 860 83 813 41 b 556 -42 693 -22 627 -39 l 543 -65 b 621 -93 575 -66 600 -75 b 651 -160 641 -111 651 -133 b 616 -234 651 -190 640 -215 b 526 -262 592 -253 563 -262 b 450 -249 500 -262 475 -258 b 443 -226 439 -244 437 -237 l 457 -201 b 479 -194 462 -193 469 -191 b 526 -203 495 -200 511 -203 b 582 -160 563 -203 582 -188 b 570 -135 582 -150 578 -141 b 542 -125 562 -128 553 -125 b 518 -129 532 -125 525 -126 b 494 -131 509 -134 501 -134 l 465 -111 b 458 -89 456 -106 454 -98 l 482 -37 b 185 131 359 -23 260 34 b 74 500 111 229 74 352 b 102 696 74 568 83 633 b 178 860 121 759 146 813 b 290 971 209 906 247 943 b 424 1013 333 999 377 1013 b 557 963 471 1013 515 996 b 625 1019 578 983 601 1002 b 647 1021 632 1026 640 1026 l 706 981 l 775 932 l 829 982 b 853 981 838 988 845 988 l 875 960 b 875 936 883 952 883 944 l 792 861 b 768 860 784 854 776 853 l 665 932 l 639 950 b 488 782 586 906 536 850 b 565 700 519 750 545 722 b 635 619 586 678 609 651 b 696 532 661 587 681 558 b 734 448 711 506 723 478 b 750 361 745 418 750 389 b 722 251 750 322 741 286 b 644 169 703 217 677 190 b 539 139 612 149 577 139 b 394 204 482 139 434 161 b 335 361 355 248 335 300 b 378 518 335 413 349 465 b 400 525 383 527 391 530 l 431 510 b 438 488 441 505 443 498 b 404 361 415 446 404 404 b 422 279 404 331 410 304 b 472 220 434 254 451 234 b 539 199 492 206 515 199 b 638 247 577 199 610 215 b 681 361 666 280 681 318 b 671 426 681 382 677 404 b 640 494 664 447 654 470 b 598 560 625 519 611 540 b 541 630 584 579 566 603 b 481 696 516 657 496 679 b 414 764 465 713 443 735 b 411 788 406 771 406 779 b 513 917 444 836 477 879 b 424 953 484 941 454 953 b 288 890 376 953 331 932 b 183 722 244 847 209 791 b 143 500 156 652 143 578 b 253 151 143 356 180 240 b 540 18 326 63 422 18 b 779 103 634 18 713 46 b 878 304 845 159 878 226 b 864 353 878 316 873 332 b 850 403 855 373 850 390 b 878 433 850 417 859 427 b 915 428 893 439 905 437 b 937 390 925 420 933 407 b 945 343 941 372 944 357 b 947 304 947 329 947 316 "},"":{"ha":978,"x_min":0,"x_max":0,"o":"m 589 1086 b 583 1063 595 1076 594 1068 l 564 1053 b 542 1058 555 1047 547 1049 l 443 1203 b 447 1226 436 1213 437 1221 l 476 1242 b 499 1236 486 1247 493 1245 l 589 1086 m 838 429 b 878 435 853 437 867 438 b 906 397 890 431 899 419 b 917 308 913 376 917 346 b 861 133 917 246 898 188 b 713 3 824 79 775 35 b 513 -46 650 -30 584 -46 b 180 105 378 -46 267 4 b 49 486 92 205 49 332 b 100 745 49 575 66 661 b 236 949 134 829 180 897 b 411 1026 293 1000 351 1026 b 538 972 455 1026 497 1008 b 607 1021 560 990 583 1006 b 629 1019 614 1025 622 1025 l 736 942 l 788 983 b 811 982 796 991 804 990 l 832 960 b 831 938 840 952 840 945 l 751 871 b 728 869 743 864 735 864 l 615 951 b 467 799 568 919 519 868 l 519 735 l 578 665 l 686 750 b 710 749 694 756 702 756 l 786 674 l 831 708 b 854 707 839 716 847 715 l 875 685 b 874 661 883 676 883 669 l 793 597 b 769 599 785 591 777 591 l 693 675 l 617 615 b 719 372 685 524 719 443 b 659 210 719 309 699 255 b 515 143 619 166 571 143 b 372 206 458 143 410 164 b 315 361 334 247 315 299 b 369 538 315 423 333 482 b 393 543 376 547 384 549 l 421 526 b 426 503 431 521 433 513 b 385 361 399 459 385 412 b 422 248 385 316 397 278 b 515 203 447 218 478 203 b 610 253 551 203 583 220 b 650 372 637 287 650 327 b 640 435 650 393 647 414 b 618 494 634 457 626 477 b 577 558 610 511 596 532 b 528 622 558 584 542 605 b 467 696 515 638 494 663 l 392 786 b 392 808 386 794 386 801 b 490 928 428 858 461 898 b 411 967 463 954 436 967 b 274 897 365 967 319 943 b 162 714 228 850 191 789 b 118 486 133 639 118 563 b 229 147 118 349 155 236 b 513 14 303 58 398 14 b 747 102 602 14 681 43 b 847 308 814 161 847 230 b 841 351 847 322 845 337 b 828 386 837 366 833 378 b 823 410 824 394 822 403 b 838 429 823 418 828 425 "},"":{"ha":978,"x_min":0,"x_max":0,"o":"m 664 1224 b 669 1201 674 1218 676 1211 l 571 1056 b 549 1050 565 1047 558 1045 l 529 1061 b 522 1083 519 1067 517 1074 l 613 1233 b 636 1240 618 1244 626 1246 l 664 1224 m 838 429 b 878 435 853 437 867 438 b 906 397 890 431 899 419 b 917 308 913 376 917 346 b 861 133 917 246 898 188 b 713 3 824 79 775 35 b 513 -46 650 -30 584 -46 b 180 105 378 -46 267 4 b 49 486 92 205 49 332 b 100 745 49 575 66 661 b 236 949 134 829 180 897 b 411 1026 293 1000 351 1026 b 538 972 455 1026 497 1008 b 607 1021 560 990 583 1006 b 629 1019 614 1025 622 1025 l 736 942 l 788 983 b 811 982 796 991 804 990 l 832 960 b 831 938 840 952 840 945 l 751 871 b 728 869 743 864 735 864 l 615 951 b 467 799 568 919 519 868 l 519 735 l 578 665 l 686 750 b 710 749 694 756 702 756 l 786 674 l 831 708 b 854 707 839 716 847 715 l 875 685 b 874 661 883 676 883 669 l 793 597 b 769 599 785 591 777 591 l 693 675 l 617 615 b 719 372 685 524 719 443 b 659 210 719 309 699 255 b 515 143 619 166 571 143 b 372 206 458 143 410 164 b 315 361 334 247 315 299 b 369 538 315 423 333 482 b 393 543 376 547 384 549 l 421 526 b 426 503 431 521 433 513 b 385 361 399 459 385 412 b 422 248 385 316 397 278 b 515 203 447 218 478 203 b 610 253 551 203 583 220 b 650 372 637 287 650 327 b 640 435 650 393 647 414 b 618 494 634 457 626 477 b 577 558 610 511 596 532 b 528 622 558 584 542 605 b 467 696 515 638 494 663 l 392 786 b 392 808 386 794 386 801 b 490 928 428 858 461 898 b 411 967 463 954 436 967 b 274 897 365 967 319 943 b 162 714 228 850 191 789 b 118 486 133 639 118 563 b 229 147 118 349 155 236 b 513 14 303 58 398 14 b 747 102 602 14 681 43 b 847 308 814 161 847 230 b 841 351 847 322 845 337 b 828 386 837 366 833 378 b 823 410 824 394 822 403 b 838 429 823 418 828 425 "},"":{"ha":978,"x_min":0,"x_max":0,"o":"m 453 1067 b 431 1061 447 1057 440 1056 l 403 1079 b 397 1103 393 1086 391 1094 l 493 1236 b 514 1246 499 1243 506 1246 l 569 1246 b 590 1236 578 1246 585 1243 l 692 1103 b 688 1079 698 1094 697 1086 l 660 1061 b 636 1065 650 1056 643 1057 l 543 1190 m 838 429 b 896 421 863 442 882 439 b 917 308 910 402 917 365 b 861 133 917 246 898 188 b 713 3 824 79 775 35 b 513 -46 650 -30 584 -46 b 180 105 378 -46 267 4 b 49 486 92 205 49 332 b 100 745 49 575 66 661 b 236 949 134 829 180 897 b 411 1026 293 1000 351 1026 b 538 972 455 1026 497 1008 b 607 1021 560 990 583 1006 b 629 1019 614 1025 622 1025 l 736 942 l 788 983 b 811 982 796 991 804 990 l 832 960 b 831 938 840 952 840 945 l 751 871 b 728 869 743 864 735 864 l 615 951 b 467 799 568 919 519 868 l 519 735 l 578 665 l 686 750 b 710 749 694 756 702 756 l 786 674 l 831 708 b 854 707 839 716 847 715 l 875 685 b 874 661 883 676 883 669 l 793 597 b 769 599 785 591 777 591 l 693 675 l 617 615 b 719 372 685 524 719 443 b 659 210 719 309 699 255 b 515 143 619 166 571 143 b 372 206 458 143 410 164 b 315 361 334 247 315 299 b 369 538 315 423 333 482 b 393 543 376 547 384 549 l 421 526 b 426 503 431 521 433 513 b 385 361 399 459 385 412 b 422 248 385 316 397 278 b 515 203 447 218 478 203 b 610 253 551 203 583 220 b 650 372 637 287 650 327 b 638 447 650 398 646 423 b 597 528 630 471 616 498 b 542 604 577 559 559 584 b 467 696 526 625 501 655 l 392 786 b 392 808 386 794 386 801 b 490 928 428 858 461 898 b 411 967 463 954 436 967 b 274 897 365 967 319 943 b 162 714 228 850 191 789 b 118 486 133 639 118 563 b 229 147 118 349 155 236 b 513 14 303 58 398 14 b 747 102 602 14 681 43 b 847 308 814 161 847 230 b 841 351 847 322 845 337 b 828 386 837 366 833 378 b 823 410 824 394 822 403 b 838 429 823 418 828 425 "},"":{"ha":978,"x_min":0,"x_max":0,"o":"m 506 1136 b 506 1113 517 1128 517 1120 l 450 1072 b 426 1072 442 1068 434 1068 l 371 1113 b 371 1136 360 1120 360 1128 l 426 1176 b 450 1176 434 1182 442 1182 l 506 1136 m 711 1136 b 711 1113 722 1128 722 1120 l 654 1072 b 632 1072 647 1068 639 1068 l 576 1113 b 576 1136 565 1120 565 1128 l 632 1176 b 654 1176 639 1182 647 1182 l 711 1136 m 838 429 b 878 435 853 437 867 438 b 906 397 890 431 899 419 b 917 308 913 376 917 346 b 861 133 917 246 898 188 b 713 3 824 79 775 35 b 513 -46 650 -30 584 -46 b 180 105 378 -46 267 4 b 49 486 92 205 49 332 b 100 745 49 575 66 661 b 236 949 134 829 180 897 b 411 1026 293 1000 351 1026 b 538 972 455 1026 497 1008 b 607 1021 560 990 583 1006 b 629 1019 614 1025 622 1025 l 736 942 l 788 983 b 811 982 796 991 804 990 l 832 960 b 831 938 840 952 840 945 l 751 871 b 728 869 743 864 735 864 l 615 951 b 467 799 568 919 519 868 l 519 735 l 578 665 l 686 750 b 710 749 694 756 702 756 l 786 674 l 831 708 b 854 707 839 716 847 715 l 875 685 b 874 661 883 676 883 669 l 793 597 b 769 599 785 591 777 591 l 693 675 l 617 615 b 719 372 685 524 719 443 b 659 210 719 309 699 255 b 515 143 619 166 571 143 b 372 206 458 143 410 164 b 315 361 334 247 315 299 b 369 538 315 423 333 482 b 393 543 376 547 384 549 l 421 526 b 426 503 431 521 433 513 b 385 361 399 459 385 412 b 422 248 385 316 397 278 b 515 203 447 218 478 203 b 610 253 551 203 583 220 b 650 372 637 287 650 327 b 640 435 650 393 647 414 b 618 494 634 457 626 477 b 577 558 610 511 596 532 b 528 622 558 584 542 605 b 467 696 515 638 494 663 l 392 786 b 392 808 386 794 386 801 b 490 928 428 858 461 898 b 411 967 463 954 436 967 b 274 897 365 967 319 943 b 162 714 228 850 191 789 b 118 486 133 639 118 563 b 229 147 118 349 155 236 b 513 14 303 58 398 14 b 747 102 602 14 681 43 b 847 308 814 161 847 230 b 841 351 847 322 845 337 b 828 386 837 366 833 378 b 823 410 824 394 822 403 b 838 429 823 418 828 425 "},"":{"ha":939,"x_min":0,"x_max":0,"o":"m 518 1057 b 496 1063 509 1051 501 1053 l 397 1207 b 401 1231 390 1217 391 1225 l 431 1246 b 453 1240 440 1251 447 1250 l 543 1090 b 538 1068 550 1081 548 1074 l 518 1057 m 146 701 b 110 697 134 695 122 694 b 80 734 99 701 89 713 b 67 810 71 755 67 780 b 145 958 67 867 93 917 b 329 1021 197 1000 259 1021 b 426 1006 361 1021 393 1016 b 503 977 459 997 484 987 b 579 933 521 967 547 953 b 674 881 621 908 652 891 l 767 958 b 790 957 775 966 783 965 l 811 935 b 810 913 819 927 819 920 l 697 818 b 675 814 691 812 683 810 b 544 882 641 828 597 850 b 472 923 513 900 489 914 b 407 949 456 932 434 940 b 329 961 380 957 354 961 b 194 916 277 961 232 946 b 136 810 155 886 136 850 b 144 772 136 797 139 784 b 160 745 150 760 155 751 b 165 725 164 739 166 732 b 146 701 163 718 157 710 m 543 -40 b 456 -27 513 -40 484 -36 b 385 3 428 -18 404 -8 b 322 50 365 14 344 30 b 272 99 299 70 282 87 b 228 149 261 111 246 127 b 172 213 200 183 181 204 b 142 226 162 222 152 226 b 79 190 127 226 106 214 b 56 190 71 182 63 182 l 42 206 b 42 229 34 214 34 222 b 147 286 83 267 119 286 b 206 265 168 286 187 279 b 281 188 224 251 249 225 b 334 126 303 161 321 140 b 390 76 347 113 366 96 b 463 33 413 56 438 41 b 543 19 488 24 514 19 b 671 58 587 19 629 32 b 771 160 713 84 746 118 b 808 290 796 203 808 246 b 763 479 808 353 793 416 b 633 654 733 542 690 600 b 633 678 626 663 626 670 l 797 836 b 821 836 805 844 813 844 l 843 815 b 844 792 852 808 853 800 l 714 665 b 878 290 823 548 878 423 b 831 130 878 235 862 181 b 706 6 799 78 757 37 b 543 -40 654 -25 600 -40 "},"":{"ha":939,"x_min":0,"x_max":0,"o":"m 525 1060 b 503 1054 519 1051 512 1050 l 483 1065 b 476 1089 473 1071 471 1079 l 567 1239 b 590 1244 572 1248 580 1250 l 618 1228 b 624 1206 628 1222 630 1215 l 525 1060 m 146 701 b 110 697 134 695 122 694 b 80 734 99 701 89 713 b 67 810 71 755 67 780 b 145 958 67 867 93 917 b 329 1021 197 1000 259 1021 b 426 1006 361 1021 393 1016 b 503 977 459 997 484 987 b 579 933 521 967 547 953 b 674 881 621 908 652 891 l 767 958 b 790 957 775 966 783 965 l 811 935 b 810 913 819 927 819 920 l 697 818 b 675 814 691 812 683 810 b 544 882 641 828 597 850 b 490 913 520 896 502 906 b 442 937 477 920 461 928 b 385 956 422 946 403 952 b 329 961 367 959 349 961 b 194 916 277 961 232 946 b 136 810 155 886 136 850 b 144 772 136 797 139 784 b 160 745 150 760 155 751 b 165 725 164 739 166 732 b 146 701 163 718 157 710 m 543 -40 b 456 -27 513 -40 484 -36 b 385 3 428 -18 404 -8 b 322 50 365 14 344 30 b 272 99 299 70 282 87 b 228 149 261 111 246 127 b 172 213 200 183 181 204 b 142 226 162 222 152 226 b 79 190 127 226 106 214 b 56 190 71 182 63 182 l 42 206 b 42 229 34 214 34 222 b 147 286 83 267 119 286 b 187 277 161 286 174 283 b 227 247 199 271 213 261 b 281 188 241 233 259 213 b 334 126 303 161 321 140 b 390 76 347 113 366 96 b 463 33 413 56 438 41 b 543 19 488 24 514 19 b 671 58 587 19 629 32 b 771 160 713 84 746 118 b 808 290 796 203 808 246 b 788 417 808 332 802 374 b 729 541 775 459 755 501 b 633 654 703 581 671 619 b 633 678 626 663 626 670 l 797 836 b 821 836 805 844 813 844 l 843 815 b 844 792 852 808 853 800 l 714 665 b 878 290 823 548 878 423 b 831 130 878 235 862 181 b 706 6 799 78 757 37 b 543 -40 654 -25 600 -40 "},"":{"ha":939,"x_min":0,"x_max":0,"o":"m 614 1067 b 590 1071 605 1060 597 1062 l 497 1194 l 407 1071 b 385 1067 401 1063 394 1061 l 357 1083 b 351 1107 347 1090 345 1098 l 447 1240 b 468 1250 453 1247 460 1250 l 524 1250 b 544 1240 532 1250 539 1247 l 646 1107 b 642 1083 652 1098 651 1090 l 614 1067 m 146 701 b 110 697 134 695 122 694 b 80 734 99 701 89 713 b 67 810 71 755 67 780 b 145 958 67 867 93 917 b 329 1021 197 1000 259 1021 b 426 1006 361 1021 393 1016 b 503 977 459 997 484 987 b 579 933 521 967 547 953 b 674 881 621 908 652 891 l 767 958 b 790 957 775 966 783 965 l 811 935 b 810 913 819 927 819 920 l 697 818 b 675 814 691 812 683 810 b 544 882 641 828 597 850 b 490 913 520 896 502 906 b 442 937 477 920 461 928 b 385 956 422 946 403 952 b 329 961 367 959 349 961 b 194 916 277 961 232 946 b 136 810 155 886 136 850 b 144 772 136 797 139 784 b 160 745 150 760 155 751 b 165 725 164 739 166 732 b 146 701 163 718 157 710 m 543 -40 b 456 -27 513 -40 484 -36 b 385 3 428 -18 404 -8 b 322 50 365 14 344 30 b 272 99 299 70 282 87 b 228 149 261 111 246 127 b 172 213 200 183 181 204 b 142 226 162 222 152 226 b 79 190 127 226 106 214 b 56 190 71 182 63 182 l 42 206 b 42 229 34 214 34 222 b 147 286 83 267 119 286 b 187 277 161 286 174 283 b 227 247 199 271 213 261 b 281 188 241 233 259 213 b 334 126 303 161 321 140 b 390 76 347 113 366 96 b 463 33 413 56 438 41 b 543 19 488 24 514 19 b 671 58 587 19 629 32 b 771 160 713 84 746 118 b 808 290 796 203 808 246 b 788 417 808 332 802 374 b 729 541 775 459 755 501 b 633 654 703 581 671 619 b 633 678 626 663 626 670 l 797 836 b 821 836 805 844 813 844 l 843 815 b 844 792 852 808 853 800 l 714 665 b 878 290 823 548 878 423 b 831 130 878 235 862 181 b 706 6 799 78 757 37 b 543 -40 654 -25 600 -40 "},"":{"ha":939,"x_min":0,"x_max":0,"o":"m 404 1078 b 381 1078 396 1072 388 1072 l 325 1117 b 325 1140 314 1124 314 1132 l 381 1181 b 404 1181 388 1186 396 1186 l 460 1140 b 460 1117 471 1132 471 1124 l 404 1078 m 608 1078 b 586 1078 601 1072 594 1072 l 531 1117 b 531 1140 519 1124 519 1132 l 586 1181 b 608 1181 594 1186 601 1186 l 665 1140 b 665 1117 676 1132 676 1124 l 608 1078 m 146 701 b 110 697 134 695 122 694 b 80 734 99 701 89 713 b 67 810 71 755 67 780 b 145 958 67 867 93 917 b 329 1021 197 1000 259 1021 b 426 1006 361 1021 393 1016 b 503 977 459 997 484 987 b 579 933 521 967 547 953 b 674 881 621 908 652 891 l 767 958 b 790 957 775 966 783 965 l 811 936 b 810 913 819 928 819 920 l 697 818 b 675 814 691 812 683 810 b 544 882 641 828 597 850 b 472 923 513 900 489 914 b 407 949 456 932 434 940 b 329 961 380 957 354 961 b 194 916 277 961 232 946 b 136 810 155 886 136 850 b 144 772 136 797 139 784 b 160 745 150 760 155 751 b 165 725 164 739 166 732 b 146 701 163 718 157 710 m 543 -40 b 456 -27 513 -40 484 -36 b 385 3 428 -18 404 -8 b 322 50 365 14 344 30 b 272 99 299 70 282 87 b 228 150 261 111 246 128 b 172 213 200 183 181 204 b 142 226 162 222 152 226 b 79 190 127 226 106 214 b 56 190 71 182 63 182 l 42 206 b 42 229 34 214 34 222 b 147 286 83 267 119 286 b 187 277 161 286 174 283 b 227 247 199 271 213 261 b 281 188 241 233 259 213 b 334 127 303 162 321 141 b 390 76 347 113 366 96 b 463 33 413 56 438 41 b 543 19 488 24 514 19 b 671 58 587 19 629 32 b 771 160 713 84 746 118 b 808 290 796 203 808 246 b 788 417 808 332 802 374 b 729 541 775 459 755 501 b 633 654 703 581 671 619 b 633 679 626 663 626 671 l 797 836 b 821 836 805 844 813 844 l 843 815 b 844 792 852 808 853 800 l 714 667 b 878 290 823 548 878 423 b 775 61 878 205 844 129 b 543 -40 706 -6 629 -40 "},"":{"ha":1088,"x_min":0,"x_max":0,"o":"m 507 1017 b 767 944 600 1017 686 992 b 961 747 848 895 913 830 b 1033 485 1009 665 1033 577 b 965 239 1033 404 1011 322 b 792 33 920 156 862 87 b 585 -47 722 -20 653 -47 b 506 -28 564 -47 538 -41 b 426 10 474 -15 448 -2 b 339 64 405 23 376 41 b 233 126 288 95 253 116 l 133 35 b 110 36 125 28 117 29 l 88 57 b 88 81 79 64 79 72 l 207 189 b 229 194 214 195 222 197 b 375 114 258 183 306 156 b 459 63 412 92 440 75 b 526 29 478 52 500 40 b 586 13 551 18 571 13 b 757 85 641 13 698 37 b 905 269 816 134 866 195 b 964 485 944 344 964 415 b 901 717 964 567 943 645 b 732 892 859 790 802 848 b 507 957 662 935 587 957 b 245 874 408 957 321 929 b 132 686 170 819 132 756 b 140 654 132 675 135 664 b 156 631 146 644 151 636 b 161 613 160 626 162 620 b 143 588 160 605 154 597 b 121 578 136 582 128 579 b 99 585 113 578 106 580 b 81 606 92 591 86 597 b 67 640 75 615 71 626 b 63 686 64 654 63 669 b 124 849 63 744 83 798 b 289 971 166 900 220 940 b 507 1017 357 1001 430 1017 m 567 211 b 641 244 595 211 620 222 b 672 322 662 266 672 292 b 658 400 672 351 667 377 b 626 455 648 423 638 441 b 572 515 615 468 597 488 l 553 535 l 435 514 b 415 526 424 512 417 516 l 411 553 b 424 572 409 564 413 570 l 503 586 l 372 718 b 371 742 365 725 364 733 l 507 894 b 531 897 514 903 522 904 l 556 878 b 558 854 565 871 566 863 l 450 732 l 579 600 l 711 625 b 731 611 722 627 729 622 l 736 585 b 722 565 738 574 733 567 l 631 549 b 686 485 655 524 673 503 b 724 416 699 468 712 445 b 742 322 736 387 742 356 b 690 201 742 275 725 235 b 567 151 656 168 615 151 b 401 228 506 151 450 177 b 319 406 351 280 324 339 b 336 422 319 417 324 422 l 372 422 b 389 403 382 422 388 416 b 451 269 394 353 415 308 b 567 211 488 231 526 211 "},"":{"ha":1135,"x_min":0,"x_max":0,"o":"m 626 1139 b 585 1104 602 1139 588 1127 b 567 1088 583 1093 577 1088 l 531 1088 b 515 1104 519 1088 513 1093 b 549 1174 518 1134 529 1157 b 626 1199 569 1190 595 1199 b 726 1163 658 1199 691 1187 b 786 1138 751 1146 771 1138 b 838 1169 813 1138 830 1148 b 856 1185 841 1180 847 1185 l 893 1185 b 908 1168 905 1185 910 1179 b 867 1103 904 1142 890 1121 b 786 1078 844 1086 817 1078 b 688 1114 756 1078 723 1090 b 626 1139 663 1131 642 1139 m 1090 89 b 1114 90 1098 97 1106 98 l 1139 71 b 1140 47 1147 63 1148 56 l 1065 -33 b 1042 -35 1058 -42 1050 -42 l 935 64 b 925 83 928 69 925 76 l 925 711 b 932 731 925 719 927 725 l 1008 836 b 832 949 950 884 891 922 l 678 840 b 754 546 729 758 754 660 b 723 373 754 489 744 432 b 639 213 702 314 674 261 b 522 96 604 166 565 126 l 592 39 l 650 89 b 674 89 657 96 665 96 l 694 67 b 694 43 703 58 703 50 l 604 -35 b 581 -35 596 -41 588 -41 l 464 61 b 360 38 429 45 394 38 b 235 85 298 38 256 53 b 239 132 222 104 223 120 b 265 142 247 141 256 144 b 285 128 273 139 280 134 b 313 108 289 121 299 115 b 360 97 326 101 342 97 b 460 131 389 97 423 108 b 566 221 497 153 532 183 b 651 365 600 259 628 307 b 685 546 673 422 685 483 b 601 836 685 663 657 759 b 392 951 545 913 475 951 b 192 847 314 951 247 916 b 110 594 137 777 110 693 b 158 412 110 524 126 463 b 269 335 190 360 227 335 b 351 385 306 335 334 351 b 372 394 356 394 363 397 l 406 385 b 417 363 418 381 421 374 b 357 299 404 337 384 316 b 269 275 330 283 301 275 b 107 368 206 275 151 306 b 40 594 63 430 40 506 b 143 890 40 710 75 809 b 392 1011 212 971 294 1011 b 640 892 490 1011 573 971 l 811 1013 b 833 1015 819 1017 826 1018 b 1083 856 922 979 1006 926 b 1086 832 1092 848 1093 840 l 994 706 l 994 94 l 1050 46 l 1090 89 "},"":{"ha":1040,"x_min":0,"x_max":0,"o":"m 550 1057 b 528 1063 541 1051 533 1053 l 429 1207 b 433 1231 422 1217 423 1225 l 463 1246 b 485 1240 472 1251 479 1250 l 575 1090 b 569 1068 581 1081 580 1074 l 550 1057 m 582 -43 b 444 -22 537 -43 491 -36 b 335 17 397 -8 361 5 b 238 68 310 29 277 46 b 172 103 207 86 185 97 l 103 50 b 79 53 94 44 86 44 l 58 75 b 61 99 51 83 52 91 l 150 165 b 174 169 157 171 165 172 b 272 121 196 161 229 145 b 341 83 301 104 324 92 b 410 52 358 75 381 65 b 495 25 438 40 467 31 b 582 17 523 19 552 17 b 741 72 637 17 690 35 b 866 219 792 109 834 158 b 914 408 898 279 914 343 b 798 739 914 524 875 634 b 510 958 721 844 625 917 b 139 725 375 895 251 818 b 243 397 208 610 243 501 b 201 268 243 345 229 302 b 94 217 172 234 137 217 b 31 228 66 217 45 221 b 12 254 18 236 11 245 b 26 281 12 263 17 272 b 44 290 33 286 39 289 b 59 288 50 290 55 289 b 75 281 63 286 69 283 b 94 276 81 278 88 276 b 151 311 117 276 135 288 b 174 397 166 334 174 363 b 63 722 174 499 137 607 b 65 746 56 731 57 738 b 493 1019 191 854 334 945 b 515 1021 500 1022 508 1023 b 849 779 649 976 760 896 b 983 408 939 663 983 539 b 926 188 983 331 964 258 b 776 20 888 118 838 62 b 582 -43 714 -22 650 -43 "},"":{"ha":1040,"x_min":0,"x_max":0,"o":"m 557 1060 b 535 1054 551 1051 544 1050 l 515 1065 b 508 1089 505 1071 503 1079 l 599 1239 b 622 1244 604 1248 612 1250 l 650 1228 b 656 1206 660 1222 662 1215 l 557 1060 m 582 -43 b 444 -22 537 -43 491 -36 b 335 17 397 -8 361 5 b 238 68 310 29 277 46 b 172 103 207 86 185 97 l 103 50 b 79 53 94 44 86 44 l 58 75 b 61 99 51 83 52 91 l 150 165 b 174 169 157 171 165 172 b 272 121 196 161 229 145 b 365 70 310 99 341 82 b 462 35 388 59 421 47 b 582 17 503 23 543 17 b 741 72 637 17 690 35 b 866 219 792 109 834 158 b 914 408 898 279 914 343 b 798 739 914 524 875 634 b 510 958 721 844 625 917 b 139 725 375 895 251 818 b 243 397 208 610 243 501 b 201 268 243 345 229 302 b 94 217 172 234 137 217 b 31 228 66 217 45 221 b 12 254 18 236 11 245 b 26 281 12 263 17 272 b 44 290 33 286 39 289 b 59 288 50 290 55 289 b 75 281 63 286 69 283 b 94 276 81 278 88 276 b 151 311 117 276 135 288 b 174 397 166 334 174 363 b 63 722 174 499 137 607 b 65 746 56 731 57 738 b 493 1019 191 854 334 945 b 515 1021 500 1022 508 1023 b 849 779 649 976 760 896 b 983 408 939 663 983 539 b 926 188 983 331 964 258 b 776 20 888 118 838 62 b 582 -43 714 -22 650 -43 "},"":{"ha":1040,"x_min":0,"x_max":0,"o":"m 646 1067 b 622 1071 637 1060 629 1062 l 529 1194 l 439 1071 b 417 1067 433 1063 426 1061 l 389 1083 b 383 1107 379 1090 377 1098 l 479 1240 b 500 1250 485 1247 492 1250 l 556 1250 b 576 1240 564 1250 571 1247 l 678 1107 b 674 1083 684 1098 683 1090 l 646 1067 m 582 -43 b 444 -22 537 -43 491 -36 b 335 17 397 -8 361 5 b 238 68 310 29 277 46 b 172 103 207 86 185 97 l 103 50 b 79 53 94 44 86 44 l 58 75 b 61 99 51 83 52 91 l 150 165 b 174 169 157 171 165 172 b 272 121 196 161 229 145 b 341 83 301 104 324 92 b 410 52 358 75 381 65 b 495 25 438 40 467 31 b 582 17 523 19 552 17 b 741 72 637 17 690 35 b 866 219 792 109 834 158 b 914 408 898 279 914 343 b 798 739 914 524 875 634 b 510 958 721 844 625 917 b 139 725 375 895 251 818 b 243 397 208 610 243 501 b 201 268 243 345 229 302 b 94 217 172 234 137 217 b 31 228 66 217 45 221 b 12 254 18 236 11 245 b 26 281 12 263 17 272 b 44 290 33 286 39 289 b 59 288 50 290 55 289 b 75 281 63 286 69 283 b 94 276 81 278 88 276 b 151 311 117 276 135 288 b 174 397 166 334 174 363 b 63 722 174 499 137 607 b 65 746 56 731 57 738 b 493 1019 191 854 334 945 b 515 1021 500 1022 508 1023 b 849 779 649 976 760 896 b 983 408 939 663 983 539 b 926 188 983 331 964 258 b 776 20 888 118 838 62 b 582 -43 714 -22 650 -43 "},"":{"ha":1040,"x_min":0,"x_max":0,"o":"m 603 1078 b 504 1114 572 1078 539 1090 b 443 1139 479 1131 459 1139 b 401 1104 419 1139 405 1127 b 383 1088 400 1093 394 1088 l 347 1088 b 332 1104 335 1088 330 1093 b 342 1144 333 1119 336 1132 b 366 1174 348 1155 356 1165 b 400 1192 376 1182 387 1188 b 443 1199 413 1197 427 1199 b 543 1163 475 1199 508 1187 b 603 1138 568 1146 588 1138 b 654 1169 630 1138 647 1148 b 672 1185 658 1180 664 1185 l 710 1185 b 722 1181 715 1185 719 1183 b 725 1169 725 1178 726 1174 b 685 1104 721 1144 708 1122 b 603 1078 662 1087 634 1078 m 582 -43 b 444 -22 537 -43 491 -36 b 335 17 397 -8 361 5 b 238 68 310 29 277 46 b 172 103 207 86 185 97 l 103 50 b 79 53 94 44 86 44 l 58 75 b 61 99 51 83 52 91 l 150 165 b 174 169 157 171 165 172 b 272 121 196 161 229 145 b 365 70 310 99 341 82 b 462 35 388 59 421 47 b 582 17 503 23 543 17 b 741 72 637 17 690 35 b 866 219 792 109 834 158 b 914 408 898 279 914 343 b 798 739 914 524 875 634 b 510 958 721 844 625 917 b 139 725 375 895 251 818 b 243 397 208 610 243 501 b 201 268 243 345 229 302 b 94 217 172 234 137 217 b 31 228 66 217 45 221 b 12 254 18 236 11 245 b 26 281 12 263 17 272 b 44 290 33 286 39 289 b 59 288 50 290 55 289 b 75 281 63 286 69 283 b 94 276 81 278 88 276 b 151 311 117 276 135 288 b 174 397 166 334 174 363 b 63 722 174 499 137 607 b 65 746 56 731 57 738 b 494 1019 191 854 334 945 b 515 1021 501 1022 508 1023 b 849 779 649 976 760 896 b 983 408 939 663 983 539 b 926 188 983 331 964 258 b 776 20 888 118 838 62 b 582 -43 714 -22 650 -43 "},"":{"ha":1040,"x_min":0,"x_max":0,"o":"m 436 1078 b 413 1078 428 1072 420 1072 l 357 1117 b 357 1140 346 1124 346 1132 l 413 1181 b 436 1181 420 1186 428 1186 l 492 1140 b 492 1117 503 1132 503 1124 l 436 1078 m 640 1078 b 618 1078 633 1072 625 1072 l 563 1117 b 563 1140 551 1124 551 1132 l 618 1181 b 640 1181 625 1186 633 1186 l 697 1140 b 697 1117 708 1132 708 1124 l 640 1078 m 582 -43 b 444 -22 537 -43 491 -36 b 335 17 397 -8 361 5 b 238 68 310 29 277 46 b 172 103 207 86 185 97 l 103 50 b 79 53 94 44 86 44 l 58 75 b 61 99 51 83 52 91 l 150 167 b 174 169 157 171 165 172 b 272 121 196 161 229 145 b 365 71 310 99 341 82 b 462 35 388 60 421 48 b 582 17 503 23 543 17 b 741 72 637 17 690 35 b 866 219 792 109 834 158 b 914 408 898 279 914 343 b 798 739 914 524 875 634 b 510 958 721 844 625 917 b 139 725 375 895 251 818 b 243 397 208 610 243 501 b 201 269 243 346 229 303 b 94 217 172 234 137 217 b 31 228 66 217 45 221 b 12 254 18 236 11 245 b 26 281 12 263 17 272 b 44 290 33 286 39 289 b 59 288 50 290 55 289 b 75 281 63 286 69 283 b 94 276 81 278 88 276 b 151 311 117 276 135 288 b 174 397 166 334 174 363 b 63 722 174 499 137 607 b 65 746 56 731 57 738 b 493 1019 191 855 334 946 b 515 1021 500 1022 508 1023 b 849 779 649 976 760 896 b 983 408 939 663 983 539 b 926 188 983 331 964 258 b 776 20 888 118 838 62 b 582 -43 714 -22 650 -43 "},"":{"ha":575,"x_min":0,"x_max":0,"o":"m 117 206 b 93 204 108 197 100 197 l 68 225 b 68 249 60 232 60 240 l 242 422 l 68 596 b 68 619 60 604 60 612 l 93 640 b 117 639 100 647 108 646 l 288 468 l 458 639 b 482 640 466 646 474 647 l 506 619 b 507 596 515 612 515 604 l 333 422 l 507 249 b 506 225 515 240 515 232 l 482 204 b 458 206 474 197 466 197 l 288 376 l 117 206 "},"":{"ha":1053,"x_min":0,"x_max":0,"o":"m 797 840 b 934 636 856 779 901 711 b 983 408 967 561 983 485 b 926 188 983 331 964 258 b 776 20 888 118 838 62 b 582 -43 714 -22 650 -43 b 350 11 507 -43 430 -25 l 311 -61 b 289 -68 306 -70 298 -73 l 257 -54 b 250 -32 247 -49 244 -41 l 289 40 l 238 68 b 172 103 207 86 185 97 l 103 50 b 79 53 94 44 86 44 l 58 75 b 61 99 51 83 52 91 l 150 165 b 174 169 157 171 165 172 b 272 121 196 161 229 145 l 318 94 l 717 831 b 510 958 654 888 585 931 b 139 725 375 895 251 818 b 243 397 208 610 243 501 b 201 268 243 345 229 302 b 94 217 172 234 137 217 b 31 228 66 217 45 221 b 12 254 18 236 11 245 b 26 281 12 263 17 272 b 44 290 33 286 39 289 b 59 288 50 290 55 289 b 75 281 63 286 69 283 b 94 276 81 278 88 276 b 135 292 109 276 123 282 b 163 336 147 303 156 318 b 174 397 170 355 174 375 b 63 722 174 499 137 607 b 65 746 56 731 57 738 b 494 1019 191 854 334 945 b 515 1021 501 1022 508 1023 b 747 888 600 993 677 949 l 781 950 b 803 957 786 959 794 962 l 833 943 b 842 921 844 938 847 930 l 797 840 m 582 17 b 741 72 637 17 690 35 b 866 219 792 109 834 158 b 914 408 898 279 914 343 b 874 602 914 473 901 538 b 765 779 848 666 812 725 l 379 65 b 582 17 450 33 517 17 "},"":{"ha":946,"x_min":0,"x_max":0,"o":"m 633 1090 b 626 1068 639 1081 637 1074 l 607 1057 b 585 1063 598 1051 590 1053 l 486 1207 b 492 1231 480 1217 481 1225 l 519 1246 b 543 1240 530 1251 538 1250 l 633 1090 m 917 93 b 940 94 925 100 933 101 l 964 74 b 965 50 972 66 973 58 l 875 -37 b 851 -37 867 -46 859 -46 l 774 39 b 765 60 768 44 765 51 l 765 151 l 544 -36 b 521 -36 536 -44 528 -44 l 283 182 b 163 142 243 155 202 142 b 49 181 99 142 61 155 b 64 221 42 194 47 208 b 89 225 76 226 84 228 b 117 211 94 222 103 218 b 163 201 132 205 147 201 b 297 280 208 201 253 228 b 363 440 341 332 363 386 b 349 524 363 470 358 498 b 303 604 339 551 324 577 b 249 669 283 631 264 653 b 179 736 233 685 210 707 b 107 806 143 769 119 793 b 110 829 100 814 101 822 l 304 1007 b 328 1007 313 1014 320 1014 l 350 986 b 350 963 358 978 358 970 l 189 815 l 226 779 b 284 724 251 756 271 738 b 337 666 297 711 315 691 b 387 597 359 641 375 618 b 418 524 398 577 409 553 b 432 440 427 496 432 468 b 405 326 432 402 423 364 b 333 222 387 287 363 253 l 535 39 l 765 235 l 765 806 b 817 1004 765 895 782 962 b 840 1006 823 1013 831 1014 l 864 985 b 867 963 871 978 872 971 b 835 806 845 929 835 877 l 835 69 l 864 42 l 917 93 "},"":{"ha":946,"x_min":0,"x_max":0,"o":"m 708 1228 b 714 1206 719 1222 720 1215 l 614 1060 b 592 1054 608 1051 601 1050 l 572 1065 b 567 1089 562 1071 560 1079 l 657 1239 b 679 1244 663 1248 670 1250 l 708 1228 m 917 93 b 940 94 925 100 933 101 l 964 74 b 965 50 972 66 973 58 l 875 -37 b 851 -37 867 -46 859 -46 l 774 39 b 765 60 768 44 765 51 l 765 151 l 544 -36 b 521 -36 536 -44 528 -44 l 283 182 b 163 142 243 155 202 142 b 49 181 99 142 61 155 b 64 221 42 194 47 208 b 89 225 76 226 84 228 b 117 211 94 222 103 218 b 163 201 132 205 147 201 b 297 280 208 201 253 228 b 363 440 341 332 363 386 b 349 524 363 470 358 498 b 303 604 339 551 324 577 b 249 669 283 631 264 653 b 179 736 233 685 210 707 b 107 806 143 769 119 793 b 110 829 100 814 101 822 l 304 1007 b 328 1007 313 1014 320 1014 l 350 986 b 350 963 358 978 358 970 l 189 815 l 226 779 b 284 724 251 756 271 738 b 337 666 297 711 315 691 b 387 597 359 641 375 618 b 418 524 398 577 409 553 b 432 440 427 496 432 468 b 405 326 432 402 423 364 b 333 222 387 287 363 253 l 535 39 l 765 235 l 765 806 b 817 1004 765 895 782 962 b 840 1006 823 1013 831 1014 l 864 985 b 867 963 871 978 872 971 b 835 806 845 929 835 877 l 835 69 l 864 42 l 917 93 "},"":{"ha":946,"x_min":0,"x_max":0,"o":"m 497 1071 b 474 1067 491 1063 483 1061 l 446 1083 b 442 1107 436 1090 434 1098 l 538 1240 b 557 1250 542 1247 549 1250 l 614 1250 b 633 1240 622 1250 629 1247 l 735 1107 b 731 1083 741 1098 740 1090 l 703 1067 b 679 1071 694 1060 686 1062 l 586 1194 m 917 93 b 940 94 925 100 933 101 l 964 74 b 965 50 972 66 973 58 l 875 -37 b 851 -37 867 -46 859 -46 l 774 39 b 765 60 768 44 765 51 l 765 151 l 544 -36 b 521 -36 536 -44 528 -44 l 283 182 b 163 142 243 155 202 142 b 49 181 99 142 61 155 b 64 221 42 194 47 208 b 89 225 76 226 84 228 b 117 211 94 222 103 218 b 163 201 132 205 147 201 b 297 280 208 201 253 228 b 363 440 341 332 363 386 b 349 524 363 470 358 498 b 303 604 339 551 324 577 b 249 669 283 631 264 653 b 179 736 233 685 210 707 b 107 806 143 769 119 793 b 110 829 100 814 101 822 l 304 1007 b 328 1007 313 1014 320 1014 l 350 986 b 350 963 358 978 358 970 l 189 815 l 226 779 b 284 724 251 756 271 738 b 337 666 297 711 315 691 b 387 597 359 641 375 618 b 418 524 398 577 409 553 b 432 440 427 496 432 468 b 405 326 432 402 423 364 b 333 222 387 287 363 253 l 535 39 l 765 235 l 765 806 b 817 1004 765 895 782 962 b 840 1006 823 1013 831 1014 l 864 985 b 867 963 871 978 872 971 b 835 806 845 929 835 877 l 835 69 l 864 42 l 917 93 "},"":{"ha":946,"x_min":0,"x_max":0,"o":"m 549 1140 b 549 1117 560 1132 560 1124 l 493 1078 b 469 1078 486 1072 478 1072 l 414 1117 b 414 1140 403 1124 403 1132 l 469 1181 b 493 1181 478 1186 486 1186 l 549 1140 m 754 1140 b 754 1117 765 1132 765 1124 l 699 1078 b 675 1078 690 1072 682 1072 l 619 1117 b 619 1140 608 1124 608 1132 l 675 1181 b 699 1181 682 1186 690 1186 l 754 1140 m 917 93 b 940 94 925 100 933 101 l 964 74 b 965 50 972 66 973 58 l 875 -37 b 851 -37 867 -46 859 -46 l 774 39 b 765 60 768 44 765 51 l 765 151 l 544 -36 b 521 -36 536 -44 528 -44 l 283 182 b 163 142 243 155 202 142 b 49 181 99 142 61 155 b 64 221 42 194 47 208 b 89 225 76 226 84 228 b 117 211 94 222 103 218 b 163 201 132 205 147 201 b 297 280 208 201 253 228 b 363 440 341 332 363 386 b 349 524 363 470 358 498 b 303 604 339 551 324 577 b 249 669 283 631 264 653 b 179 736 233 685 210 707 b 107 806 143 769 119 793 b 110 829 100 814 101 822 l 304 1007 b 328 1007 313 1014 320 1014 l 350 986 b 350 963 358 978 358 970 l 189 815 l 226 779 b 284 724 251 756 271 738 b 337 666 297 711 315 691 b 387 597 359 641 375 618 b 418 524 398 577 409 553 b 432 440 427 496 432 468 b 405 326 432 402 423 364 b 333 222 387 287 363 253 l 535 39 l 765 235 l 765 806 b 817 1004 765 895 782 962 b 840 1006 823 1013 831 1014 l 864 985 b 867 963 871 979 872 972 b 835 806 845 929 835 877 l 835 69 l 864 42 l 917 93 "},"":{"ha":935,"x_min":0,"x_max":0,"o":"m 696 1228 b 700 1206 705 1222 706 1215 l 601 1060 b 579 1054 596 1051 588 1050 l 560 1065 b 554 1089 550 1071 548 1079 l 643 1239 b 667 1244 650 1248 657 1250 l 696 1228 m 853 92 b 869 0 864 50 869 19 b 823 -137 869 -50 854 -96 b 697 -236 792 -179 750 -212 b 522 -272 643 -260 585 -272 b 419 -256 486 -272 452 -267 b 325 -207 386 -246 355 -229 b 256 -151 295 -185 272 -166 b 193 -86 240 -135 219 -114 l 153 -47 b 129 -23 146 -39 138 -31 b 110 -8 121 -15 114 -10 b 96 -6 105 -6 100 -6 b 76 -9 88 -6 82 -7 b 59 -19 71 -11 65 -15 b 31 -44 53 -24 44 -32 b 6 -44 22 -52 14 -52 l -11 -26 b -10 -1 -19 -18 -18 -10 b 50 44 17 23 37 38 b 96 54 63 51 78 54 b 157 33 116 54 137 47 b 243 -46 177 19 206 -7 b 303 -106 268 -72 288 -92 b 363 -157 318 -121 338 -137 b 440 -199 389 -176 414 -191 b 522 -212 466 -208 494 -212 b 719 -151 599 -212 665 -192 b 800 0 773 -109 800 -59 b 786 76 800 15 795 40 b 765 161 777 111 770 139 l 533 -36 b 510 -36 525 -44 517 -44 l 272 182 b 151 142 231 155 191 142 b 44 176 113 142 78 153 b 43 200 34 183 34 191 l 64 221 b 88 222 71 228 79 229 b 151 201 108 208 129 201 b 285 280 197 201 241 228 b 351 440 329 332 351 386 b 338 524 351 470 347 498 b 292 604 328 551 313 577 b 238 669 272 631 253 653 b 168 736 222 685 199 707 b 96 806 132 769 108 793 b 99 829 89 814 90 822 l 293 1007 b 317 1007 301 1014 309 1014 l 339 986 b 339 963 347 978 347 970 l 178 815 l 215 779 b 273 724 240 756 259 738 b 326 666 286 711 304 691 b 376 597 347 641 364 618 b 407 524 387 577 398 553 b 421 440 416 496 421 468 b 394 326 421 402 412 364 b 322 222 376 287 352 253 l 524 39 l 756 236 b 754 293 755 255 754 274 l 754 806 b 806 1004 754 895 771 962 b 829 1006 812 1013 820 1014 l 853 985 b 856 963 860 978 861 971 b 824 806 834 929 824 877 l 824 293 b 853 92 824 232 833 165 "},"":{"ha":1111,"x_min":0,"x_max":0,"o":"m 996 540 b 1092 293 1060 474 1092 391 b 997 57 1092 201 1060 123 b 767 -42 934 -9 857 -42 b 549 15 698 -42 625 -23 l 549 -96 b 503 -225 549 -147 534 -190 b 392 -278 473 -260 436 -278 b 313 -253 364 -278 338 -269 b 311 -229 302 -246 302 -238 l 332 -208 b 356 -207 339 -201 347 -200 b 392 -218 368 -214 380 -218 b 453 -182 416 -218 436 -206 b 479 -96 471 -158 479 -129 l 479 53 b 421 90 462 64 442 76 l 364 43 b 340 46 356 37 348 38 l 319 68 b 321 90 311 76 312 84 l 406 160 b 429 161 413 165 421 166 l 479 126 l 479 775 b 428 890 479 819 462 858 b 306 939 395 923 354 939 b 169 894 248 939 203 924 b 118 775 135 865 118 825 b 126 706 118 750 121 727 b 153 647 132 685 141 666 b 186 601 166 628 177 612 b 229 553 195 589 210 573 b 253 527 239 542 247 533 b 275 501 258 521 266 513 b 297 472 284 490 291 481 b 313 443 302 464 307 454 b 324 410 318 432 322 421 b 328 375 327 399 328 387 b 300 290 328 342 319 313 b 206 219 281 266 250 243 b 183 225 196 214 189 216 l 168 250 b 175 274 163 260 165 268 b 240 320 206 289 228 305 b 258 375 252 335 258 354 b 242 434 258 395 253 415 b 178 513 231 453 209 479 b 142 552 162 529 150 542 b 108 595 133 562 122 576 b 77 647 94 614 84 631 b 58 705 70 663 64 682 b 49 775 52 728 49 751 b 120 936 49 841 72 894 b 306 999 168 978 230 999 b 478 933 373 999 431 977 b 549 775 525 889 549 836 l 549 700 b 751 819 616 747 684 787 b 775 815 760 823 768 822 l 894 711 l 979 767 b 1003 763 988 772 996 771 l 1021 739 b 1017 715 1027 730 1026 722 l 900 640 b 876 642 892 635 884 635 l 753 750 b 549 624 689 719 621 676 l 549 85 b 767 18 628 40 701 18 b 948 99 838 18 898 45 b 1022 293 997 153 1022 218 b 992 432 1022 344 1012 390 b 906 533 972 474 944 507 b 906 557 894 542 894 550 l 1021 633 b 1044 629 1030 639 1038 638 l 1063 606 b 1058 582 1069 596 1068 588 l 996 540 "},"":{"ha":632,"x_min":0,"x_max":0,"o":"m 357 415 b 541 306 439 400 501 364 b 594 72 581 248 599 170 b 555 -106 594 8 581 -51 b 447 -235 528 -160 492 -203 b 296 -283 401 -267 350 -283 b 218 -272 271 -283 245 -280 b 207 -251 207 -269 203 -262 l 217 -226 b 238 -215 220 -216 227 -212 b 296 -224 258 -221 277 -224 b 458 -136 359 -224 413 -194 b 525 74 503 -78 525 -8 b 283 363 537 263 456 359 b 263 374 274 363 267 366 l 246 400 b 251 424 239 410 241 418 b 446 569 327 466 392 515 b 350 669 418 606 386 639 b 182 554 285 631 229 592 l 182 0 b 179 -96 182 -38 181 -70 b 171 -164 177 -122 175 -144 b 160 -208 167 -183 164 -198 b 144 -251 157 -219 152 -233 l 132 -257 b 125 -256 130 -257 128 -256 l 93 -244 b 81 -240 88 -244 84 -242 b 78 -235 79 -238 78 -237 l 81 -229 b 99 -176 89 -206 95 -188 b 108 -114 102 -163 106 -143 b 113 0 111 -85 113 -47 l 113 631 l 58 631 b 42 647 47 631 42 636 l 42 674 b 58 690 42 685 47 690 l 113 690 l 113 708 b 102 774 113 730 109 751 b 82 825 95 796 88 813 b 49 886 75 837 64 857 b 51 908 43 894 44 902 l 172 1021 b 196 1021 181 1028 188 1028 l 285 949 l 318 976 b 342 975 326 984 334 983 l 356 960 b 353 936 363 951 362 944 l 288 882 b 264 882 279 875 271 875 l 186 946 l 124 888 b 182 708 163 819 182 759 l 182 633 b 346 738 250 681 304 716 b 368 735 353 742 361 741 b 524 576 431 687 483 634 b 522 556 529 569 529 562 b 357 415 477 505 422 458 "},"":{"ha":653,"x_min":0,"x_max":0,"o":"m 406 817 b 399 794 411 806 409 799 l 379 783 b 357 789 370 778 363 780 l 258 933 b 264 957 252 944 254 951 l 292 972 b 315 967 302 978 310 976 l 406 817 m 592 71 b 615 71 599 78 607 78 l 633 53 b 633 29 642 44 642 37 l 575 -25 b 551 -26 568 -32 560 -33 l 482 35 b 472 56 475 40 472 47 l 472 81 l 297 -29 b 274 -29 289 -34 281 -34 b 104 122 193 18 137 69 b 56 333 72 176 56 246 b 140 572 56 416 84 495 b 354 736 197 648 268 703 b 376 733 362 739 369 738 l 531 633 b 542 613 538 629 542 622 l 542 68 l 567 47 l 592 71 m 472 154 l 472 596 l 357 671 b 239 587 313 650 274 622 b 156 467 204 551 176 511 b 125 333 135 422 125 378 b 160 159 125 261 137 203 b 285 36 184 115 225 74 "},"":{"ha":653,"x_min":0,"x_max":0,"o":"m 481 954 b 486 932 491 949 493 941 l 388 786 b 364 781 381 778 373 776 l 344 792 b 339 815 334 797 332 805 l 429 964 b 451 971 435 974 442 976 l 481 954 m 592 71 b 615 71 599 78 607 78 l 633 53 b 633 29 642 44 642 37 l 575 -25 b 551 -26 568 -32 560 -33 l 482 35 b 472 56 475 40 472 47 l 472 81 l 297 -29 b 274 -29 289 -34 281 -34 b 104 122 193 18 137 69 b 56 333 72 176 56 246 b 140 572 56 416 84 495 b 354 736 197 648 268 703 b 376 733 362 739 369 738 l 531 633 b 542 613 538 629 542 622 l 542 68 l 567 47 l 592 71 m 472 154 l 472 596 l 357 671 b 191 529 290 640 235 593 b 125 333 147 465 125 400 b 160 159 125 261 137 203 b 285 36 184 115 225 74 "},"":{"ha":653,"x_min":0,"x_max":0,"o":"m 269 797 b 246 793 263 788 255 787 l 218 810 b 214 833 208 816 206 824 l 310 967 b 329 976 314 973 321 976 l 386 976 b 406 967 394 976 401 973 l 507 833 b 503 810 513 824 512 816 l 475 792 b 451 796 466 786 458 788 l 358 921 m 592 71 b 615 71 599 78 607 78 l 633 53 b 633 29 642 44 642 37 l 575 -25 b 551 -26 568 -32 560 -33 l 482 35 b 472 56 475 40 472 47 l 472 81 l 297 -29 b 274 -29 289 -34 281 -34 b 104 122 193 18 137 69 b 56 333 72 176 56 246 b 140 572 56 416 84 495 b 354 736 197 648 268 703 b 376 733 362 739 369 738 l 531 633 b 542 613 538 629 542 622 l 542 68 l 567 47 l 592 71 m 472 154 l 472 596 l 357 671 b 239 587 313 650 274 622 b 156 467 204 551 176 511 b 125 333 135 422 125 378 b 160 159 125 261 137 203 b 285 36 184 115 225 74 "},"":{"ha":653,"x_min":0,"x_max":0,"o":"m 272 865 b 231 829 248 865 234 853 b 214 814 229 819 223 814 l 178 814 b 161 831 166 814 160 819 b 173 870 163 845 167 859 b 196 900 179 882 187 892 b 229 919 205 908 216 915 b 272 925 242 923 256 925 b 372 889 304 925 337 913 b 432 864 397 872 417 864 b 485 896 460 864 477 875 b 501 911 488 906 493 911 l 539 911 b 554 894 552 911 557 906 b 513 830 550 869 536 847 b 432 804 489 813 463 804 b 333 840 401 804 369 816 b 272 865 308 857 288 865 m 592 71 b 615 71 599 78 607 78 l 633 53 b 633 29 642 44 642 37 l 575 -25 b 551 -26 568 -32 560 -33 l 482 35 b 472 56 475 40 472 47 l 472 81 l 297 -29 b 274 -29 289 -34 281 -34 b 104 122 193 18 137 69 b 56 333 72 176 56 246 b 140 572 56 416 84 495 b 354 736 197 648 268 703 b 376 733 362 739 369 738 l 531 633 b 542 613 538 629 542 622 l 542 68 l 567 47 l 592 71 m 472 154 l 472 596 l 357 671 b 191 529 290 640 235 593 b 125 333 147 465 125 400 b 160 159 125 261 137 203 b 285 36 184 115 225 74 "},"":{"ha":653,"x_min":0,"x_max":0,"o":"m 321 867 b 321 843 332 858 332 850 l 265 803 b 242 803 258 798 250 798 l 186 843 b 186 867 175 850 175 858 l 242 907 b 265 907 250 913 258 913 l 321 867 m 526 867 b 526 843 538 858 538 850 l 471 803 b 447 803 463 798 455 798 l 392 843 b 392 867 381 850 381 858 l 447 907 b 471 907 455 913 463 913 l 526 867 m 592 71 b 615 71 599 78 607 78 l 633 53 b 633 29 642 44 642 37 l 575 -25 b 551 -26 568 -32 560 -33 l 482 35 b 472 56 475 40 472 47 l 472 81 l 297 -29 b 274 -29 289 -34 281 -34 b 104 122 193 18 137 69 b 56 333 72 176 56 246 b 140 572 56 416 84 495 b 354 736 197 648 268 703 b 376 733 362 739 369 738 l 531 633 b 542 613 538 629 542 622 l 542 68 l 567 47 l 592 71 m 472 154 l 472 596 l 357 671 b 191 529 290 640 235 593 b 125 333 147 465 125 400 b 160 159 125 261 137 203 b 285 36 184 115 225 74 "},"":{"ha":660,"x_min":0,"x_max":0,"o":"m 365 775 b 281 808 333 775 305 786 b 246 889 258 831 246 857 b 281 969 246 920 258 947 b 365 1003 305 992 333 1003 b 424 988 386 1003 405 998 b 467 946 442 977 457 963 b 483 889 478 928 483 909 b 467 832 483 869 478 850 b 424 790 457 814 442 800 b 365 775 405 780 386 775 m 365 951 b 342 947 357 951 349 950 b 324 933 335 943 329 939 b 313 913 319 928 315 921 b 308 889 310 905 308 897 b 325 844 308 871 314 856 b 365 826 336 832 349 826 b 404 844 380 826 393 832 b 421 889 415 856 421 871 b 404 933 421 906 415 921 b 365 951 393 945 380 951 m 592 71 b 615 71 599 78 607 78 l 633 53 b 633 29 642 44 642 37 l 575 -25 b 551 -26 568 -32 560 -33 l 482 35 b 472 56 475 40 472 47 l 472 81 l 297 -29 b 274 -29 289 -34 281 -34 b 104 122 193 18 137 69 b 56 333 72 176 56 246 b 140 572 56 416 84 495 b 354 736 197 648 268 703 b 376 733 362 739 369 738 l 531 633 b 542 613 538 629 542 622 l 542 68 l 567 47 l 592 71 m 472 154 l 472 596 l 357 671 b 191 529 290 640 235 593 b 125 333 147 465 125 400 b 160 159 125 261 137 203 b 285 36 184 115 225 74 "},"":{"ha":874,"x_min":0,"x_max":0,"o":"m 750 168 b 774 167 758 175 766 174 l 794 146 b 794 122 803 138 803 130 l 621 -28 b 597 -31 613 -34 606 -35 b 438 101 531 0 478 44 l 257 -31 b 235 -31 250 -36 242 -36 b 95 120 168 17 122 67 b 56 333 69 173 56 244 b 119 581 56 423 77 506 b 282 735 161 656 215 707 b 304 733 289 738 297 737 b 465 628 363 706 416 670 b 596 731 499 667 542 701 b 618 729 603 735 611 735 b 825 482 699 669 768 587 b 821 460 831 474 829 466 l 465 190 b 599 38 494 125 538 74 m 406 157 b 365 339 379 213 365 273 b 426 576 365 431 386 511 b 292 671 383 615 338 647 b 206 594 259 654 231 628 b 147 474 181 559 161 519 b 125 333 132 428 125 381 b 151 158 125 260 134 202 b 246 39 169 115 200 75 m 601 661 b 435 339 490 590 435 482 b 444 254 435 310 438 282 l 747 483 b 601 661 703 556 654 616 "},"":{"ha":501,"x_min":0,"x_max":0,"o":"m 313 -65 b 389 -93 343 -66 369 -75 b 419 -160 409 -111 419 -133 b 385 -234 419 -190 408 -215 b 294 -262 362 -253 331 -262 b 219 -249 269 -262 244 -258 b 211 -226 208 -244 206 -237 l 225 -201 b 247 -194 230 -193 237 -191 b 294 -203 263 -200 279 -203 b 350 -160 331 -203 350 -188 b 339 -135 350 -150 346 -141 b 310 -125 331 -128 322 -125 b 286 -129 300 -125 293 -126 b 263 -131 277 -134 269 -134 l 233 -111 b 226 -89 224 -106 222 -98 l 261 -15 b 109 131 195 20 145 69 b 56 340 73 193 56 263 b 119 570 56 423 77 499 b 288 726 162 641 218 693 b 310 726 295 730 302 730 b 440 646 354 704 398 677 b 443 622 450 638 450 631 l 422 600 b 400 597 416 592 408 591 b 299 663 365 623 331 645 b 173 528 247 632 205 587 b 125 340 141 470 125 407 b 171 158 125 273 140 212 b 299 35 201 105 244 63 l 408 131 b 432 129 417 137 425 137 l 454 108 b 453 85 462 100 461 92 l 335 -19 l 313 -65 "},"":{"ha":579,"x_min":0,"x_max":0,"o":"m 339 813 b 333 790 345 803 344 796 l 314 779 b 292 785 305 774 297 775 l 193 929 b 197 953 186 939 187 947 l 226 968 b 249 963 236 974 243 972 l 339 813 m 440 168 b 464 167 449 175 456 174 l 485 146 b 485 122 493 138 493 130 l 311 -28 b 288 -31 304 -34 296 -35 b 117 119 215 4 159 53 b 56 339 76 184 56 257 b 286 731 56 515 132 645 b 308 729 294 735 301 735 b 515 482 389 669 458 587 b 511 460 521 474 519 466 l 156 190 b 289 38 184 125 229 74 m 292 661 b 125 339 181 590 125 482 b 135 254 125 310 128 282 l 438 483 b 292 661 393 556 344 615 "},"":{"ha":579,"x_min":0,"x_max":0,"o":"m 414 950 b 419 928 424 944 426 937 l 321 782 b 299 776 315 774 308 772 l 279 788 b 272 811 269 793 267 801 l 363 961 b 386 967 368 970 376 972 l 414 950 m 440 168 b 464 167 449 175 456 174 l 485 146 b 485 122 493 138 493 130 l 311 -28 b 288 -31 304 -34 296 -35 b 117 119 215 4 159 53 b 56 339 76 184 56 257 b 286 731 56 515 132 645 b 308 729 294 735 301 735 b 515 482 389 669 458 587 b 511 460 521 474 519 466 l 156 190 b 289 38 184 125 229 74 m 292 661 b 125 339 181 590 125 482 b 135 254 125 310 128 282 l 438 483 b 292 661 393 556 344 615 "},"":{"ha":579,"x_min":0,"x_max":0,"o":"m 203 793 b 181 789 197 785 190 783 l 153 806 b 147 829 143 812 141 820 l 243 963 b 264 972 249 969 256 972 l 319 972 b 340 963 328 972 335 969 l 442 829 b 438 806 448 820 447 812 l 410 789 b 386 793 400 782 393 784 l 293 917 m 440 168 b 464 167 449 175 456 174 l 485 146 b 485 122 493 138 493 130 l 311 -28 b 288 -31 304 -34 296 -35 b 117 119 215 4 159 53 b 56 339 76 184 56 257 b 286 731 56 515 132 645 b 308 729 294 735 301 735 b 515 482 389 669 458 587 b 511 460 521 474 519 466 l 156 190 b 289 38 184 125 229 74 m 292 661 b 125 339 181 590 125 482 b 135 254 125 310 128 282 l 438 483 b 292 661 393 556 344 615 "},"":{"ha":579,"x_min":0,"x_max":0,"o":"m 256 863 b 256 839 267 854 267 846 l 200 800 b 176 800 192 794 184 794 l 121 839 b 121 863 110 846 110 854 l 176 903 b 200 903 184 908 192 908 l 256 863 m 461 863 b 461 839 472 854 472 846 l 404 800 b 382 800 397 794 389 794 l 326 839 b 326 863 315 846 315 854 l 382 903 b 404 903 389 908 397 908 l 461 863 m 440 168 b 464 167 449 175 456 174 l 485 146 b 485 122 493 138 493 130 l 311 -28 b 288 -31 304 -34 296 -35 b 117 119 215 4 159 53 b 56 339 76 184 56 257 b 286 731 56 515 132 645 b 308 729 294 735 301 735 b 515 482 389 669 458 587 b 511 460 521 474 519 466 l 156 190 b 289 38 184 125 229 74 m 292 661 b 125 339 181 590 125 482 b 135 254 125 310 128 282 l 438 483 b 292 661 393 556 344 616 "},"":{"ha":292,"x_min":0,"x_max":0,"o":"m 156 779 b 132 785 146 774 138 775 l 33 929 b 39 953 27 939 29 947 l 68 968 b 90 963 77 974 85 972 l 181 813 b 175 790 187 803 185 796 l 156 779 m 210 -28 b 186 -29 202 -35 194 -36 l 101 39 b 99 62 92 46 91 54 b 111 83 107 70 111 77 l 111 638 l 92 661 l 51 621 b 28 621 43 613 35 613 l 14 632 b 14 656 6 639 6 647 l 90 732 b 114 733 99 740 106 741 l 197 656 b 199 632 206 648 206 640 b 181 606 187 621 181 612 l 181 58 l 197 44 l 228 78 b 251 79 235 85 243 86 l 268 65 b 271 42 277 59 278 51 l 210 -28 "},"":{"ha":292,"x_min":0,"x_max":0,"o":"m 163 782 b 140 776 157 774 150 772 l 121 788 b 114 811 111 793 108 801 l 204 961 b 228 967 210 970 218 972 l 256 950 b 261 928 266 944 268 937 l 163 782 m 210 -28 b 186 -29 202 -35 194 -36 l 101 39 b 99 62 92 46 91 54 b 111 83 107 70 111 77 l 111 638 l 92 661 l 51 621 b 28 621 43 613 35 613 l 14 632 b 14 656 6 639 6 647 l 90 732 b 114 733 99 740 106 741 l 197 656 b 199 632 206 648 206 640 b 181 606 187 621 181 612 l 181 58 l 197 44 l 228 78 b 251 79 235 85 243 86 l 268 65 b 271 42 277 59 278 51 l 210 -28 "},"":{"ha":292,"x_min":0,"x_max":0,"o":"m 251 789 b 228 793 242 782 234 784 l 135 917 l 44 793 b 22 789 38 785 31 783 l -7 806 b -11 829 -16 812 -18 820 l 85 963 b 106 972 90 969 97 972 l 161 972 b 182 963 169 972 176 969 l 282 829 b 278 806 289 820 288 812 l 251 789 m 210 -28 b 186 -29 202 -35 194 -36 l 101 39 b 99 62 92 46 91 54 b 111 83 107 70 111 77 l 111 638 l 92 661 l 51 621 b 28 621 43 613 35 613 l 14 632 b 14 656 6 639 6 647 l 90 732 b 114 733 99 740 106 741 l 197 656 b 199 632 206 648 206 640 b 181 606 187 621 181 612 l 181 58 l 197 44 l 228 78 b 251 79 235 85 243 86 l 268 65 b 271 42 277 59 278 51 l 210 -28 "},"":{"ha":292,"x_min":0,"x_max":0,"o":"m 42 800 b 18 800 33 794 25 794 l -37 839 b -37 863 -49 846 -49 854 l 18 903 b 42 903 25 908 33 908 l 97 863 b 97 839 108 854 108 846 l 42 800 m 246 800 b 224 800 238 794 231 794 l 168 839 b 167 863 157 846 156 854 l 224 903 b 246 903 231 908 238 908 l 303 863 b 303 839 313 854 313 846 l 246 800 m 210 -28 b 186 -29 202 -35 194 -36 l 101 39 b 99 62 92 46 91 54 b 111 83 107 70 111 77 l 111 638 l 92 661 l 51 621 b 28 621 43 613 35 613 l 14 632 b 14 656 6 640 6 648 l 90 732 b 114 733 99 740 106 741 l 197 656 b 199 632 206 648 206 640 b 181 606 187 621 181 612 l 181 58 l 197 44 l 228 78 b 251 79 235 85 243 86 l 268 65 b 271 42 277 59 278 51 l 210 -28 "},"":{"ha":653,"x_min":0,"x_max":0,"o":"m 226 835 b 292 800 252 822 274 810 b 362 757 310 790 334 775 b 433 703 390 738 414 721 b 496 639 453 686 474 665 b 549 560 518 613 536 587 b 583 467 563 533 574 502 b 597 357 593 431 597 395 b 535 137 597 272 577 198 b 342 -29 494 75 430 20 b 318 -29 334 -33 326 -33 l 96 82 b 90 104 84 88 82 96 l 97 110 b 104 117 101 113 103 116 b 108 124 105 119 106 121 b 111 133 110 128 111 131 l 111 551 b 97 579 111 559 106 568 b 101 603 90 588 91 596 l 304 719 b 183 788 277 736 237 759 l 99 690 b 75 689 91 683 83 682 l 47 710 b 46 733 39 716 38 724 l 122 819 l 21 874 b 15 896 11 879 9 887 l 29 919 b 51 925 35 929 42 931 l 164 867 l 249 963 b 272 964 256 970 264 970 l 299 943 b 301 919 308 937 309 929 l 226 835 m 328 35 b 480 174 397 77 448 124 b 528 357 512 225 528 286 b 360 681 528 487 472 594 l 181 579 l 181 108 l 328 35 "},"":{"ha":671,"x_min":0,"x_max":0,"o":"m 251 861 b 210 826 227 861 213 850 b 192 810 208 815 202 810 l 156 810 b 140 826 144 810 138 815 b 158 877 142 846 148 863 b 196 910 167 891 180 902 b 251 921 212 917 230 921 b 351 885 283 921 316 909 b 411 860 376 868 396 860 b 463 892 438 860 455 870 b 481 907 466 902 472 907 l 518 907 b 533 890 530 907 535 901 b 492 826 529 864 515 843 b 411 800 469 809 442 800 b 313 836 381 800 348 812 b 251 861 288 853 267 861 m 603 78 b 626 79 610 85 618 86 l 643 65 b 646 42 652 59 653 51 l 585 -26 b 561 -28 577 -35 569 -35 l 485 40 b 483 64 476 48 476 56 b 490 82 488 69 490 75 l 490 594 l 383 674 l 182 563 l 182 78 l 194 61 b 194 38 200 53 200 45 l 160 -15 b 136 -17 151 -27 144 -28 l 99 38 b 99 61 93 46 93 54 l 113 78 l 113 640 l 90 661 l 49 621 b 25 621 41 613 33 613 l 13 632 b 11 656 4 639 4 647 l 89 732 b 113 732 96 740 104 740 l 172 672 b 182 651 179 667 182 660 l 182 635 l 372 743 b 396 742 381 748 388 747 l 568 615 b 574 594 577 609 579 602 b 560 564 564 581 560 570 l 560 54 l 571 44 l 603 78 "},"":{"ha":654,"x_min":0,"x_max":0,"o":"m 369 817 b 363 794 375 806 373 799 l 344 783 b 321 789 335 778 327 780 l 222 933 b 228 957 216 944 218 951 l 257 972 b 279 967 266 978 274 976 l 369 817 m 317 742 b 522 584 402 709 470 657 b 599 349 573 511 599 433 b 590 266 599 320 596 292 b 565 192 585 240 576 215 b 530 131 554 170 542 149 b 481 73 517 112 501 93 b 428 22 461 53 444 36 b 368 -28 412 8 392 -8 b 346 -31 361 -33 353 -34 b 107 100 270 1 190 44 b 103 124 98 106 96 114 b 113 142 109 131 113 137 l 111 547 b 99 578 111 556 107 566 b 103 601 92 586 94 594 b 306 735 144 633 212 677 m 346 36 b 421 102 376 61 401 83 b 477 169 440 121 459 143 b 517 251 495 194 508 222 b 529 349 525 281 529 313 b 473 539 529 415 510 479 b 321 671 435 599 385 643 b 182 582 272 644 225 614 l 182 128 b 346 36 230 96 285 66 "},"":{"ha":654,"x_min":0,"x_max":0,"o":"m 444 954 b 450 932 455 949 456 941 l 351 786 b 328 781 345 778 337 776 l 308 792 b 303 814 299 797 297 805 l 393 964 b 415 971 399 974 406 976 l 444 954 m 317 742 b 522 584 402 709 470 657 b 599 349 573 511 599 433 b 581 229 599 305 593 265 b 527 128 570 193 552 159 b 457 49 503 96 479 70 b 368 -28 435 27 405 2 b 346 -31 361 -33 353 -34 b 107 100 270 1 190 44 b 103 124 98 106 96 114 b 113 142 109 131 113 137 l 111 547 b 99 578 111 556 107 566 b 103 601 92 586 94 594 b 306 735 144 633 212 677 m 346 36 b 421 102 376 61 401 83 b 477 169 440 121 459 143 b 517 251 495 194 508 222 b 529 349 525 281 529 313 b 473 539 529 415 510 479 b 321 671 435 599 385 643 b 182 582 272 644 225 614 l 182 128 b 346 36 230 96 285 66 "},"":{"ha":654,"x_min":0,"x_max":0,"o":"m 233 797 b 210 793 227 788 219 787 l 182 810 b 178 833 172 816 170 824 l 274 967 b 293 976 278 973 285 976 l 350 976 b 369 967 358 976 365 973 l 471 833 b 467 810 478 824 477 816 l 439 792 b 417 796 431 786 423 788 l 322 921 m 317 742 b 522 584 402 709 470 657 b 599 349 573 511 599 433 b 590 266 599 320 596 292 b 565 192 585 240 576 215 b 530 131 554 170 542 149 b 481 73 517 112 501 93 b 428 22 461 53 444 36 b 368 -28 412 8 392 -8 b 346 -31 361 -33 353 -34 b 107 100 270 1 190 44 b 103 124 98 106 96 114 b 113 142 109 131 113 137 l 111 547 b 99 578 111 556 107 566 b 103 601 92 586 94 594 b 306 735 144 633 212 677 m 346 36 b 421 102 376 61 401 83 b 477 169 440 121 459 143 b 517 251 495 194 508 222 b 529 349 525 281 529 313 b 473 539 529 415 510 479 b 321 671 435 599 385 643 b 182 582 272 644 225 614 l 182 128 b 346 36 230 96 285 66 "},"":{"ha":654,"x_min":0,"x_max":0,"o":"m 236 865 b 194 829 212 865 198 853 b 178 814 193 819 187 814 l 142 814 b 126 831 130 814 124 820 b 133 863 127 843 130 853 b 149 889 137 873 142 881 b 172 908 155 896 163 903 b 201 921 180 914 190 918 b 236 925 213 924 224 925 b 338 889 268 925 301 913 b 396 864 362 872 381 864 b 449 896 424 864 441 875 b 467 911 452 906 458 911 l 503 911 b 519 894 516 911 521 906 b 504 858 517 881 512 869 b 477 830 497 847 488 838 b 440 811 466 822 454 816 b 396 804 426 806 412 804 b 299 840 365 804 333 816 b 236 865 273 857 252 865 m 317 742 b 522 584 402 709 470 657 b 599 349 573 511 599 433 b 581 229 599 305 593 265 b 527 128 570 193 552 159 b 457 49 503 96 479 70 b 368 -28 435 27 405 2 b 346 -31 361 -33 353 -34 b 107 100 270 1 190 44 b 103 124 98 106 96 114 b 113 142 109 131 113 137 l 111 547 b 99 578 111 556 107 566 b 103 601 92 586 94 594 b 306 735 144 633 212 677 m 346 36 b 421 102 376 61 401 83 b 477 169 440 121 459 143 b 517 251 495 194 508 222 b 529 349 525 281 529 313 b 473 539 529 415 510 479 b 321 671 435 599 385 643 b 182 582 272 644 225 614 l 182 128 b 346 36 230 96 285 66 "},"":{"ha":654,"x_min":0,"x_max":0,"o":"m 286 867 b 285 843 296 858 296 850 l 229 803 b 206 804 222 798 214 799 l 150 843 b 150 867 140 850 140 858 l 206 907 b 229 907 214 913 222 913 l 286 867 m 490 867 b 490 843 501 858 501 850 l 435 804 b 411 804 427 799 419 799 l 356 843 b 356 867 344 850 344 858 l 411 907 b 435 907 419 913 427 913 l 490 867 m 317 742 b 522 584 402 709 470 657 b 599 349 573 511 599 433 b 581 230 599 306 593 266 b 527 128 570 193 552 159 b 457 49 503 96 479 70 b 368 -28 435 27 405 2 b 346 -31 361 -33 353 -34 b 107 100 270 1 190 44 b 103 124 98 106 96 114 b 113 142 109 131 113 137 l 111 549 b 99 578 111 556 107 566 b 103 601 92 586 94 594 b 306 735 144 633 212 677 m 346 36 b 421 102 376 61 401 83 b 477 169 440 121 459 143 b 517 251 495 194 508 222 b 529 349 525 281 529 313 b 473 539 529 415 510 479 b 321 671 435 599 385 643 b 182 582 272 644 225 614 l 182 128 b 346 36 230 96 285 66 "},"":{"ha":696,"x_min":0,"x_max":0,"o":"m 358 529 b 310 549 340 529 324 536 b 290 598 297 563 290 579 b 310 647 290 617 297 633 b 358 667 324 660 340 667 b 406 647 377 667 393 660 b 426 598 420 633 426 617 b 406 549 426 579 420 563 b 358 529 393 536 377 529 m 72 378 b 56 394 61 378 56 383 l 56 421 b 72 438 56 432 61 438 l 624 438 b 640 421 635 438 640 432 l 640 394 b 624 378 640 383 635 378 l 72 378 m 358 151 b 310 172 340 151 324 158 b 290 219 297 185 290 201 b 310 267 290 238 297 254 b 358 288 324 281 340 288 b 406 267 377 288 393 281 b 426 219 420 254 426 238 b 406 172 426 201 420 185 b 358 151 393 158 377 151 "},"":{"ha":654,"x_min":0,"x_max":0,"o":"m 476 639 b 567 503 515 599 545 554 b 599 349 588 453 599 401 b 590 266 599 320 596 292 b 565 192 585 240 576 215 b 530 131 554 170 542 149 b 481 73 517 112 501 93 b 428 22 461 53 444 36 b 368 -28 412 8 392 -8 b 346 -31 361 -33 353 -34 b 261 8 320 -20 292 -7 l 224 -101 b 203 -112 221 -112 214 -115 l 171 -103 b 160 -82 160 -100 156 -93 l 201 42 b 107 100 169 60 138 80 b 103 124 98 106 96 114 b 113 142 109 131 113 137 l 111 547 b 99 578 111 556 107 566 b 101 601 92 586 93 594 b 306 735 143 632 211 676 b 329 738 313 739 321 740 b 421 686 362 724 392 706 l 447 764 b 468 775 451 774 458 778 l 501 765 b 513 744 513 763 516 756 l 476 639 m 182 128 b 222 103 192 121 206 113 l 400 622 b 321 671 376 643 350 659 b 182 582 272 644 225 614 l 182 128 m 346 36 b 421 102 376 61 401 83 b 477 169 440 121 459 143 b 517 251 495 194 508 222 b 529 349 525 281 529 313 b 451 568 529 429 503 502 l 282 69 b 346 36 309 55 330 44 "},"":{"ha":650,"x_min":0,"x_max":0,"o":"m 367 813 b 361 790 373 803 371 796 l 342 779 b 319 785 332 774 325 775 l 221 929 b 225 953 213 939 215 947 l 254 968 b 276 963 263 974 271 972 l 367 813 m 607 78 b 631 79 614 85 622 86 l 647 65 b 650 42 656 59 657 51 l 589 -26 b 565 -29 581 -35 574 -36 l 478 46 b 468 67 471 51 468 58 l 468 81 l 299 -32 b 276 -31 291 -37 284 -36 l 103 96 b 97 118 94 102 92 110 b 111 147 106 131 111 141 l 111 638 l 92 661 l 50 621 b 26 621 43 613 35 613 l 14 632 b 13 656 6 639 5 647 l 90 732 b 114 733 98 740 106 741 l 188 668 b 189 644 196 661 196 653 b 181 625 183 639 181 632 l 181 117 l 289 38 l 468 157 l 468 646 l 454 667 b 456 690 450 675 450 683 l 490 735 b 514 735 499 745 506 745 l 550 689 b 551 667 556 681 557 674 l 538 646 l 538 79 l 575 44 l 607 78 "},"":{"ha":650,"x_min":0,"x_max":0,"o":"m 442 950 b 447 928 452 944 454 937 l 349 782 b 326 776 343 774 336 772 l 307 788 b 300 811 297 793 294 801 l 390 961 b 414 967 396 970 404 972 l 442 950 m 607 78 b 631 79 614 85 622 86 l 647 65 b 650 42 656 59 657 51 l 589 -26 b 565 -29 581 -35 574 -36 l 478 46 b 468 67 471 51 468 58 l 468 81 l 299 -32 b 276 -31 291 -37 284 -36 l 103 96 b 97 118 94 102 92 110 b 111 147 106 131 111 141 l 111 638 l 92 661 l 50 621 b 26 621 43 613 35 613 l 14 632 b 13 656 6 639 5 647 l 90 732 b 114 733 98 740 106 741 l 188 668 b 189 644 196 661 196 653 b 181 625 183 639 181 632 l 181 117 l 289 38 l 468 157 l 468 646 l 454 667 b 456 690 450 675 450 683 l 490 735 b 514 735 499 745 506 745 l 550 689 b 551 667 556 681 557 674 l 538 646 l 538 79 l 575 44 l 607 78 "},"":{"ha":650,"x_min":0,"x_max":0,"o":"m 231 793 b 208 789 225 785 218 783 l 181 806 b 175 829 170 812 169 820 l 271 963 b 292 972 276 969 283 972 l 347 972 b 368 963 356 972 363 969 l 469 829 b 465 806 476 820 475 812 l 438 789 b 414 793 428 782 420 784 l 321 917 m 607 78 b 631 79 614 85 622 86 l 647 65 b 650 42 656 59 657 51 l 589 -26 b 565 -29 581 -35 574 -36 l 478 46 b 468 67 471 51 468 58 l 468 81 l 299 -32 b 276 -31 291 -37 284 -36 l 103 96 b 97 118 94 102 92 110 b 111 147 106 131 111 141 l 111 638 l 92 661 l 50 621 b 26 621 43 613 35 613 l 14 632 b 13 656 6 639 5 647 l 90 732 b 114 733 98 740 106 741 l 188 668 b 189 644 196 661 196 653 b 181 625 183 639 181 632 l 181 117 l 289 38 l 468 157 l 468 646 l 454 667 b 456 690 450 675 450 683 l 490 735 b 514 735 499 745 506 745 l 550 689 b 551 667 556 681 557 674 l 538 646 l 538 79 l 575 44 l 607 78 "},"":{"ha":650,"x_min":0,"x_max":0,"o":"m 283 863 b 283 839 294 854 294 846 l 228 800 b 204 800 219 794 212 794 l 149 839 b 149 863 138 846 138 854 l 204 903 b 228 903 212 908 219 908 l 283 863 m 489 863 b 489 839 500 854 500 846 l 432 800 b 410 800 425 794 417 794 l 354 839 b 354 863 343 846 343 854 l 410 903 b 432 903 417 908 425 908 l 489 863 m 607 78 b 631 79 614 85 622 86 l 647 65 b 650 42 656 59 657 51 l 589 -26 b 565 -29 581 -35 574 -36 l 478 46 b 468 67 471 51 468 58 l 468 81 l 299 -32 b 276 -31 291 -37 284 -36 l 103 96 b 97 118 94 102 92 110 b 111 147 106 131 111 141 l 111 639 l 92 661 l 50 621 b 26 621 43 613 35 613 l 14 632 b 13 656 6 640 5 648 l 90 732 b 114 733 98 740 106 741 l 188 668 b 189 644 196 661 196 653 b 181 625 183 639 181 632 l 181 117 l 289 38 l 468 157 l 468 646 l 454 667 b 456 690 450 675 450 683 l 490 735 b 514 735 499 745 506 745 l 550 689 b 551 667 556 681 557 674 l 538 646 l 538 79 l 575 44 l 607 78 "},"":{"ha":650,"x_min":0,"x_max":0,"o":"m 349 782 b 326 776 343 774 336 772 l 307 788 b 300 811 297 793 294 801 l 390 961 b 414 967 396 970 404 972 l 442 950 b 447 928 452 944 454 937 l 349 782 m 554 22 b 575 -75 568 -19 575 -51 b 492 -211 575 -130 547 -175 b 286 -265 437 -247 369 -265 b 135 -228 224 -265 174 -253 b 76 -132 96 -204 76 -172 b 99 -75 76 -110 84 -91 b 158 -43 115 -59 134 -49 b 178 -57 169 -40 176 -45 l 181 -83 b 167 -103 181 -93 177 -99 b 146 -132 153 -108 146 -118 b 183 -185 146 -154 158 -172 b 286 -206 208 -199 243 -206 b 443 -168 349 -206 401 -193 b 506 -75 485 -143 506 -112 b 489 3 506 -56 500 -31 b 469 82 478 36 471 63 l 299 -32 b 276 -31 291 -37 284 -36 l 103 96 b 97 118 94 102 92 110 b 111 147 106 131 111 141 l 111 638 l 92 661 l 50 621 b 26 621 43 613 35 613 l 14 632 b 13 656 6 639 5 647 l 90 732 b 114 733 98 740 106 741 l 188 668 b 189 644 196 661 196 653 b 181 625 183 639 181 632 l 181 117 l 289 38 l 468 156 l 468 646 l 454 667 b 456 690 450 675 450 683 l 490 735 b 514 735 499 745 506 745 l 550 689 b 551 667 556 681 557 674 l 538 646 l 538 94 b 554 22 538 78 544 54 "},"":{"ha":638,"x_min":0,"x_max":0,"o":"m 344 749 b 519 589 419 713 477 660 b 582 349 561 518 582 438 b 567 229 582 305 577 265 b 518 129 556 193 540 160 b 450 49 496 99 473 72 b 363 -29 427 25 398 0 b 339 -31 355 -35 347 -35 l 174 58 l 174 11 b 175 -54 175 -18 175 -39 b 149 -279 175 -147 166 -222 b 128 -290 145 -289 138 -293 l 94 -281 b 83 -260 83 -277 80 -270 b 106 -54 98 -210 106 -141 b 104 11 106 -40 105 -19 l 104 83 l 104 790 b 88 919 104 838 99 881 b 99 940 85 930 88 937 l 132 950 b 153 939 143 953 150 949 b 174 790 167 894 174 845 l 174 633 l 333 740 m 343 38 b 475 185 406 90 450 140 b 513 349 500 231 513 286 b 469 540 513 418 498 482 b 349 675 440 597 400 643 l 174 557 l 174 129 l 343 38 "},"":{"ha":650,"x_min":0,"x_max":0,"o":"m 228 800 b 204 800 219 794 212 794 l 149 839 b 149 863 138 846 138 854 l 204 903 b 228 903 212 908 219 908 l 283 863 b 283 839 294 854 294 846 l 228 800 m 432 800 b 410 800 425 794 417 794 l 354 839 b 354 863 343 846 343 854 l 410 903 b 432 903 417 908 425 908 l 489 863 b 489 839 500 854 500 846 l 432 800 m 554 22 b 575 -75 568 -19 575 -51 b 538 -173 575 -111 563 -144 b 433 -241 513 -202 478 -225 b 286 -265 389 -257 340 -265 b 135 -228 224 -265 174 -253 b 76 -132 96 -204 76 -172 b 99 -74 76 -110 84 -91 b 158 -43 115 -58 134 -48 b 178 -57 169 -40 176 -45 l 181 -83 b 167 -103 181 -93 177 -99 b 146 -132 153 -108 146 -118 b 183 -185 146 -154 158 -172 b 286 -206 208 -199 243 -206 b 443 -168 349 -206 401 -193 b 506 -75 485 -143 506 -112 b 489 3 506 -56 500 -31 b 469 82 478 36 471 63 l 299 -32 b 276 -31 291 -37 284 -36 l 103 96 b 97 118 94 102 92 110 b 111 147 106 131 111 141 l 111 639 l 92 661 l 50 621 b 26 621 43 613 35 613 l 14 632 b 13 656 6 640 5 648 l 90 732 b 114 733 98 740 106 741 l 188 668 b 189 644 196 661 196 653 b 181 625 183 639 181 632 l 181 117 l 289 38 l 468 157 l 468 646 l 454 667 b 456 690 450 675 450 683 l 490 735 b 514 735 499 745 506 745 l 550 689 b 551 667 556 681 557 674 l 538 646 l 538 94 b 554 22 538 78 544 54 "},"":{"ha":292,"x_min":0,"x_max":0,"o":"m 210 -28 b 186 -29 202 -35 194 -36 l 101 39 b 99 62 92 46 91 54 b 111 83 107 70 111 77 l 111 638 l 92 661 l 51 621 b 28 621 43 613 35 613 l 14 632 b 14 656 6 639 6 647 l 90 732 b 114 733 99 740 106 741 l 197 656 b 199 632 206 648 206 640 b 181 606 187 621 181 612 l 181 58 l 197 44 l 228 78 b 251 79 235 85 243 86 l 268 65 b 271 42 277 59 278 51 l 210 -28 "},"":{"ha":833,"x_min":0,"x_max":0,"o":"m 694 143 b 718 140 703 150 711 149 l 738 118 b 735 94 745 109 744 101 l 540 -51 b 518 -53 534 -56 526 -56 l 229 94 b 106 43 191 60 150 43 b 69 47 92 43 80 44 b 47 58 59 50 52 54 b 36 74 41 63 38 68 b 36 90 34 79 34 85 b 44 106 38 96 41 101 b 58 115 49 111 54 114 b 72 113 63 116 67 116 b 88 106 76 111 81 109 b 106 103 94 104 100 103 b 208 166 143 103 177 124 b 254 306 239 208 254 255 b 217 465 254 362 242 415 l 61 357 b 39 360 53 350 45 351 l 19 382 b 22 406 12 391 13 399 l 183 519 b 122 599 171 538 151 564 b 74 659 101 625 85 645 b 42 717 64 673 53 693 b 25 785 31 741 25 763 b 135 959 25 857 62 915 b 425 1025 209 1003 306 1025 b 701 960 540 1025 632 1003 b 806 786 771 917 806 859 b 785 706 806 761 799 734 b 744 639 771 678 757 656 b 688 571 731 622 713 600 b 608 467 649 526 622 492 b 586 396 593 442 586 418 b 599 356 586 381 591 368 b 629 339 608 345 618 339 b 668 357 641 339 654 345 b 693 356 677 363 686 363 l 715 335 b 714 311 724 326 723 319 b 629 279 686 290 658 279 b 550 314 599 279 572 291 b 517 396 528 337 517 364 b 524 442 517 411 519 426 b 542 486 529 459 535 473 b 570 531 548 499 558 514 b 601 571 583 548 593 562 b 635 610 609 580 620 593 b 715 714 674 654 700 689 b 736 786 729 739 736 763 b 722 847 736 808 731 829 b 682 897 713 866 700 882 b 618 935 664 912 643 925 b 531 958 593 945 564 953 b 425 965 498 963 463 965 b 185 916 325 965 245 949 b 94 785 125 883 94 839 b 111 725 94 765 100 745 b 176 636 122 705 144 675 b 238 558 203 604 224 578 l 383 661 b 407 658 393 668 400 667 l 426 635 b 422 611 434 626 432 619 l 271 504 b 324 306 306 440 324 374 b 272 142 324 246 306 192 l 522 14 "},"":{"ha":338,"x_min":0,"x_max":0,"o":"m 256 94 b 279 96 263 102 271 102 l 303 76 b 306 53 312 69 313 61 l 231 -26 b 208 -29 224 -34 217 -35 l 96 49 b 93 71 86 55 85 63 b 103 88 100 78 103 84 l 103 397 l 39 343 b 15 344 31 336 23 336 l -6 365 b -4 389 -14 374 -13 381 l 103 479 l 103 686 b 104 693 103 689 103 691 b 79 864 101 769 93 826 b 87 885 75 873 78 880 b 108 881 96 891 103 889 b 129 835 116 869 123 853 b 176 903 140 860 156 882 b 254 969 196 923 222 945 b 278 968 263 976 271 975 l 285 961 b 283 938 292 953 292 945 b 194 832 238 900 208 864 b 172 686 179 800 172 751 l 172 538 l 283 631 b 307 629 292 637 300 637 l 328 607 b 328 583 336 599 336 591 l 172 454 l 172 74 l 211 47 "},"":{"ha":1571,"x_min":0,"x_max":0,"o":"m 1431 429 b 1489 421 1456 442 1475 439 b 1510 308 1503 402 1510 365 b 1454 133 1510 246 1491 188 b 1306 3 1417 79 1368 35 b 1106 -46 1244 -30 1177 -46 b 817 60 994 -46 898 -11 b 572 -43 742 -9 660 -43 b 435 -22 528 -43 482 -36 b 326 17 388 -8 351 5 b 229 68 301 29 269 46 b 164 103 198 86 176 97 l 93 50 b 69 53 85 44 77 44 l 50 75 b 53 99 43 83 44 91 l 142 165 b 164 169 148 171 156 172 b 263 121 186 161 219 145 b 356 70 301 99 332 82 b 452 35 379 59 411 47 b 572 17 493 23 533 17 b 771 106 643 17 709 46 b 640 486 684 206 640 332 b 725 813 640 602 669 711 b 500 958 658 879 583 928 b 129 725 366 895 242 818 b 235 397 200 610 235 501 b 192 268 235 345 221 302 b 85 217 164 234 128 217 b 28 229 66 217 47 221 b 22 251 17 233 15 240 l 36 275 b 60 282 42 283 50 286 b 85 276 68 278 76 276 b 142 311 107 276 126 288 b 165 397 157 334 165 363 b 53 722 165 499 128 607 b 56 746 47 731 48 738 b 485 1019 181 854 325 945 b 507 1021 492 1022 500 1023 b 760 868 600 989 685 938 b 813 933 776 892 794 914 b 873 983 832 953 852 969 b 938 1015 894 997 915 1008 b 1003 1026 960 1023 981 1026 b 1131 972 1047 1026 1090 1008 b 1199 1021 1152 990 1175 1006 b 1222 1019 1207 1025 1215 1025 l 1329 942 l 1381 983 b 1404 982 1388 991 1396 990 l 1425 960 b 1424 938 1432 952 1432 945 l 1343 871 b 1321 869 1336 864 1328 864 l 1208 951 b 1058 799 1161 919 1111 868 l 1113 735 l 1171 665 l 1278 750 b 1301 749 1286 756 1294 756 l 1379 674 l 1424 708 b 1447 707 1432 716 1440 715 l 1468 685 b 1467 661 1475 676 1475 669 l 1386 597 b 1363 599 1378 591 1370 591 l 1285 675 l 1210 615 b 1313 372 1278 524 1313 443 b 1252 210 1313 309 1292 255 b 1107 143 1212 166 1163 143 b 965 206 1050 143 1003 164 b 908 361 927 247 908 299 b 963 538 908 423 926 482 b 986 543 968 547 976 549 l 1014 526 b 1019 503 1023 521 1025 513 b 978 361 992 459 978 412 b 1015 248 978 316 990 278 b 1107 203 1039 218 1070 203 b 1174 226 1131 203 1153 210 b 1224 288 1195 241 1212 262 b 1243 372 1237 315 1243 343 b 1231 447 1243 398 1239 423 b 1190 528 1223 471 1209 498 b 1135 604 1170 559 1152 584 b 1060 696 1119 625 1094 655 l 985 786 b 985 808 978 794 978 801 b 1083 928 1021 858 1054 898 b 1003 967 1056 954 1029 967 b 866 897 957 967 912 943 b 753 714 820 850 783 789 b 710 486 724 639 710 563 b 822 147 710 349 747 236 b 1106 14 896 58 991 14 b 1340 102 1195 14 1274 43 b 1440 308 1407 161 1440 230 b 1433 351 1440 322 1438 337 b 1421 386 1429 366 1425 378 b 1416 410 1417 394 1416 403 b 1431 429 1416 418 1421 425 "},"":{"ha":960,"x_min":0,"x_max":0,"o":"m 819 168 b 843 167 828 175 836 174 l 865 146 b 864 122 874 138 873 130 l 690 -28 b 668 -31 683 -34 675 -35 b 507 103 601 0 548 44 b 368 -28 478 67 432 23 b 346 -31 361 -33 353 -34 b 107 100 270 1 190 44 b 103 124 98 106 96 114 b 113 142 109 131 113 137 l 111 547 b 99 578 111 556 107 566 b 101 601 92 586 93 594 b 306 735 143 632 211 676 b 329 738 313 739 321 740 b 511 599 402 707 463 661 b 665 731 548 650 600 694 b 688 729 674 735 681 735 b 894 482 768 669 837 587 b 890 460 900 474 899 466 l 535 190 b 669 38 563 125 608 74 m 346 36 b 472 163 405 84 447 126 b 435 339 447 217 435 276 b 475 536 435 414 448 480 b 321 671 436 598 385 643 b 182 582 272 644 225 614 l 182 128 b 346 36 230 96 285 66 m 671 661 b 504 339 560 590 504 482 b 514 254 504 310 507 282 l 817 483 b 671 661 772 556 724 615 "},"":{"ha":815,"x_min":0,"x_max":0,"o":"m 410 1072 b 389 1083 401 1072 394 1076 l 293 1217 b 299 1239 287 1226 288 1233 l 326 1257 b 349 1253 336 1263 343 1261 l 439 1128 l 532 1253 b 556 1257 538 1261 546 1263 l 583 1239 b 588 1215 593 1232 594 1225 l 486 1082 b 465 1072 481 1075 474 1072 l 410 1072 m 57 11 b 33 11 49 5 41 5 l 11 33 b 11 57 3 41 3 49 l 133 168 b 157 171 141 175 149 176 l 385 31 b 606 105 476 32 550 57 b 689 289 661 153 689 214 b 651 426 689 338 676 384 b 546 529 625 469 590 503 l 294 399 b 271 400 286 395 278 395 b 128 531 209 437 161 481 b 78 692 94 582 78 635 b 186 919 78 780 114 856 b 443 1015 258 983 344 1015 b 464 1008 450 1015 457 1013 l 632 889 l 700 953 b 724 953 708 960 716 960 l 747 931 b 746 907 756 923 755 915 l 649 818 b 625 817 641 812 633 811 l 431 956 b 230 874 352 953 285 925 b 147 692 175 822 147 761 b 286 464 147 603 194 527 l 535 592 b 557 593 542 596 550 597 b 705 466 620 563 669 520 b 758 289 741 412 758 353 b 651 60 758 195 722 119 b 374 -29 579 0 487 -29 b 353 -24 366 -29 359 -27 l 153 100 l 57 11 "},"":{"ha":568,"x_min":0,"x_max":0,"o":"m 269 781 b 250 792 261 781 255 784 l 154 925 b 158 947 148 934 149 942 l 186 965 b 210 961 195 971 203 969 l 299 836 l 393 961 b 415 965 400 969 407 971 l 443 947 b 447 924 453 941 455 933 l 347 790 b 326 781 342 784 335 781 l 269 781 m 81 58 b 75 81 70 64 69 71 l 90 106 b 113 111 96 115 103 117 l 268 29 b 395 119 321 51 363 81 b 443 236 427 156 443 195 b 372 372 443 285 419 331 l 204 247 b 181 249 196 242 188 242 b 56 468 97 318 56 391 b 128 631 56 527 80 582 b 310 729 176 681 237 713 b 332 726 317 731 325 730 l 475 638 b 481 614 485 631 487 623 l 463 590 b 440 586 457 582 450 581 l 308 667 b 214 622 273 657 242 643 b 149 551 186 602 164 578 b 125 468 133 523 125 496 b 196 321 125 418 149 369 l 363 443 b 386 443 370 449 378 449 b 513 236 470 382 513 313 b 447 79 513 181 491 128 b 274 -33 403 30 345 -7 b 251 -32 266 -36 259 -36 l 81 58 "},"":{"ha":935,"x_min":0,"x_max":0,"o":"m 536 1140 b 536 1117 547 1132 547 1124 l 481 1078 b 457 1078 472 1072 464 1072 l 401 1117 b 401 1140 390 1124 390 1132 l 457 1181 b 481 1181 464 1186 472 1186 l 536 1140 m 742 1140 b 742 1117 753 1132 753 1124 l 686 1078 b 663 1078 678 1072 670 1072 l 607 1117 b 607 1140 596 1124 596 1132 l 663 1181 b 686 1181 670 1186 678 1186 l 742 1140 m 853 92 b 869 0 864 50 869 19 b 823 -137 869 -49 854 -95 b 697 -236 792 -179 750 -212 b 522 -272 643 -260 585 -272 b 436 -260 494 -272 465 -268 b 363 -231 407 -251 383 -242 b 296 -184 342 -219 320 -204 b 242 -137 272 -164 254 -148 b 193 -86 230 -125 213 -108 b 126 -20 160 -52 138 -30 b 96 -6 115 -10 105 -6 b 68 -12 85 -6 75 -8 b 31 -44 61 -17 48 -28 b 6 -44 22 -52 14 -52 l -11 -26 b -10 -1 -19 -18 -18 -10 b 50 45 17 24 37 39 b 96 54 63 51 78 54 b 157 33 116 54 137 47 b 243 -46 177 19 206 -7 b 303 -106 268 -72 288 -92 b 363 -157 318 -121 338 -137 b 440 -199 389 -176 414 -191 b 522 -212 466 -208 494 -212 b 719 -151 599 -212 665 -192 b 800 0 773 -109 800 -59 b 786 76 800 15 795 40 b 765 161 777 111 770 139 l 533 -36 b 510 -36 525 -44 517 -44 l 272 182 b 151 142 231 155 191 142 b 44 176 113 142 78 153 b 43 200 34 183 34 191 l 64 221 b 88 222 71 228 79 229 b 151 201 108 208 129 201 b 285 280 197 201 241 228 b 351 440 329 332 351 386 b 338 524 351 470 347 498 b 292 604 328 551 313 577 b 238 669 272 631 253 653 b 168 736 222 685 199 707 b 96 806 132 769 108 793 b 99 829 89 814 90 822 l 293 1007 b 317 1007 301 1014 309 1014 l 339 986 b 339 963 347 978 347 970 l 178 815 l 215 779 b 273 724 240 756 259 738 b 326 666 286 711 304 691 b 376 597 347 641 364 618 b 407 524 387 577 398 553 b 421 440 416 496 421 468 b 394 326 421 402 412 364 b 322 222 376 287 352 253 l 524 39 l 756 236 b 754 293 755 256 754 275 l 754 806 b 806 1004 754 895 771 962 b 829 1006 812 1013 820 1014 l 853 985 b 856 963 860 978 861 971 b 824 806 834 929 824 877 l 824 293 b 853 92 824 232 833 165 "},"":{"ha":1046,"x_min":0,"x_max":0,"o":"m 557 1068 b 536 1058 551 1062 544 1058 l 479 1058 b 460 1069 471 1058 464 1062 l 364 1203 b 368 1225 357 1212 359 1219 l 396 1243 b 419 1239 405 1249 413 1247 l 508 1114 l 603 1239 b 625 1243 609 1247 617 1249 l 653 1225 b 657 1201 663 1219 664 1211 l 557 1068 m 949 192 b 972 200 954 201 962 204 l 1003 186 b 1010 163 1013 181 1015 173 b 679 -44 932 25 822 -44 b 574 -30 646 -44 611 -40 b 460 13 538 -20 500 -6 b 365 61 420 32 388 48 b 272 114 341 74 310 92 l 228 139 l 157 67 b 133 65 150 59 142 59 l 108 86 b 108 110 100 94 100 101 l 482 494 l 332 494 l 269 431 b 246 431 262 423 254 423 l 222 450 b 221 474 213 457 213 465 l 290 546 b 311 554 297 551 304 554 l 540 554 l 836 857 b 424 954 688 922 550 954 b 209 883 346 954 274 931 b 111 728 144 836 111 784 b 122 685 111 713 115 699 b 141 654 128 672 135 662 b 149 630 147 647 150 639 b 129 601 148 621 141 612 b 105 594 121 597 113 594 b 82 603 97 593 89 596 b 62 628 75 609 68 618 b 47 670 56 639 51 653 b 42 728 44 687 42 706 b 97 867 42 776 60 822 b 241 974 134 911 182 947 b 424 1014 300 1000 361 1014 b 672 978 505 1014 588 1002 b 881 904 755 955 825 930 l 951 976 b 975 978 959 984 967 984 l 999 957 b 1000 933 1008 950 1008 942 l 631 554 l 781 554 l 836 611 b 860 611 844 619 851 619 l 883 592 b 885 568 893 584 893 576 l 821 503 b 801 494 815 497 809 494 l 572 494 l 272 185 l 307 165 b 428 96 357 136 397 113 b 549 44 459 79 500 62 b 679 17 599 26 642 17 b 833 58 738 17 790 31 b 949 192 876 86 914 131 "},"":{"ha":633,"x_min":0,"x_max":0,"o":"m 360 790 b 339 781 354 784 347 781 l 283 781 b 263 792 275 781 268 784 l 167 925 b 172 947 160 934 162 942 l 200 965 b 222 961 209 971 217 969 l 313 836 l 406 961 b 429 965 412 969 420 971 l 457 947 b 461 924 466 941 468 933 l 360 790 m 571 107 b 594 108 578 114 586 115 l 619 89 b 621 65 629 81 629 74 l 543 -18 b 524 -29 538 -25 531 -28 b 472 -33 506 -32 489 -33 b 392 -22 445 -33 419 -29 b 331 1 366 -14 346 -6 b 276 32 317 8 299 18 b 183 71 232 58 201 71 b 79 -4 154 71 119 46 b 56 -10 73 -13 65 -15 l 28 8 b 24 32 19 15 17 23 l 265 357 l 160 357 b 143 374 149 357 143 363 l 143 400 b 160 417 143 411 149 417 l 310 417 l 463 621 b 360 646 438 621 404 629 b 225 676 303 666 258 676 b 157 667 203 676 180 673 l 76 585 b 53 583 68 577 60 577 l 28 604 b 28 628 19 612 19 619 l 110 710 b 128 721 114 715 120 719 b 225 736 159 731 192 736 b 383 701 268 736 320 725 b 467 681 423 688 451 681 b 538 722 491 681 514 694 b 561 726 544 731 552 732 l 588 708 b 593 685 598 702 600 694 l 393 417 l 493 417 b 510 400 504 417 510 411 l 510 374 b 493 357 510 363 504 357 l 349 357 l 179 131 l 183 131 b 311 83 215 131 257 115 b 362 54 332 70 349 61 b 411 35 374 48 391 41 b 472 26 431 29 452 26 b 497 28 481 26 489 27 l 571 107 "},"":{"ha":257,"x_min":0,"x_max":0,"o":"m 254 1232 b 258 1235 254 1233 255 1234 b 267 1240 260 1237 263 1238 b 276 1239 270 1241 274 1241 b 340 1126 319 1213 340 1175 b 309 1024 340 1092 330 1058 b 222 938 288 991 259 962 b 200 939 215 933 207 933 l 154 975 l 99 914 b 174 747 149 852 174 796 l 174 0 b 150 -199 174 -75 166 -141 b 79 -381 134 -257 111 -318 b 58 -389 75 -391 68 -394 l 33 -378 b 25 -356 23 -373 20 -366 b 86 -185 54 -297 74 -241 b 104 0 98 -130 104 -69 l 104 607 l 50 607 b 33 624 39 607 33 613 l 33 650 b 50 667 33 661 39 667 l 104 667 l 104 747 b 22 901 104 791 77 842 b 21 925 15 910 14 918 l 133 1051 b 157 1053 141 1060 149 1060 l 222 1001 b 269 1063 242 1020 257 1041 b 288 1128 281 1086 288 1107 b 251 1196 288 1156 275 1179 b 246 1218 242 1202 240 1210 l 254 1232 "},"":{"ha":626,"x_min":0,"x_max":0,"o":"m 499 963 b 331 742 413 963 356 889 l 319 675 l 493 675 b 510 658 504 675 510 669 l 510 632 b 493 615 510 621 504 615 l 308 615 l 199 -6 b 121 -156 188 -68 162 -118 b -25 -212 80 -194 31 -212 b -124 -190 -59 -212 -92 -205 b -129 -167 -134 -185 -136 -177 l -112 -143 b -90 -137 -107 -135 -100 -133 b -25 -153 -69 -148 -47 -153 b 76 -110 14 -153 47 -138 b 131 6 104 -81 122 -43 l 238 615 l 115 615 b 99 632 104 615 99 621 l 99 658 b 115 675 99 669 104 675 l 249 675 l 263 753 b 499 1022 294 932 373 1022 b 625 996 537 1022 579 1013 b 633 974 635 991 638 984 l 621 949 b 592 943 616 939 606 938 b 499 963 556 956 525 963 "},"":{"ha":425,"x_min":0,"x_max":0,"o":"m 328 789 b 304 793 319 782 311 784 l 211 917 l 121 793 b 99 789 115 785 108 783 l 71 806 b 65 829 61 812 59 820 l 161 963 b 182 972 167 969 174 972 l 238 972 b 258 963 246 972 253 969 l 360 829 b 356 806 366 820 365 812 l 328 789 "},"":{"ha":425,"x_min":0,"x_max":0,"o":"m 182 781 b 161 792 174 781 167 784 l 65 925 b 71 947 59 934 61 942 l 99 965 b 121 961 108 971 115 969 l 211 836 l 304 961 b 328 965 311 969 319 971 l 356 947 b 360 924 365 941 366 933 l 258 790 b 238 781 253 784 246 781 l 182 781 "},"":{"ha":507,"x_min":0,"x_max":0,"o":"m 253 761 b 122 810 203 761 159 778 b 57 933 85 843 63 884 b 74 950 55 944 61 950 l 110 950 b 126 935 119 950 125 945 b 150 876 130 913 138 894 b 195 835 162 859 177 845 b 254 821 213 826 233 821 b 337 853 286 821 313 832 b 381 935 360 875 375 902 b 399 950 382 945 388 950 l 435 950 b 450 933 447 950 452 944 b 385 810 444 884 422 843 b 253 761 348 778 304 761 "},"":{"ha":251,"x_min":0,"x_max":0,"o":"m 138 800 b 114 800 129 794 121 794 l 58 839 b 58 863 47 846 47 854 l 114 903 b 138 903 121 908 129 908 l 193 863 b 193 839 204 854 204 846 l 138 800 "},"":{"ha":383,"x_min":0,"x_max":0,"o":"m 196 772 b 137 787 175 772 155 777 b 94 828 119 797 104 810 b 78 885 83 845 78 864 b 113 965 78 916 89 943 b 196 999 136 988 163 999 b 279 965 228 999 256 988 b 314 885 302 943 314 916 b 279 805 314 853 302 827 b 196 772 256 783 228 772 m 195 832 b 230 847 209 832 220 837 b 244 885 240 857 244 870 b 230 923 244 900 240 912 b 196 939 220 934 209 939 b 171 931 187 939 178 936 b 153 912 163 926 158 920 b 147 885 149 904 147 895 b 161 847 147 870 152 857 b 195 832 170 837 182 832 "},"":{"ha":301,"x_min":0,"x_max":0,"o":"m 176 -262 b 89 -234 140 -262 111 -253 b 56 -160 67 -215 56 -190 b 77 -74 56 -128 63 -100 b 144 17 91 -48 114 -18 b 168 21 151 25 159 26 l 192 4 b 196 -18 201 -2 202 -10 l 182 -36 b 137 -103 160 -64 145 -86 b 125 -160 129 -121 125 -139 b 176 -203 125 -188 142 -203 b 200 -200 185 -203 193 -202 b 222 -207 210 -196 218 -199 l 236 -232 b 231 -253 243 -242 241 -249 b 176 -262 213 -259 195 -262 "},"":{"ha":507,"x_min":0,"x_max":0,"o":"m 328 800 b 229 836 297 800 264 812 b 168 861 204 853 184 861 b 126 826 144 861 130 850 b 108 810 125 815 119 810 l 72 810 b 57 826 60 810 55 815 b 91 896 60 856 71 879 b 168 921 111 913 137 921 b 268 885 200 921 233 909 b 328 860 293 868 313 860 b 379 892 355 860 372 870 b 397 907 383 902 389 907 l 435 907 b 447 903 440 907 444 906 b 450 892 450 900 451 896 b 410 826 446 866 433 844 b 328 800 387 809 359 800 "},"":{"ha":424,"x_min":0,"x_max":0,"o":"m 113 783 b 90 778 107 774 100 772 l 71 788 b 64 811 61 793 58 801 l 154 961 b 178 967 160 970 168 972 l 206 951 b 211 928 216 945 218 937 l 113 783 m 260 783 b 236 778 253 774 245 772 l 217 788 b 211 811 207 793 206 801 l 301 961 b 324 967 307 970 314 972 l 353 951 b 358 928 363 945 365 937 l 260 783 "}}}
